ISO-10303-21;
HEADER;
/* Generated by software containing ST-Developer
 * from STEP Tools, Inc. (www.steptools.com) 
 */

FILE_DESCRIPTION(
/* description */ (''),
/* implementation_level */ '2;1');

FILE_NAME(
/* name */ 'Antena_housing.step',
/* time_stamp */ '2026-04-28T21:20:15+02:00',
/* author */ (''),
/* organization */ (''),
/* preprocessor_version */ 'ST-DEVELOPER v20.1',
/* originating_system */ 'Autodesk Translation Framework v15.8.0.0',
/* authorisation */ '');

FILE_SCHEMA (('AUTOMOTIVE_DESIGN { 1 0 10303 214 3 1 1 }'));
ENDSEC;

DATA;
#10=MECHANICAL_DESIGN_GEOMETRIC_PRESENTATION_REPRESENTATION('',(#13),#613);
#11=SHAPE_REPRESENTATION_RELATIONSHIP('SRR','None',#620,#12);
#12=ADVANCED_BREP_SHAPE_REPRESENTATION('',(#14),#612);
#13=STYLED_ITEM('',(#629),#14);
#14=MANIFOLD_SOLID_BREP('Housing',#331);
#15=CONICAL_SURFACE('',#366,22.75,0.76582196148267);
#16=FACE_BOUND('',#104,.T.);
#17=FACE_BOUND('',#106,.T.);
#18=FACE_BOUND('',#113,.T.);
#19=FACE_BOUND('',#114,.T.);
#20=FACE_BOUND('',#115,.T.);
#21=FACE_BOUND('',#116,.T.);
#22=FACE_BOUND('',#117,.T.);
#23=FACE_BOUND('',#118,.T.);
#24=FACE_BOUND('',#119,.T.);
#25=PLANE('',#352);
#26=PLANE('',#356);
#27=PLANE('',#363);
#28=PLANE('',#364);
#29=PLANE('',#375);
#30=PLANE('',#377);
#31=PLANE('',#385);
#32=PLANE('',#388);
#33=PLANE('',#391);
#34=PLANE('',#394);
#35=PLANE('',#397);
#36=LINE('',#529,#48);
#37=LINE('',#536,#49);
#38=LINE('',#543,#50);
#39=LINE('',#549,#51);
#40=LINE('',#558,#52);
#41=LINE('',#562,#53);
#42=LINE('',#573,#54);
#43=LINE('',#587,#55);
#44=LINE('',#592,#56);
#45=LINE('',#597,#57);
#46=LINE('',#602,#58);
#47=LINE('',#607,#59);
#48=VECTOR('',#412,20.5);
#49=VECTOR('',#421,1.);
#50=VECTOR('',#430,23.25);
#51=VECTOR('',#437,22.);
#52=VECTOR('',#450,22.75);
#53=VECTOR('',#455,25.);
#54=VECTOR('',#470,19.5);
#55=VECTOR('',#485,1.);
#56=VECTOR('',#492,1.);
#57=VECTOR('',#499,1.);
#58=VECTOR('',#506,1.);
#59=VECTOR('',#513,1.);
#60=CYLINDRICAL_SURFACE('',#350,21.);
#61=CYLINDRICAL_SURFACE('',#353,1.);
#62=CYLINDRICAL_SURFACE('',#357,23.25);
#63=CYLINDRICAL_SURFACE('',#360,22.);
#64=CYLINDRICAL_SURFACE('',#368,29.);
#65=CYLINDRICAL_SURFACE('',#376,19.5);
#66=CYLINDRICAL_SURFACE('',#383,1.);
#67=CYLINDRICAL_SURFACE('',#386,1.);
#68=CYLINDRICAL_SURFACE('',#389,1.);
#69=CYLINDRICAL_SURFACE('',#392,1.);
#70=CYLINDRICAL_SURFACE('',#395,1.);
#71=FACE_OUTER_BOUND('',#96,.T.);
#72=FACE_OUTER_BOUND('',#97,.T.);
#73=FACE_OUTER_BOUND('',#98,.T.);
#74=FACE_OUTER_BOUND('',#99,.T.);
#75=FACE_OUTER_BOUND('',#100,.T.);
#76=FACE_OUTER_BOUND('',#101,.T.);
#77=FACE_OUTER_BOUND('',#102,.T.);
#78=FACE_OUTER_BOUND('',#103,.T.);
#79=FACE_OUTER_BOUND('',#105,.T.);
#80=FACE_OUTER_BOUND('',#107,.T.);
#81=FACE_OUTER_BOUND('',#108,.T.);
#82=FACE_OUTER_BOUND('',#109,.T.);
#83=FACE_OUTER_BOUND('',#110,.T.);
#84=FACE_OUTER_BOUND('',#111,.T.);
#85=FACE_OUTER_BOUND('',#112,.T.);
#86=FACE_OUTER_BOUND('',#120,.T.);
#87=FACE_OUTER_BOUND('',#121,.T.);
#88=FACE_OUTER_BOUND('',#122,.T.);
#89=FACE_OUTER_BOUND('',#123,.T.);
#90=FACE_OUTER_BOUND('',#124,.T.);
#91=FACE_OUTER_BOUND('',#125,.T.);
#92=FACE_OUTER_BOUND('',#126,.T.);
#93=FACE_OUTER_BOUND('',#127,.T.);
#94=FACE_OUTER_BOUND('',#128,.T.);
#95=FACE_OUTER_BOUND('',#129,.T.);
#96=EDGE_LOOP('',(#224,#225,#226,#227,#228));
#97=EDGE_LOOP('',(#229,#230,#231,#232,#233));
#98=EDGE_LOOP('',(#234));
#99=EDGE_LOOP('',(#235,#236,#237,#238));
#100=EDGE_LOOP('',(#239));
#101=EDGE_LOOP('',(#240,#241,#242,#243));
#102=EDGE_LOOP('',(#244,#245,#246,#247));
#103=EDGE_LOOP('',(#248));
#104=EDGE_LOOP('',(#249));
#105=EDGE_LOOP('',(#250));
#106=EDGE_LOOP('',(#251));
#107=EDGE_LOOP('',(#252,#253,#254,#255));
#108=EDGE_LOOP('',(#256,#257,#258,#259));
#109=EDGE_LOOP('',(#260,#261,#262,#263,#264));
#110=EDGE_LOOP('',(#265));
#111=EDGE_LOOP('',(#266,#267,#268,#269,#270));
#112=EDGE_LOOP('',(#271));
#113=EDGE_LOOP('',(#272));
#114=EDGE_LOOP('',(#273));
#115=EDGE_LOOP('',(#274));
#116=EDGE_LOOP('',(#275));
#117=EDGE_LOOP('',(#276));
#118=EDGE_LOOP('',(#277));
#119=EDGE_LOOP('',(#278));
#120=EDGE_LOOP('',(#279,#280,#281,#282));
#121=EDGE_LOOP('',(#283));
#122=EDGE_LOOP('',(#284,#285,#286,#287));
#123=EDGE_LOOP('',(#288));
#124=EDGE_LOOP('',(#289,#290,#291,#292));
#125=EDGE_LOOP('',(#293));
#126=EDGE_LOOP('',(#294,#295,#296,#297));
#127=EDGE_LOOP('',(#298));
#128=EDGE_LOOP('',(#299,#300,#301,#302));
#129=EDGE_LOOP('',(#303));
#130=CIRCLE('',#346,18.5);
#131=CIRCLE('',#347,2.5);
#132=CIRCLE('',#348,21.);
#133=CIRCLE('',#349,21.);
#134=CIRCLE('',#351,21.);
#135=CIRCLE('',#354,1.);
#136=CIRCLE('',#355,1.);
#137=CIRCLE('',#358,23.25);
#138=CIRCLE('',#359,23.25);
#139=CIRCLE('',#361,22.);
#140=CIRCLE('',#362,22.);
#141=CIRCLE('',#365,19.5);
#142=CIRCLE('',#367,29.);
#143=CIRCLE('',#369,29.);
#144=CIRCLE('',#371,17.);
#145=CIRCLE('',#372,2.5);
#146=CIRCLE('',#373,19.5);
#147=CIRCLE('',#374,19.5);
#148=CIRCLE('',#378,1.);
#149=CIRCLE('',#379,1.);
#150=CIRCLE('',#380,1.);
#151=CIRCLE('',#381,1.);
#152=CIRCLE('',#382,1.);
#153=CIRCLE('',#384,1.);
#154=CIRCLE('',#387,1.);
#155=CIRCLE('',#390,1.);
#156=CIRCLE('',#393,1.);
#157=CIRCLE('',#396,1.);
#158=VERTEX_POINT('',#520);
#159=VERTEX_POINT('',#522);
#160=VERTEX_POINT('',#524);
#161=VERTEX_POINT('',#528);
#162=VERTEX_POINT('',#533);
#163=VERTEX_POINT('',#535);
#164=VERTEX_POINT('',#540);
#165=VERTEX_POINT('',#542);
#166=VERTEX_POINT('',#546);
#167=VERTEX_POINT('',#548);
#168=VERTEX_POINT('',#553);
#169=VERTEX_POINT('',#556);
#170=VERTEX_POINT('',#560);
#171=VERTEX_POINT('',#564);
#172=VERTEX_POINT('',#566);
#173=VERTEX_POINT('',#568);
#174=VERTEX_POINT('',#575);
#175=VERTEX_POINT('',#577);
#176=VERTEX_POINT('',#579);
#177=VERTEX_POINT('',#581);
#178=VERTEX_POINT('',#583);
#179=VERTEX_POINT('',#586);
#180=VERTEX_POINT('',#591);
#181=VERTEX_POINT('',#596);
#182=VERTEX_POINT('',#601);
#183=VERTEX_POINT('',#606);
#184=EDGE_CURVE('',#158,#158,#130,.T.);
#185=EDGE_CURVE('',#158,#159,#131,.T.);
#186=EDGE_CURVE('',#159,#160,#132,.T.);
#187=EDGE_CURVE('',#160,#159,#133,.T.);
#188=EDGE_CURVE('',#160,#161,#36,.T.);
#189=EDGE_CURVE('',#161,#161,#134,.F.);
#190=EDGE_CURVE('',#162,#162,#135,.T.);
#191=EDGE_CURVE('',#162,#163,#37,.T.);
#192=EDGE_CURVE('',#163,#163,#136,.T.);
#193=EDGE_CURVE('',#164,#164,#137,.T.);
#194=EDGE_CURVE('',#164,#165,#38,.T.);
#195=EDGE_CURVE('',#165,#165,#138,.T.);
#196=EDGE_CURVE('',#166,#166,#139,.T.);
#197=EDGE_CURVE('',#166,#167,#39,.T.);
#198=EDGE_CURVE('',#167,#167,#140,.T.);
#199=EDGE_CURVE('',#168,#168,#141,.T.);
#200=EDGE_CURVE('',#169,#169,#142,.T.);
#201=EDGE_CURVE('',#169,#161,#40,.T.);
#202=EDGE_CURVE('',#170,#170,#143,.T.);
#203=EDGE_CURVE('',#170,#169,#41,.T.);
#204=EDGE_CURVE('',#171,#171,#144,.T.);
#205=EDGE_CURVE('',#171,#172,#145,.T.);
#206=EDGE_CURVE('',#172,#173,#146,.T.);
#207=EDGE_CURVE('',#173,#172,#147,.T.);
#208=EDGE_CURVE('',#173,#168,#42,.T.);
#209=EDGE_CURVE('',#174,#174,#148,.T.);
#210=EDGE_CURVE('',#175,#175,#149,.T.);
#211=EDGE_CURVE('',#176,#176,#150,.T.);
#212=EDGE_CURVE('',#177,#177,#151,.T.);
#213=EDGE_CURVE('',#178,#178,#152,.T.);
#214=EDGE_CURVE('',#178,#179,#43,.T.);
#215=EDGE_CURVE('',#179,#179,#153,.T.);
#216=EDGE_CURVE('',#177,#180,#44,.T.);
#217=EDGE_CURVE('',#180,#180,#154,.T.);
#218=EDGE_CURVE('',#176,#181,#45,.T.);
#219=EDGE_CURVE('',#181,#181,#155,.T.);
#220=EDGE_CURVE('',#175,#182,#46,.T.);
#221=EDGE_CURVE('',#182,#182,#156,.T.);
#222=EDGE_CURVE('',#174,#183,#47,.T.);
#223=EDGE_CURVE('',#183,#183,#157,.T.);
#224=ORIENTED_EDGE('',*,*,#184,.T.);
#225=ORIENTED_EDGE('',*,*,#185,.T.);
#226=ORIENTED_EDGE('',*,*,#186,.T.);
#227=ORIENTED_EDGE('',*,*,#187,.T.);
#228=ORIENTED_EDGE('',*,*,#185,.F.);
#229=ORIENTED_EDGE('',*,*,#187,.F.);
#230=ORIENTED_EDGE('',*,*,#188,.T.);
#231=ORIENTED_EDGE('',*,*,#189,.T.);
#232=ORIENTED_EDGE('',*,*,#188,.F.);
#233=ORIENTED_EDGE('',*,*,#186,.F.);
#234=ORIENTED_EDGE('',*,*,#184,.F.);
#235=ORIENTED_EDGE('',*,*,#190,.F.);
#236=ORIENTED_EDGE('',*,*,#191,.T.);
#237=ORIENTED_EDGE('',*,*,#192,.T.);
#238=ORIENTED_EDGE('',*,*,#191,.F.);
#239=ORIENTED_EDGE('',*,*,#192,.F.);
#240=ORIENTED_EDGE('',*,*,#193,.F.);
#241=ORIENTED_EDGE('',*,*,#194,.T.);
#242=ORIENTED_EDGE('',*,*,#195,.F.);
#243=ORIENTED_EDGE('',*,*,#194,.F.);
#244=ORIENTED_EDGE('',*,*,#196,.T.);
#245=ORIENTED_EDGE('',*,*,#197,.T.);
#246=ORIENTED_EDGE('',*,*,#198,.F.);
#247=ORIENTED_EDGE('',*,*,#197,.F.);
#248=ORIENTED_EDGE('',*,*,#193,.T.);
#249=ORIENTED_EDGE('',*,*,#196,.F.);
#250=ORIENTED_EDGE('',*,*,#198,.T.);
#251=ORIENTED_EDGE('',*,*,#199,.T.);
#252=ORIENTED_EDGE('',*,*,#200,.F.);
#253=ORIENTED_EDGE('',*,*,#201,.T.);
#254=ORIENTED_EDGE('',*,*,#189,.F.);
#255=ORIENTED_EDGE('',*,*,#201,.F.);
#256=ORIENTED_EDGE('',*,*,#202,.F.);
#257=ORIENTED_EDGE('',*,*,#203,.T.);
#258=ORIENTED_EDGE('',*,*,#200,.T.);
#259=ORIENTED_EDGE('',*,*,#203,.F.);
#260=ORIENTED_EDGE('',*,*,#204,.T.);
#261=ORIENTED_EDGE('',*,*,#205,.T.);
#262=ORIENTED_EDGE('',*,*,#206,.T.);
#263=ORIENTED_EDGE('',*,*,#207,.T.);
#264=ORIENTED_EDGE('',*,*,#205,.F.);
#265=ORIENTED_EDGE('',*,*,#204,.F.);
#266=ORIENTED_EDGE('',*,*,#207,.F.);
#267=ORIENTED_EDGE('',*,*,#208,.T.);
#268=ORIENTED_EDGE('',*,*,#199,.F.);
#269=ORIENTED_EDGE('',*,*,#208,.F.);
#270=ORIENTED_EDGE('',*,*,#206,.F.);
#271=ORIENTED_EDGE('',*,*,#202,.T.);
#272=ORIENTED_EDGE('',*,*,#209,.T.);
#273=ORIENTED_EDGE('',*,*,#210,.T.);
#274=ORIENTED_EDGE('',*,*,#211,.T.);
#275=ORIENTED_EDGE('',*,*,#212,.T.);
#276=ORIENTED_EDGE('',*,*,#213,.T.);
#277=ORIENTED_EDGE('',*,*,#190,.T.);
#278=ORIENTED_EDGE('',*,*,#195,.T.);
#279=ORIENTED_EDGE('',*,*,#213,.F.);
#280=ORIENTED_EDGE('',*,*,#214,.T.);
#281=ORIENTED_EDGE('',*,*,#215,.T.);
#282=ORIENTED_EDGE('',*,*,#214,.F.);
#283=ORIENTED_EDGE('',*,*,#215,.F.);
#284=ORIENTED_EDGE('',*,*,#212,.F.);
#285=ORIENTED_EDGE('',*,*,#216,.T.);
#286=ORIENTED_EDGE('',*,*,#217,.T.);
#287=ORIENTED_EDGE('',*,*,#216,.F.);
#288=ORIENTED_EDGE('',*,*,#217,.F.);
#289=ORIENTED_EDGE('',*,*,#211,.F.);
#290=ORIENTED_EDGE('',*,*,#218,.T.);
#291=ORIENTED_EDGE('',*,*,#219,.T.);
#292=ORIENTED_EDGE('',*,*,#218,.F.);
#293=ORIENTED_EDGE('',*,*,#219,.F.);
#294=ORIENTED_EDGE('',*,*,#210,.F.);
#295=ORIENTED_EDGE('',*,*,#220,.T.);
#296=ORIENTED_EDGE('',*,*,#221,.T.);
#297=ORIENTED_EDGE('',*,*,#220,.F.);
#298=ORIENTED_EDGE('',*,*,#221,.F.);
#299=ORIENTED_EDGE('',*,*,#209,.F.);
#300=ORIENTED_EDGE('',*,*,#222,.T.);
#301=ORIENTED_EDGE('',*,*,#223,.T.);
#302=ORIENTED_EDGE('',*,*,#222,.F.);
#303=ORIENTED_EDGE('',*,*,#223,.F.);
#304=TOROIDAL_SURFACE('',#345,18.5,2.5);
#305=TOROIDAL_SURFACE('',#370,17.,2.5);
#306=ADVANCED_FACE('',(#71),#304,.T.);
#307=ADVANCED_FACE('',(#72),#60,.T.);
#308=ADVANCED_FACE('',(#73),#25,.T.);
#309=ADVANCED_FACE('',(#74),#61,.F.);
#310=ADVANCED_FACE('',(#75),#26,.T.);
#311=ADVANCED_FACE('',(#76),#62,.F.);
#312=ADVANCED_FACE('',(#77),#63,.T.);
#313=ADVANCED_FACE('',(#78,#16),#27,.F.);
#314=ADVANCED_FACE('',(#79,#17),#28,.F.);
#315=ADVANCED_FACE('',(#80),#15,.T.);
#316=ADVANCED_FACE('',(#81),#64,.T.);
#317=ADVANCED_FACE('',(#82),#305,.F.);
#318=ADVANCED_FACE('',(#83),#29,.F.);
#319=ADVANCED_FACE('',(#84),#65,.F.);
#320=ADVANCED_FACE('',(#85,#18,#19,#20,#21,#22,#23,#24),#30,.F.);
#321=ADVANCED_FACE('',(#86),#66,.F.);
#322=ADVANCED_FACE('',(#87),#31,.T.);
#323=ADVANCED_FACE('',(#88),#67,.F.);
#324=ADVANCED_FACE('',(#89),#32,.T.);
#325=ADVANCED_FACE('',(#90),#68,.F.);
#326=ADVANCED_FACE('',(#91),#33,.T.);
#327=ADVANCED_FACE('',(#92),#69,.F.);
#328=ADVANCED_FACE('',(#93),#34,.T.);
#329=ADVANCED_FACE('',(#94),#70,.F.);
#330=ADVANCED_FACE('',(#95),#35,.T.);
#331=CLOSED_SHELL('',(#306,#307,#308,#309,#310,#311,#312,#313,#314,#315,
#316,#317,#318,#319,#320,#321,#322,#323,#324,#325,#326,#327,#328,#329,#330));
#332=DERIVED_UNIT_ELEMENT(#334,1.);
#333=DERIVED_UNIT_ELEMENT(#615,-3.);
#334=(
MASS_UNIT()
NAMED_UNIT(*)
SI_UNIT(.KILO.,.GRAM.)
);
#335=DERIVED_UNIT((#332,#333));
#336=MEASURE_REPRESENTATION_ITEM('density measure',
POSITIVE_RATIO_MEASURE(7850.),#335);
#337=PROPERTY_DEFINITION_REPRESENTATION(#342,#339);
#338=PROPERTY_DEFINITION_REPRESENTATION(#343,#340);
#339=REPRESENTATION('material name',(#341),#612);
#340=REPRESENTATION('density',(#336),#612);
#341=DESCRIPTIVE_REPRESENTATION_ITEM('Stal','Stal');
#342=PROPERTY_DEFINITION('material property','material name',#622);
#343=PROPERTY_DEFINITION('material property','density of part',#622);
#344=AXIS2_PLACEMENT_3D('',#518,#398,#399);
#345=AXIS2_PLACEMENT_3D('',#519,#400,#401);
#346=AXIS2_PLACEMENT_3D('',#521,#402,#403);
#347=AXIS2_PLACEMENT_3D('',#523,#404,#405);
#348=AXIS2_PLACEMENT_3D('',#525,#406,#407);
#349=AXIS2_PLACEMENT_3D('',#526,#408,#409);
#350=AXIS2_PLACEMENT_3D('',#527,#410,#411);
#351=AXIS2_PLACEMENT_3D('',#530,#413,#414);
#352=AXIS2_PLACEMENT_3D('',#531,#415,#416);
#353=AXIS2_PLACEMENT_3D('',#532,#417,#418);
#354=AXIS2_PLACEMENT_3D('',#534,#419,#420);
#355=AXIS2_PLACEMENT_3D('',#537,#422,#423);
#356=AXIS2_PLACEMENT_3D('',#538,#424,#425);
#357=AXIS2_PLACEMENT_3D('',#539,#426,#427);
#358=AXIS2_PLACEMENT_3D('',#541,#428,#429);
#359=AXIS2_PLACEMENT_3D('',#544,#431,#432);
#360=AXIS2_PLACEMENT_3D('',#545,#433,#434);
#361=AXIS2_PLACEMENT_3D('',#547,#435,#436);
#362=AXIS2_PLACEMENT_3D('',#550,#438,#439);
#363=AXIS2_PLACEMENT_3D('',#551,#440,#441);
#364=AXIS2_PLACEMENT_3D('',#552,#442,#443);
#365=AXIS2_PLACEMENT_3D('',#554,#444,#445);
#366=AXIS2_PLACEMENT_3D('',#555,#446,#447);
#367=AXIS2_PLACEMENT_3D('',#557,#448,#449);
#368=AXIS2_PLACEMENT_3D('',#559,#451,#452);
#369=AXIS2_PLACEMENT_3D('',#561,#453,#454);
#370=AXIS2_PLACEMENT_3D('',#563,#456,#457);
#371=AXIS2_PLACEMENT_3D('',#565,#458,#459);
#372=AXIS2_PLACEMENT_3D('',#567,#460,#461);
#373=AXIS2_PLACEMENT_3D('',#569,#462,#463);
#374=AXIS2_PLACEMENT_3D('',#570,#464,#465);
#375=AXIS2_PLACEMENT_3D('',#571,#466,#467);
#376=AXIS2_PLACEMENT_3D('',#572,#468,#469);
#377=AXIS2_PLACEMENT_3D('',#574,#471,#472);
#378=AXIS2_PLACEMENT_3D('',#576,#473,#474);
#379=AXIS2_PLACEMENT_3D('',#578,#475,#476);
#380=AXIS2_PLACEMENT_3D('',#580,#477,#478);
#381=AXIS2_PLACEMENT_3D('',#582,#479,#480);
#382=AXIS2_PLACEMENT_3D('',#584,#481,#482);
#383=AXIS2_PLACEMENT_3D('',#585,#483,#484);
#384=AXIS2_PLACEMENT_3D('',#588,#486,#487);
#385=AXIS2_PLACEMENT_3D('',#589,#488,#489);
#386=AXIS2_PLACEMENT_3D('',#590,#490,#491);
#387=AXIS2_PLACEMENT_3D('',#593,#493,#494);
#388=AXIS2_PLACEMENT_3D('',#594,#495,#496);
#389=AXIS2_PLACEMENT_3D('',#595,#497,#498);
#390=AXIS2_PLACEMENT_3D('',#598,#500,#501);
#391=AXIS2_PLACEMENT_3D('',#599,#502,#503);
#392=AXIS2_PLACEMENT_3D('',#600,#504,#505);
#393=AXIS2_PLACEMENT_3D('',#603,#507,#508);
#394=AXIS2_PLACEMENT_3D('',#604,#509,#510);
#395=AXIS2_PLACEMENT_3D('',#605,#511,#512);
#396=AXIS2_PLACEMENT_3D('',#608,#514,#515);
#397=AXIS2_PLACEMENT_3D('',#609,#516,#517);
#398=DIRECTION('axis',(0.,0.,1.));
#399=DIRECTION('refdir',(1.,0.,0.));
#400=DIRECTION('center_axis',(0.,1.,0.));
#401=DIRECTION('ref_axis',(0.,0.,1.));
#402=DIRECTION('center_axis',(0.,-1.,0.));
#403=DIRECTION('ref_axis',(1.,0.,0.));
#404=DIRECTION('center_axis',(-1.,0.,1.22464679914735E-16));
#405=DIRECTION('ref_axis',(-1.22464679914735E-16,0.,-1.));
#406=DIRECTION('center_axis',(0.,1.,0.));
#407=DIRECTION('ref_axis',(1.,0.,0.));
#408=DIRECTION('center_axis',(0.,1.,0.));
#409=DIRECTION('ref_axis',(1.,0.,0.));
#410=DIRECTION('center_axis',(0.,1.,0.));
#411=DIRECTION('ref_axis',(1.,0.,0.));
#412=DIRECTION('',(0.,-1.,0.));
#413=DIRECTION('center_axis',(0.,-1.,0.));
#414=DIRECTION('ref_axis',(1.,0.,0.));
#415=DIRECTION('center_axis',(0.,1.,0.));
#416=DIRECTION('ref_axis',(1.,0.,0.));
#417=DIRECTION('center_axis',(0.,1.,0.));
#418=DIRECTION('ref_axis',(1.,0.,0.));
#419=DIRECTION('center_axis',(0.,1.,0.));
#420=DIRECTION('ref_axis',(1.,0.,0.));
#421=DIRECTION('',(0.,1.,0.));
#422=DIRECTION('center_axis',(0.,1.,0.));
#423=DIRECTION('ref_axis',(1.,0.,0.));
#424=DIRECTION('center_axis',(0.,-1.,0.));
#425=DIRECTION('ref_axis',(1.,0.,0.));
#426=DIRECTION('center_axis',(0.,-1.,0.));
#427=DIRECTION('ref_axis',(1.,0.,0.));
#428=DIRECTION('center_axis',(0.,-1.,0.));
#429=DIRECTION('ref_axis',(1.,0.,0.));
#430=DIRECTION('',(0.,-1.,0.));
#431=DIRECTION('center_axis',(0.,1.,0.));
#432=DIRECTION('ref_axis',(1.,0.,0.));
#433=DIRECTION('center_axis',(0.,-1.,0.));
#434=DIRECTION('ref_axis',(1.,0.,0.));
#435=DIRECTION('center_axis',(0.,-1.,0.));
#436=DIRECTION('ref_axis',(1.,0.,0.));
#437=DIRECTION('',(0.,-1.,0.));
#438=DIRECTION('center_axis',(0.,-1.,0.));
#439=DIRECTION('ref_axis',(1.,0.,0.));
#440=DIRECTION('center_axis',(0.,1.,0.));
#441=DIRECTION('ref_axis',(0.,0.,1.));
#442=DIRECTION('center_axis',(0.,1.,0.));
#443=DIRECTION('ref_axis',(1.,0.,0.));
#444=DIRECTION('center_axis',(0.,1.,0.));
#445=DIRECTION('ref_axis',(1.,0.,0.));
#446=DIRECTION('center_axis',(0.,-1.,0.));
#447=DIRECTION('ref_axis',(1.,0.,0.));
#448=DIRECTION('center_axis',(0.,-1.,0.));
#449=DIRECTION('ref_axis',(1.,0.,0.));
#450=DIRECTION('',(0.693129713062578,0.720812875072156,8.4883908449601E-17));
#451=DIRECTION('center_axis',(0.,-1.,0.));
#452=DIRECTION('ref_axis',(1.,0.,0.));
#453=DIRECTION('center_axis',(0.,-1.,0.));
#454=DIRECTION('ref_axis',(1.,0.,0.));
#455=DIRECTION('',(0.,1.,0.));
#456=DIRECTION('center_axis',(0.,1.,0.));
#457=DIRECTION('ref_axis',(0.,0.,1.));
#458=DIRECTION('center_axis',(0.,1.,0.));
#459=DIRECTION('ref_axis',(1.,0.,0.));
#460=DIRECTION('center_axis',(-1.,0.,1.22464679914735E-16));
#461=DIRECTION('ref_axis',(-1.22464679914735E-16,0.,-1.));
#462=DIRECTION('center_axis',(0.,-1.,0.));
#463=DIRECTION('ref_axis',(1.,0.,0.));
#464=DIRECTION('center_axis',(0.,-1.,0.));
#465=DIRECTION('ref_axis',(1.,0.,0.));
#466=DIRECTION('center_axis',(0.,1.,0.));
#467=DIRECTION('ref_axis',(-1.,0.,0.));
#468=DIRECTION('center_axis',(0.,1.,0.));
#469=DIRECTION('ref_axis',(1.,0.,0.));
#470=DIRECTION('',(0.,-1.,0.));
#471=DIRECTION('center_axis',(0.,1.,0.));
#472=DIRECTION('ref_axis',(1.,0.,0.));
#473=DIRECTION('center_axis',(0.,1.,0.));
#474=DIRECTION('ref_axis',(0.499999999999999,0.,0.866025403784439));
#475=DIRECTION('center_axis',(0.,1.,0.));
#476=DIRECTION('ref_axis',(-0.5,0.,0.866025403784438));
#477=DIRECTION('center_axis',(0.,1.,0.));
#478=DIRECTION('ref_axis',(-1.,0.,-1.22464679914735E-16));
#479=DIRECTION('center_axis',(0.,1.,0.));
#480=DIRECTION('ref_axis',(-0.5,0.,-0.866025403784439));
#481=DIRECTION('center_axis',(0.,1.,0.));
#482=DIRECTION('ref_axis',(0.5,0.,-0.866025403784439));
#483=DIRECTION('center_axis',(0.,1.,0.));
#484=DIRECTION('ref_axis',(0.5,0.,-0.866025403784439));
#485=DIRECTION('',(0.,1.,0.));
#486=DIRECTION('center_axis',(0.,1.,0.));
#487=DIRECTION('ref_axis',(0.5,0.,-0.866025403784439));
#488=DIRECTION('center_axis',(0.,-1.,0.));
#489=DIRECTION('ref_axis',(0.5,0.,-0.866025403784439));
#490=DIRECTION('center_axis',(0.,1.,0.));
#491=DIRECTION('ref_axis',(-0.5,0.,-0.866025403784439));
#492=DIRECTION('',(0.,1.,0.));
#493=DIRECTION('center_axis',(0.,1.,0.));
#494=DIRECTION('ref_axis',(-0.5,0.,-0.866025403784439));
#495=DIRECTION('center_axis',(0.,-1.,0.));
#496=DIRECTION('ref_axis',(-0.5,0.,-0.866025403784439));
#497=DIRECTION('center_axis',(0.,1.,0.));
#498=DIRECTION('ref_axis',(-1.,0.,-1.22464679914735E-16));
#499=DIRECTION('',(0.,1.,0.));
#500=DIRECTION('center_axis',(0.,1.,0.));
#501=DIRECTION('ref_axis',(-1.,0.,-1.22464679914735E-16));
#502=DIRECTION('center_axis',(0.,-1.,0.));
#503=DIRECTION('ref_axis',(-1.,0.,-1.22464679914735E-16));
#504=DIRECTION('center_axis',(0.,1.,0.));
#505=DIRECTION('ref_axis',(-0.5,0.,0.866025403784438));
#506=DIRECTION('',(0.,1.,0.));
#507=DIRECTION('center_axis',(0.,1.,0.));
#508=DIRECTION('ref_axis',(-0.5,0.,0.866025403784438));
#509=DIRECTION('center_axis',(0.,-1.,0.));
#510=DIRECTION('ref_axis',(-0.5,0.,0.866025403784438));
#511=DIRECTION('center_axis',(0.,1.,0.));
#512=DIRECTION('ref_axis',(0.499999999999999,0.,0.866025403784439));
#513=DIRECTION('',(0.,1.,0.));
#514=DIRECTION('center_axis',(0.,1.,0.));
#515=DIRECTION('ref_axis',(0.499999999999999,0.,0.866025403784439));
#516=DIRECTION('center_axis',(0.,-1.,0.));
#517=DIRECTION('ref_axis',(0.499999999999999,0.,0.866025403784439));
#518=CARTESIAN_POINT('',(0.,0.,0.));
#519=CARTESIAN_POINT('Origin',(0.,124.5,0.));
#520=CARTESIAN_POINT('',(-2.2655965784226E-15,127.,-18.5));
#521=CARTESIAN_POINT('Origin',(0.,127.,0.));
#522=CARTESIAN_POINT('',(-2.57175827820944E-15,124.5,-21.));
#523=CARTESIAN_POINT('Origin',(-2.2655965784226E-15,124.5,-18.5));
#524=CARTESIAN_POINT('',(-21.,124.5,2.57175827820944E-15));
#525=CARTESIAN_POINT('Origin',(0.,124.5,0.));
#526=CARTESIAN_POINT('Origin',(0.,124.5,0.));
#527=CARTESIAN_POINT('Origin',(0.,0.,0.));
#528=CARTESIAN_POINT('',(-21.,-51.4818753450767,-2.57175827820944E-15));
#529=CARTESIAN_POINT('',(-21.,0.,2.57175827820944E-15));
#530=CARTESIAN_POINT('Origin',(0.,-51.4818753450767,0.));
#531=CARTESIAN_POINT('Origin',(0.,127.,0.));
#532=CARTESIAN_POINT('Origin',(25.6528169727249,-70.,0.0090618458815456));
#533=CARTESIAN_POINT('',(24.6528169727249,-70.,0.00906184588154547));
#534=CARTESIAN_POINT('Origin',(25.6528169727249,-70.,0.0090618458815456));
#535=CARTESIAN_POINT('',(24.6528169727249,-60.,0.00906184588154547));
#536=CARTESIAN_POINT('',(24.6528169727249,-70.,0.00906184588154572));
#537=CARTESIAN_POINT('Origin',(25.6528169727249,-60.,0.0090618458815456));
#538=CARTESIAN_POINT('Origin',(25.6528169727249,-60.,0.00906184588154557));
#539=CARTESIAN_POINT('Origin',(0.,-69.9536586579687,0.));
#540=CARTESIAN_POINT('',(-23.25,-69.5536586579687,-2.8473038080176E-15));
#541=CARTESIAN_POINT('Origin',(0.,-69.5536586579687,0.));
#542=CARTESIAN_POINT('',(-23.25,-70.,2.8473038080176E-15));
#543=CARTESIAN_POINT('',(-23.25,-69.9536586579687,-2.8473038080176E-15));
#544=CARTESIAN_POINT('Origin',(0.,-70.,0.));
#545=CARTESIAN_POINT('Origin',(0.,-69.9536586579687,0.));
#546=CARTESIAN_POINT('',(-22.,-69.5536586579687,-2.69422295812418E-15));
#547=CARTESIAN_POINT('Origin',(0.,-69.5536586579687,0.));
#548=CARTESIAN_POINT('',(-22.,-70.,-2.69422295812418E-15));
#549=CARTESIAN_POINT('',(-22.,-69.9536586579687,-2.69422295812418E-15));
#550=CARTESIAN_POINT('Origin',(0.,-70.,0.));
#551=CARTESIAN_POINT('Origin',(23.25,-69.5536586579687,0.));
#552=CARTESIAN_POINT('Origin',(0.,-70.,0.));
#553=CARTESIAN_POINT('',(-19.5,-70.,2.38806125833734E-15));
#554=CARTESIAN_POINT('Origin',(0.,-70.,0.));
#555=CARTESIAN_POINT('Origin',(0.,-53.3017692373797,0.));
#556=CARTESIAN_POINT('',(-29.,-59.8013902813187,-3.55147571752732E-15));
#557=CARTESIAN_POINT('Origin',(0.,-59.8013902813187,0.));
#558=CARTESIAN_POINT('',(-22.75,-53.3017692373797,-2.78607146806023E-15));
#559=CARTESIAN_POINT('Origin',(0.,-62.8208164065989,0.));
#560=CARTESIAN_POINT('',(-29.,-70.,-3.55147571752732E-15));
#561=CARTESIAN_POINT('Origin',(0.,-70.,0.));
#562=CARTESIAN_POINT('',(-29.,-62.8208164065989,-3.55147571752732E-15));
#563=CARTESIAN_POINT('Origin',(0.,123.,0.));
#564=CARTESIAN_POINT('',(-2.0818995585505E-15,125.5,-17.));
#565=CARTESIAN_POINT('Origin',(0.,125.5,0.));
#566=CARTESIAN_POINT('',(-2.38806125833734E-15,123.,-19.5));
#567=CARTESIAN_POINT('Origin',(-2.0818995585505E-15,123.,-17.));
#568=CARTESIAN_POINT('',(-19.5,123.,-2.38806125833734E-15));
#569=CARTESIAN_POINT('Origin',(0.,123.,0.));
#570=CARTESIAN_POINT('Origin',(0.,123.,0.));
#571=CARTESIAN_POINT('Origin',(0.,125.5,0.));
#572=CARTESIAN_POINT('Origin',(0.,0.,0.));
#573=CARTESIAN_POINT('',(-19.5,0.,2.38806125833734E-15));
#574=CARTESIAN_POINT('Origin',(0.,-70.,0.));
#575=CARTESIAN_POINT('',(12.3185606976238,-70.,21.3544966961687));
#576=CARTESIAN_POINT('Origin',(12.8185606976238,-70.,22.2205220999532));
#577=CARTESIAN_POINT('',(-12.3342562751011,-70.,21.3454348502872));
#578=CARTESIAN_POINT('Origin',(-12.8342562751011,-70.,22.2114602540716));
#579=CARTESIAN_POINT('',(-24.6528169727249,-70.,-0.00906184588154849));
#580=CARTESIAN_POINT('Origin',(-25.6528169727249,-70.,-0.00906184588154874));
#581=CARTESIAN_POINT('',(-12.3185606976239,-70.,-21.3544966961687));
#582=CARTESIAN_POINT('Origin',(-12.8185606976239,-70.,-22.2205220999532));
#583=CARTESIAN_POINT('',(12.3342562751011,-70.,-21.3454348502872));
#584=CARTESIAN_POINT('Origin',(12.8342562751011,-70.,-22.2114602540716));
#585=CARTESIAN_POINT('Origin',(12.8342562751011,-70.,-22.2114602540716));
#586=CARTESIAN_POINT('',(12.3342562751011,-60.,-21.3454348502872));
#587=CARTESIAN_POINT('',(12.3342562751011,-70.,-21.3454348502872));
#588=CARTESIAN_POINT('Origin',(12.8342562751011,-60.,-22.2114602540716));
#589=CARTESIAN_POINT('Origin',(12.8342562751011,-60.,-22.2114602540716));
#590=CARTESIAN_POINT('Origin',(-12.8185606976239,-70.,-22.2205220999532));
#591=CARTESIAN_POINT('',(-12.3185606976239,-60.,-21.3544966961687));
#592=CARTESIAN_POINT('',(-12.3185606976239,-70.,-21.3544966961687));
#593=CARTESIAN_POINT('Origin',(-12.8185606976239,-60.,-22.2205220999532));
#594=CARTESIAN_POINT('Origin',(-12.8185606976239,-60.,-22.2205220999532));
#595=CARTESIAN_POINT('Origin',(-25.6528169727249,-70.,-0.00906184588154874));
#596=CARTESIAN_POINT('',(-24.6528169727249,-60.,-0.00906184588154849));
#597=CARTESIAN_POINT('',(-24.6528169727249,-70.,-0.00906184588154874));
#598=CARTESIAN_POINT('Origin',(-25.6528169727249,-60.,-0.00906184588154874));
#599=CARTESIAN_POINT('Origin',(-25.6528169727249,-60.,-0.00906184588154871));
#600=CARTESIAN_POINT('Origin',(-12.8342562751011,-70.,22.2114602540716));
#601=CARTESIAN_POINT('',(-12.3342562751011,-60.,21.3454348502872));
#602=CARTESIAN_POINT('',(-12.3342562751011,-70.,21.3454348502872));
#603=CARTESIAN_POINT('Origin',(-12.8342562751011,-60.,22.2114602540716));
#604=CARTESIAN_POINT('Origin',(-12.8342562751011,-60.,22.2114602540716));
#605=CARTESIAN_POINT('Origin',(12.8185606976238,-70.,22.2205220999532));
#606=CARTESIAN_POINT('',(12.3185606976238,-60.,21.3544966961687));
#607=CARTESIAN_POINT('',(12.3185606976238,-70.,21.3544966961687));
#608=CARTESIAN_POINT('Origin',(12.8185606976238,-60.,22.2205220999532));
#609=CARTESIAN_POINT('Origin',(12.8185606976238,-60.,22.2205220999532));
#610=UNCERTAINTY_MEASURE_WITH_UNIT(LENGTH_MEASURE(0.01),#614,
'DISTANCE_ACCURACY_VALUE',
'Maximum model space distance between geometric entities at asserted c
onnectivities');
#611=UNCERTAINTY_MEASURE_WITH_UNIT(LENGTH_MEASURE(0.01),#614,
'DISTANCE_ACCURACY_VALUE',
'Maximum model space distance between geometric entities at asserted c
onnectivities');
#612=(
GEOMETRIC_REPRESENTATION_CONTEXT(3)
GLOBAL_UNCERTAINTY_ASSIGNED_CONTEXT((#610))
GLOBAL_UNIT_ASSIGNED_CONTEXT((#614,#616,#617))
REPRESENTATION_CONTEXT('','3D')
);
#613=(
GEOMETRIC_REPRESENTATION_CONTEXT(3)
GLOBAL_UNCERTAINTY_ASSIGNED_CONTEXT((#611))
GLOBAL_UNIT_ASSIGNED_CONTEXT((#614,#616,#617))
REPRESENTATION_CONTEXT('','3D')
);
#614=(
LENGTH_UNIT()
NAMED_UNIT(*)
SI_UNIT(.MILLI.,.METRE.)
);
#615=(
LENGTH_UNIT()
NAMED_UNIT(*)
SI_UNIT($,.METRE.)
);
#616=(
NAMED_UNIT(*)
PLANE_ANGLE_UNIT()
SI_UNIT($,.RADIAN.)
);
#617=(
NAMED_UNIT(*)
SI_UNIT($,.STERADIAN.)
SOLID_ANGLE_UNIT()
);
#618=SHAPE_DEFINITION_REPRESENTATION(#619,#620);
#619=PRODUCT_DEFINITION_SHAPE('',$,#622);
#620=SHAPE_REPRESENTATION('',(#344),#612);
#621=PRODUCT_DEFINITION_CONTEXT('part definition',#626,'design');
#622=PRODUCT_DEFINITION('obudowa_anteny','obudowa_anteny v12',#623,#621);
#623=PRODUCT_DEFINITION_FORMATION('',$,#628);
#624=PRODUCT_RELATED_PRODUCT_CATEGORY('obudowa_anteny v12',
'obudowa_anteny v12',(#628));
#625=APPLICATION_PROTOCOL_DEFINITION('international standard',
'automotive_design',2009,#626);
#626=APPLICATION_CONTEXT(
'Core Data for Automotive Mechanical Design Process');
#627=PRODUCT_CONTEXT('part definition',#626,'mechanical');
#628=PRODUCT('obudowa_anteny','obudowa_anteny v12',$,(#627));
#629=PRESENTATION_STYLE_ASSIGNMENT((#631));
#630=PRESENTATION_STYLE_ASSIGNMENT((#632));
#631=SURFACE_STYLE_USAGE(.BOTH.,#633);
#632=SURFACE_STYLE_USAGE(.BOTH.,#634);
#633=SURFACE_SIDE_STYLE('',(#635));
#634=SURFACE_SIDE_STYLE('',(#636));
#635=SURFACE_STYLE_FILL_AREA(#637);
#636=SURFACE_STYLE_FILL_AREA(#638);
#637=FILL_AREA_STYLE('Stal \X2\2014\X0\ satynowa',(#639));
#638=FILL_AREA_STYLE('FR4',(#640));
#639=FILL_AREA_STYLE_COLOUR('Stal \X2\2014\X0\ satynowa',#641);
#640=FILL_AREA_STYLE_COLOUR('FR4',#642);
#641=COLOUR_RGB('Stal \X2\2014\X0\ satynowa',0.627450980392157,0.627450980392157,
0.627450980392157);
#642=COLOUR_RGB('FR4',0.266666666666667,0.466666666666667,0.4);
ENDSEC;
END-ISO-10303-21;
