ISO-10303-21;
HEADER;
/* Generated by software containing ST-Developer
 * from STEP Tools, Inc. (www.steptools.com) 
 */

FILE_DESCRIPTION(
/* description */ (''),
/* implementation_level */ '2;1');

FILE_NAME(
/* name */ 'Antena_bracket.step',
/* time_stamp */ '2026-04-28T21:21:27+02:00',
/* author */ (''),
/* organization */ (''),
/* preprocessor_version */ 'ST-DEVELOPER v20.1',
/* originating_system */ 'Autodesk Translation Framework v15.8.0.0',
/* authorisation */ '');

FILE_SCHEMA (('AUTOMOTIVE_DESIGN { 1 0 10303 214 3 1 1 }'));
ENDSEC;

DATA;
#10=MECHANICAL_DESIGN_GEOMETRIC_PRESENTATION_REPRESENTATION('',(#13),#537);
#11=SHAPE_REPRESENTATION_RELATIONSHIP('SRR','None',#544,#12);
#12=ADVANCED_BREP_SHAPE_REPRESENTATION('',(#14),#536);
#13=STYLED_ITEM('',(#553),#14);
#14=MANIFOLD_SOLID_BREP('Antena_bracket',#309);
#15=FACE_BOUND('',#50,.T.);
#16=FACE_BOUND('',#52,.T.);
#17=FACE_BOUND('',#55,.T.);
#18=FACE_BOUND('',#60,.T.);
#19=PLANE('',#335);
#20=PLANE('',#342);
#21=PLANE('',#343);
#22=PLANE('',#346);
#23=PLANE('',#351);
#24=PLANE('',#352);
#25=PLANE('',#353);
#26=PLANE('',#354);
#27=FACE_OUTER_BOUND('',#43,.T.);
#28=FACE_OUTER_BOUND('',#44,.T.);
#29=FACE_OUTER_BOUND('',#45,.T.);
#30=FACE_OUTER_BOUND('',#46,.T.);
#31=FACE_OUTER_BOUND('',#47,.T.);
#32=FACE_OUTER_BOUND('',#48,.T.);
#33=FACE_OUTER_BOUND('',#49,.T.);
#34=FACE_OUTER_BOUND('',#51,.T.);
#35=FACE_OUTER_BOUND('',#53,.T.);
#36=FACE_OUTER_BOUND('',#54,.T.);
#37=FACE_OUTER_BOUND('',#56,.T.);
#38=FACE_OUTER_BOUND('',#57,.T.);
#39=FACE_OUTER_BOUND('',#58,.T.);
#40=FACE_OUTER_BOUND('',#59,.T.);
#41=FACE_OUTER_BOUND('',#61,.T.);
#42=FACE_OUTER_BOUND('',#62,.T.);
#43=EDGE_LOOP('',(#201,#202,#203,#204));
#44=EDGE_LOOP('',(#205,#206,#207,#208));
#45=EDGE_LOOP('',(#209,#210,#211,#212));
#46=EDGE_LOOP('',(#213,#214,#215,#216));
#47=EDGE_LOOP('',(#217,#218,#219,#220,#221,#222,#223,#224,#225,#226,#227,
#228));
#48=EDGE_LOOP('',(#229,#230,#231,#232));
#49=EDGE_LOOP('',(#233,#234,#235,#236));
#50=EDGE_LOOP('',(#237));
#51=EDGE_LOOP('',(#238,#239,#240,#241));
#52=EDGE_LOOP('',(#242));
#53=EDGE_LOOP('',(#243,#244,#245,#246));
#54=EDGE_LOOP('',(#247,#248,#249,#250));
#55=EDGE_LOOP('',(#251));
#56=EDGE_LOOP('',(#252,#253,#254,#255));
#57=EDGE_LOOP('',(#256,#257,#258,#259));
#58=EDGE_LOOP('',(#260,#261,#262,#263));
#59=EDGE_LOOP('',(#264,#265,#266,#267));
#60=EDGE_LOOP('',(#268));
#61=EDGE_LOOP('',(#269,#270,#271,#272));
#62=EDGE_LOOP('',(#273,#274,#275,#276,#277,#278,#279,#280,#281,#282,#283,
#284));
#63=LINE('',#452,#89);
#64=LINE('',#458,#90);
#65=LINE('',#465,#91);
#66=LINE('',#468,#92);
#67=LINE('',#473,#93);
#68=LINE('',#477,#94);
#69=LINE('',#479,#95);
#70=LINE('',#481,#96);
#71=LINE('',#489,#97);
#72=LINE('',#491,#98);
#73=LINE('',#493,#99);
#74=LINE('',#498,#100);
#75=LINE('',#501,#101);
#76=LINE('',#502,#102);
#77=LINE('',#505,#103);
#78=LINE('',#506,#104);
#79=LINE('',#509,#105);
#80=LINE('',#512,#106);
#81=LINE('',#515,#107);
#82=LINE('',#516,#108);
#83=LINE('',#519,#109);
#84=LINE('',#522,#110);
#85=LINE('',#526,#111);
#86=LINE('',#529,#112);
#87=LINE('',#530,#113);
#88=LINE('',#532,#114);
#89=VECTOR('',#361,2.5);
#90=VECTOR('',#368,2.5);
#91=VECTOR('',#375,10.);
#92=VECTOR('',#378,10.);
#93=VECTOR('',#383,10.);
#94=VECTOR('',#388,10.);
#95=VECTOR('',#389,10.);
#96=VECTOR('',#390,10.);
#97=VECTOR('',#397,10.);
#98=VECTOR('',#398,10.);
#99=VECTOR('',#399,10.);
#100=VECTOR('',#406,10.);
#101=VECTOR('',#409,10.);
#102=VECTOR('',#410,10.);
#103=VECTOR('',#413,10.);
#104=VECTOR('',#414,10.);
#105=VECTOR('',#417,10.);
#106=VECTOR('',#420,10.);
#107=VECTOR('',#423,10.);
#108=VECTOR('',#424,10.);
#109=VECTOR('',#427,10.);
#110=VECTOR('',#430,10.);
#111=VECTOR('',#437,10.);
#112=VECTOR('',#440,10.);
#113=VECTOR('',#441,10.);
#114=VECTOR('',#444,10.);
#115=CIRCLE('',#324,2.5);
#116=CIRCLE('',#325,2.5);
#117=CIRCLE('',#327,2.5);
#118=CIRCLE('',#328,2.5);
#119=CIRCLE('',#330,5.);
#120=CIRCLE('',#331,5.);
#121=CIRCLE('',#333,21.);
#122=CIRCLE('',#334,21.);
#123=CIRCLE('',#336,2.5);
#124=CIRCLE('',#337,25.5);
#125=CIRCLE('',#338,2.5);
#126=CIRCLE('',#339,5.);
#127=CIRCLE('',#341,5.);
#128=CIRCLE('',#345,2.5);
#129=CIRCLE('',#348,2.5);
#130=CIRCLE('',#350,25.5);
#131=VERTEX_POINT('',#449);
#132=VERTEX_POINT('',#451);
#133=VERTEX_POINT('',#455);
#134=VERTEX_POINT('',#457);
#135=VERTEX_POINT('',#461);
#136=VERTEX_POINT('',#462);
#137=VERTEX_POINT('',#464);
#138=VERTEX_POINT('',#466);
#139=VERTEX_POINT('',#470);
#140=VERTEX_POINT('',#472);
#141=VERTEX_POINT('',#476);
#142=VERTEX_POINT('',#478);
#143=VERTEX_POINT('',#480);
#144=VERTEX_POINT('',#482);
#145=VERTEX_POINT('',#484);
#146=VERTEX_POINT('',#486);
#147=VERTEX_POINT('',#488);
#148=VERTEX_POINT('',#490);
#149=VERTEX_POINT('',#492);
#150=VERTEX_POINT('',#496);
#151=VERTEX_POINT('',#500);
#152=VERTEX_POINT('',#504);
#153=VERTEX_POINT('',#508);
#154=VERTEX_POINT('',#510);
#155=VERTEX_POINT('',#514);
#156=VERTEX_POINT('',#518);
#157=VERTEX_POINT('',#520);
#158=VERTEX_POINT('',#528);
#159=EDGE_CURVE('',#131,#131,#115,.T.);
#160=EDGE_CURVE('',#131,#132,#63,.T.);
#161=EDGE_CURVE('',#132,#132,#116,.T.);
#162=EDGE_CURVE('',#133,#133,#117,.T.);
#163=EDGE_CURVE('',#133,#134,#64,.T.);
#164=EDGE_CURVE('',#134,#134,#118,.T.);
#165=EDGE_CURVE('',#135,#136,#119,.T.);
#166=EDGE_CURVE('',#136,#137,#65,.T.);
#167=EDGE_CURVE('',#137,#138,#120,.T.);
#168=EDGE_CURVE('',#138,#135,#66,.T.);
#169=EDGE_CURVE('',#136,#139,#121,.T.);
#170=EDGE_CURVE('',#140,#139,#67,.T.);
#171=EDGE_CURVE('',#137,#140,#122,.T.);
#172=EDGE_CURVE('',#135,#141,#68,.T.);
#173=EDGE_CURVE('',#141,#142,#69,.T.);
#174=EDGE_CURVE('',#142,#143,#70,.T.);
#175=EDGE_CURVE('',#144,#143,#123,.T.);
#176=EDGE_CURVE('',#144,#145,#124,.T.);
#177=EDGE_CURVE('',#146,#145,#125,.T.);
#178=EDGE_CURVE('',#146,#147,#71,.T.);
#179=EDGE_CURVE('',#147,#148,#72,.T.);
#180=EDGE_CURVE('',#148,#149,#73,.T.);
#181=EDGE_CURVE('',#139,#149,#126,.T.);
#182=EDGE_CURVE('',#150,#140,#127,.T.);
#183=EDGE_CURVE('',#149,#150,#74,.T.);
#184=EDGE_CURVE('',#148,#151,#75,.T.);
#185=EDGE_CURVE('',#150,#151,#76,.T.);
#186=EDGE_CURVE('',#152,#138,#77,.T.);
#187=EDGE_CURVE('',#141,#152,#78,.T.);
#188=EDGE_CURVE('',#143,#153,#79,.T.);
#189=EDGE_CURVE('',#153,#154,#128,.T.);
#190=EDGE_CURVE('',#154,#144,#80,.T.);
#191=EDGE_CURVE('',#142,#155,#81,.T.);
#192=EDGE_CURVE('',#153,#155,#82,.T.);
#193=EDGE_CURVE('',#145,#156,#83,.T.);
#194=EDGE_CURVE('',#156,#157,#129,.T.);
#195=EDGE_CURVE('',#157,#146,#84,.T.);
#196=EDGE_CURVE('',#156,#154,#130,.T.);
#197=EDGE_CURVE('',#155,#152,#85,.T.);
#198=EDGE_CURVE('',#158,#157,#86,.T.);
#199=EDGE_CURVE('',#147,#158,#87,.T.);
#200=EDGE_CURVE('',#151,#158,#88,.T.);
#201=ORIENTED_EDGE('',*,*,#159,.F.);
#202=ORIENTED_EDGE('',*,*,#160,.T.);
#203=ORIENTED_EDGE('',*,*,#161,.F.);
#204=ORIENTED_EDGE('',*,*,#160,.F.);
#205=ORIENTED_EDGE('',*,*,#162,.F.);
#206=ORIENTED_EDGE('',*,*,#163,.T.);
#207=ORIENTED_EDGE('',*,*,#164,.F.);
#208=ORIENTED_EDGE('',*,*,#163,.F.);
#209=ORIENTED_EDGE('',*,*,#165,.T.);
#210=ORIENTED_EDGE('',*,*,#166,.T.);
#211=ORIENTED_EDGE('',*,*,#167,.T.);
#212=ORIENTED_EDGE('',*,*,#168,.T.);
#213=ORIENTED_EDGE('',*,*,#166,.F.);
#214=ORIENTED_EDGE('',*,*,#169,.T.);
#215=ORIENTED_EDGE('',*,*,#170,.F.);
#216=ORIENTED_EDGE('',*,*,#171,.F.);
#217=ORIENTED_EDGE('',*,*,#165,.F.);
#218=ORIENTED_EDGE('',*,*,#172,.T.);
#219=ORIENTED_EDGE('',*,*,#173,.T.);
#220=ORIENTED_EDGE('',*,*,#174,.T.);
#221=ORIENTED_EDGE('',*,*,#175,.F.);
#222=ORIENTED_EDGE('',*,*,#176,.T.);
#223=ORIENTED_EDGE('',*,*,#177,.F.);
#224=ORIENTED_EDGE('',*,*,#178,.T.);
#225=ORIENTED_EDGE('',*,*,#179,.T.);
#226=ORIENTED_EDGE('',*,*,#180,.T.);
#227=ORIENTED_EDGE('',*,*,#181,.F.);
#228=ORIENTED_EDGE('',*,*,#169,.F.);
#229=ORIENTED_EDGE('',*,*,#182,.T.);
#230=ORIENTED_EDGE('',*,*,#170,.T.);
#231=ORIENTED_EDGE('',*,*,#181,.T.);
#232=ORIENTED_EDGE('',*,*,#183,.T.);
#233=ORIENTED_EDGE('',*,*,#183,.F.);
#234=ORIENTED_EDGE('',*,*,#180,.F.);
#235=ORIENTED_EDGE('',*,*,#184,.T.);
#236=ORIENTED_EDGE('',*,*,#185,.F.);
#237=ORIENTED_EDGE('',*,*,#164,.T.);
#238=ORIENTED_EDGE('',*,*,#168,.F.);
#239=ORIENTED_EDGE('',*,*,#186,.F.);
#240=ORIENTED_EDGE('',*,*,#187,.F.);
#241=ORIENTED_EDGE('',*,*,#172,.F.);
#242=ORIENTED_EDGE('',*,*,#159,.T.);
#243=ORIENTED_EDGE('',*,*,#175,.T.);
#244=ORIENTED_EDGE('',*,*,#188,.T.);
#245=ORIENTED_EDGE('',*,*,#189,.T.);
#246=ORIENTED_EDGE('',*,*,#190,.T.);
#247=ORIENTED_EDGE('',*,*,#188,.F.);
#248=ORIENTED_EDGE('',*,*,#174,.F.);
#249=ORIENTED_EDGE('',*,*,#191,.T.);
#250=ORIENTED_EDGE('',*,*,#192,.F.);
#251=ORIENTED_EDGE('',*,*,#161,.T.);
#252=ORIENTED_EDGE('',*,*,#177,.T.);
#253=ORIENTED_EDGE('',*,*,#193,.T.);
#254=ORIENTED_EDGE('',*,*,#194,.T.);
#255=ORIENTED_EDGE('',*,*,#195,.T.);
#256=ORIENTED_EDGE('',*,*,#190,.F.);
#257=ORIENTED_EDGE('',*,*,#196,.F.);
#258=ORIENTED_EDGE('',*,*,#193,.F.);
#259=ORIENTED_EDGE('',*,*,#176,.F.);
#260=ORIENTED_EDGE('',*,*,#173,.F.);
#261=ORIENTED_EDGE('',*,*,#187,.T.);
#262=ORIENTED_EDGE('',*,*,#197,.F.);
#263=ORIENTED_EDGE('',*,*,#191,.F.);
#264=ORIENTED_EDGE('',*,*,#195,.F.);
#265=ORIENTED_EDGE('',*,*,#198,.F.);
#266=ORIENTED_EDGE('',*,*,#199,.F.);
#267=ORIENTED_EDGE('',*,*,#178,.F.);
#268=ORIENTED_EDGE('',*,*,#162,.T.);
#269=ORIENTED_EDGE('',*,*,#179,.F.);
#270=ORIENTED_EDGE('',*,*,#199,.T.);
#271=ORIENTED_EDGE('',*,*,#200,.F.);
#272=ORIENTED_EDGE('',*,*,#184,.F.);
#273=ORIENTED_EDGE('',*,*,#167,.F.);
#274=ORIENTED_EDGE('',*,*,#171,.T.);
#275=ORIENTED_EDGE('',*,*,#182,.F.);
#276=ORIENTED_EDGE('',*,*,#185,.T.);
#277=ORIENTED_EDGE('',*,*,#200,.T.);
#278=ORIENTED_EDGE('',*,*,#198,.T.);
#279=ORIENTED_EDGE('',*,*,#194,.F.);
#280=ORIENTED_EDGE('',*,*,#196,.T.);
#281=ORIENTED_EDGE('',*,*,#189,.F.);
#282=ORIENTED_EDGE('',*,*,#192,.T.);
#283=ORIENTED_EDGE('',*,*,#197,.T.);
#284=ORIENTED_EDGE('',*,*,#186,.T.);
#285=CYLINDRICAL_SURFACE('',#323,2.5);
#286=CYLINDRICAL_SURFACE('',#326,2.5);
#287=CYLINDRICAL_SURFACE('',#329,5.);
#288=CYLINDRICAL_SURFACE('',#332,21.);
#289=CYLINDRICAL_SURFACE('',#340,5.);
#290=CYLINDRICAL_SURFACE('',#344,2.5);
#291=CYLINDRICAL_SURFACE('',#347,2.5);
#292=CYLINDRICAL_SURFACE('',#349,25.5);
#293=ADVANCED_FACE('',(#27),#285,.F.);
#294=ADVANCED_FACE('',(#28),#286,.F.);
#295=ADVANCED_FACE('',(#29),#287,.T.);
#296=ADVANCED_FACE('',(#30),#288,.F.);
#297=ADVANCED_FACE('',(#31),#19,.T.);
#298=ADVANCED_FACE('',(#32),#289,.T.);
#299=ADVANCED_FACE('',(#33,#15),#20,.T.);
#300=ADVANCED_FACE('',(#34,#16),#21,.T.);
#301=ADVANCED_FACE('',(#35),#290,.F.);
#302=ADVANCED_FACE('',(#36,#17),#22,.T.);
#303=ADVANCED_FACE('',(#37),#291,.F.);
#304=ADVANCED_FACE('',(#38),#292,.T.);
#305=ADVANCED_FACE('',(#39),#23,.T.);
#306=ADVANCED_FACE('',(#40,#18),#24,.T.);
#307=ADVANCED_FACE('',(#41),#25,.T.);
#308=ADVANCED_FACE('',(#42),#26,.F.);
#309=CLOSED_SHELL('',(#293,#294,#295,#296,#297,#298,#299,#300,#301,#302,
#303,#304,#305,#306,#307,#308));
#310=DERIVED_UNIT_ELEMENT(#312,1.);
#311=DERIVED_UNIT_ELEMENT(#539,-3.);
#312=(
MASS_UNIT()
NAMED_UNIT(*)
SI_UNIT(.KILO.,.GRAM.)
);
#313=DERIVED_UNIT((#310,#311));
#314=MEASURE_REPRESENTATION_ITEM('density measure',
POSITIVE_RATIO_MEASURE(7850.),#313);
#315=PROPERTY_DEFINITION_REPRESENTATION(#320,#317);
#316=PROPERTY_DEFINITION_REPRESENTATION(#321,#318);
#317=REPRESENTATION('material name',(#319),#536);
#318=REPRESENTATION('density',(#314),#536);
#319=DESCRIPTIVE_REPRESENTATION_ITEM('Stal','Stal');
#320=PROPERTY_DEFINITION('material property','material name',#546);
#321=PROPERTY_DEFINITION('material property','density of part',#546);
#322=AXIS2_PLACEMENT_3D('',#447,#355,#356);
#323=AXIS2_PLACEMENT_3D('',#448,#357,#358);
#324=AXIS2_PLACEMENT_3D('',#450,#359,#360);
#325=AXIS2_PLACEMENT_3D('',#453,#362,#363);
#326=AXIS2_PLACEMENT_3D('',#454,#364,#365);
#327=AXIS2_PLACEMENT_3D('',#456,#366,#367);
#328=AXIS2_PLACEMENT_3D('',#459,#369,#370);
#329=AXIS2_PLACEMENT_3D('',#460,#371,#372);
#330=AXIS2_PLACEMENT_3D('',#463,#373,#374);
#331=AXIS2_PLACEMENT_3D('',#467,#376,#377);
#332=AXIS2_PLACEMENT_3D('',#469,#379,#380);
#333=AXIS2_PLACEMENT_3D('',#471,#381,#382);
#334=AXIS2_PLACEMENT_3D('',#474,#384,#385);
#335=AXIS2_PLACEMENT_3D('',#475,#386,#387);
#336=AXIS2_PLACEMENT_3D('',#483,#391,#392);
#337=AXIS2_PLACEMENT_3D('',#485,#393,#394);
#338=AXIS2_PLACEMENT_3D('',#487,#395,#396);
#339=AXIS2_PLACEMENT_3D('',#494,#400,#401);
#340=AXIS2_PLACEMENT_3D('',#495,#402,#403);
#341=AXIS2_PLACEMENT_3D('',#497,#404,#405);
#342=AXIS2_PLACEMENT_3D('',#499,#407,#408);
#343=AXIS2_PLACEMENT_3D('',#503,#411,#412);
#344=AXIS2_PLACEMENT_3D('',#507,#415,#416);
#345=AXIS2_PLACEMENT_3D('',#511,#418,#419);
#346=AXIS2_PLACEMENT_3D('',#513,#421,#422);
#347=AXIS2_PLACEMENT_3D('',#517,#425,#426);
#348=AXIS2_PLACEMENT_3D('',#521,#428,#429);
#349=AXIS2_PLACEMENT_3D('',#523,#431,#432);
#350=AXIS2_PLACEMENT_3D('',#524,#433,#434);
#351=AXIS2_PLACEMENT_3D('',#525,#435,#436);
#352=AXIS2_PLACEMENT_3D('',#527,#438,#439);
#353=AXIS2_PLACEMENT_3D('',#531,#442,#443);
#354=AXIS2_PLACEMENT_3D('',#533,#445,#446);
#355=DIRECTION('axis',(0.,0.,1.));
#356=DIRECTION('refdir',(1.,0.,0.));
#357=DIRECTION('center_axis',(1.,0.,0.));
#358=DIRECTION('ref_axis',(0.,0.,1.));
#359=DIRECTION('center_axis',(1.,0.,0.));
#360=DIRECTION('ref_axis',(0.,0.,1.));
#361=DIRECTION('',(1.,0.,0.));
#362=DIRECTION('center_axis',(-1.,0.,0.));
#363=DIRECTION('ref_axis',(0.,0.,1.));
#364=DIRECTION('center_axis',(1.,0.,0.));
#365=DIRECTION('ref_axis',(0.,0.,1.));
#366=DIRECTION('center_axis',(1.,0.,-2.04427919411223E-16));
#367=DIRECTION('ref_axis',(0.,0.,1.));
#368=DIRECTION('',(1.,0.,0.));
#369=DIRECTION('center_axis',(-1.,0.,0.));
#370=DIRECTION('ref_axis',(0.,0.,1.));
#371=DIRECTION('center_axis',(0.,-1.,0.));
#372=DIRECTION('ref_axis',(-0.796627506815691,0.,0.604470524826989));
#373=DIRECTION('center_axis',(0.,1.,0.));
#374=DIRECTION('ref_axis',(-0.796627506815691,0.,0.604470524826989));
#375=DIRECTION('',(0.,1.,0.));
#376=DIRECTION('center_axis',(0.,-1.,0.));
#377=DIRECTION('ref_axis',(-0.796627506815691,0.,0.604470524826989));
#378=DIRECTION('',(0.,-1.,0.));
#379=DIRECTION('center_axis',(0.,1.,0.));
#380=DIRECTION('ref_axis',(5.9476233462062E-16,0.,1.));
#381=DIRECTION('center_axis',(0.,-1.,0.));
#382=DIRECTION('ref_axis',(0.0930232558139535,0.,-0.995663936214309));
#383=DIRECTION('',(0.,-1.,0.));
#384=DIRECTION('center_axis',(0.,-1.,0.));
#385=DIRECTION('ref_axis',(0.0930232558139535,0.,-0.995663936214309));
#386=DIRECTION('center_axis',(0.,-1.,0.));
#387=DIRECTION('ref_axis',(-1.,0.,0.));
#388=DIRECTION('',(0.,1.06483568225617E-15,-1.));
#389=DIRECTION('',(1.,0.,0.));
#390=DIRECTION('',(0.,-1.3959296721601E-15,1.));
#391=DIRECTION('center_axis',(0.,-1.,0.));
#392=DIRECTION('ref_axis',(-0.807332468246951,0.,0.590096844352083));
#393=DIRECTION('center_axis',(0.,-1.,0.));
#394=DIRECTION('ref_axis',(0.235294117647059,0.,-0.971924214226959));
#395=DIRECTION('center_axis',(0.,-1.,0.));
#396=DIRECTION('ref_axis',(0.807332468246952,0.,0.590096844352082));
#397=DIRECTION('',(-2.04427919411223E-16,1.3959296721601E-15,-1.));
#398=DIRECTION('',(1.,-1.89528082471951E-15,0.));
#399=DIRECTION('',(0.,-5.32417841128085E-16,1.));
#400=DIRECTION('center_axis',(0.,1.,0.));
#401=DIRECTION('ref_axis',(0.796627506815691,0.,0.604470524826989));
#402=DIRECTION('center_axis',(0.,1.,0.));
#403=DIRECTION('ref_axis',(0.796627506815691,0.,0.604470524826989));
#404=DIRECTION('center_axis',(0.,-1.,0.));
#405=DIRECTION('ref_axis',(0.796627506815691,0.,0.604470524826989));
#406=DIRECTION('',(0.,1.,0.));
#407=DIRECTION('center_axis',(1.,0.,0.));
#408=DIRECTION('ref_axis',(0.,5.32417841128085E-16,-1.));
#409=DIRECTION('',(0.,1.,0.));
#410=DIRECTION('',(0.,5.32417841128085E-16,-1.));
#411=DIRECTION('center_axis',(-1.,0.,0.));
#412=DIRECTION('ref_axis',(0.,-1.06483568225617E-15,1.));
#413=DIRECTION('',(0.,-1.06483568225617E-15,1.));
#414=DIRECTION('',(0.,1.,0.));
#415=DIRECTION('center_axis',(0.,1.,0.));
#416=DIRECTION('ref_axis',(-0.807332468246951,0.,0.590096844352083));
#417=DIRECTION('',(0.,1.,0.));
#418=DIRECTION('center_axis',(0.,1.,0.));
#419=DIRECTION('ref_axis',(-0.807332468246951,0.,0.590096844352083));
#420=DIRECTION('',(0.,-1.,0.));
#421=DIRECTION('center_axis',(1.,0.,0.));
#422=DIRECTION('ref_axis',(0.,1.3959296721601E-15,-1.));
#423=DIRECTION('',(0.,1.,0.));
#424=DIRECTION('',(0.,1.3959296721601E-15,-1.));
#425=DIRECTION('center_axis',(0.,1.,0.));
#426=DIRECTION('ref_axis',(0.807332468246952,0.,0.590096844352082));
#427=DIRECTION('',(0.,1.,0.));
#428=DIRECTION('center_axis',(0.,1.,0.));
#429=DIRECTION('ref_axis',(0.807332468246952,0.,0.590096844352082));
#430=DIRECTION('',(0.,-1.,0.));
#431=DIRECTION('center_axis',(0.,1.,0.));
#432=DIRECTION('ref_axis',(6.53072367426563E-16,0.,1.));
#433=DIRECTION('center_axis',(0.,1.,0.));
#434=DIRECTION('ref_axis',(0.235294117647059,0.,-0.971924214226959));
#435=DIRECTION('center_axis',(0.,0.,-1.));
#436=DIRECTION('ref_axis',(-1.,0.,0.));
#437=DIRECTION('',(-1.,0.,0.));
#438=DIRECTION('center_axis',(-1.,0.,2.04427919411223E-16));
#439=DIRECTION('ref_axis',(2.04427919411223E-16,-1.3959296721601E-15,1.));
#440=DIRECTION('',(2.04427919411223E-16,-1.3959296721601E-15,1.));
#441=DIRECTION('',(0.,1.,0.));
#442=DIRECTION('center_axis',(0.,0.,-1.));
#443=DIRECTION('ref_axis',(-1.,1.89528082471951E-15,0.));
#444=DIRECTION('',(-1.,1.89528082471951E-15,0.));
#445=DIRECTION('center_axis',(0.,-1.,0.));
#446=DIRECTION('ref_axis',(-1.,0.,0.));
#447=CARTESIAN_POINT('',(0.,0.,0.));
#448=CARTESIAN_POINT('Origin',(-6.,-36.,-31.1622329829854));
#449=CARTESIAN_POINT('',(2.,-36.,-33.6622329829854));
#450=CARTESIAN_POINT('Origin',(2.,-36.,-31.1622329829854));
#451=CARTESIAN_POINT('',(6.,-36.,-33.6622329829854));
#452=CARTESIAN_POINT('',(-6.,-36.,-33.6622329829854));
#453=CARTESIAN_POINT('Origin',(6.,-36.,-31.1622329829854));
#454=CARTESIAN_POINT('Origin',(-6.,-36.,-31.1622329829854));
#455=CARTESIAN_POINT('',(-6.,-36.,-33.6622329829854));
#456=CARTESIAN_POINT('Origin',(-6.,-36.,-31.1622329829854));
#457=CARTESIAN_POINT('',(-2.,-36.,-33.6622329829854));
#458=CARTESIAN_POINT('',(-6.,-36.,-33.6622329829854));
#459=CARTESIAN_POINT('Origin',(-2.,-36.,-31.1622329829854));
#460=CARTESIAN_POINT('Origin',(7.,-43.5,-25.0399680510978));
#461=CARTESIAN_POINT('',(2.,-43.5,-25.0399680510978));
#462=CARTESIAN_POINT('',(5.65384615384615,-43.5,-20.2245895797329));
#463=CARTESIAN_POINT('Origin',(7.,-43.5,-25.0399680510978));
#464=CARTESIAN_POINT('',(5.65384615384615,-28.5,-20.2245895797329));
#465=CARTESIAN_POINT('',(5.65384615384615,-43.5,-20.2245895797329));
#466=CARTESIAN_POINT('',(2.,-28.5,-25.0399680510978));
#467=CARTESIAN_POINT('Origin',(7.,-28.5,-25.0399680510978));
#468=CARTESIAN_POINT('',(2.,-43.5,-25.0399680510978));
#469=CARTESIAN_POINT('Origin',(0.,-43.5,0.));
#470=CARTESIAN_POINT('',(-5.65384615384615,-43.5,-20.2245895797329));
#471=CARTESIAN_POINT('Origin',(0.,-43.5,0.));
#472=CARTESIAN_POINT('',(-5.65384615384615,-28.5,-20.2245895797329));
#473=CARTESIAN_POINT('',(-5.65384615384615,-43.5,-20.2245895797329));
#474=CARTESIAN_POINT('Origin',(0.,-28.5,0.));
#475=CARTESIAN_POINT('Origin',(0.,-43.5,-5.07291141103129));
#476=CARTESIAN_POINT('',(2.,-43.5,-35.6458228220626));
#477=CARTESIAN_POINT('',(2.,-43.5,-21.4067746286076));
#478=CARTESIAN_POINT('',(6.,-43.5,-35.6458228220626));
#479=CARTESIAN_POINT('',(2.,-43.5,-35.6458228220626));
#480=CARTESIAN_POINT('',(6.,-43.5,-26.6786431439082));
#481=CARTESIAN_POINT('',(6.,-43.5,-35.6458228220626));
#482=CARTESIAN_POINT('',(7.74107142857143,-43.5,-24.2966214346307));
#483=CARTESIAN_POINT('Origin',(8.5,-43.5,-26.6786431439082));
#484=CARTESIAN_POINT('',(-7.74107142857143,-43.5,-24.2966214346307));
#485=CARTESIAN_POINT('Origin',(0.,-43.5,0.));
#486=CARTESIAN_POINT('',(-6.,-43.5,-26.6786431439082));
#487=CARTESIAN_POINT('Origin',(-8.5,-43.5,-26.6786431439082));
#488=CARTESIAN_POINT('',(-6.,-43.5,-35.6458228220626));
#489=CARTESIAN_POINT('',(-6.,-43.5,-24.7840674627875));
#490=CARTESIAN_POINT('',(-2.,-43.5,-35.6458228220626));
#491=CARTESIAN_POINT('',(-6.,-43.5,-35.6458228220626));
#492=CARTESIAN_POINT('',(-2.,-43.5,-25.0399680510978));
#493=CARTESIAN_POINT('',(-2.,-43.5,-35.6458228220626));
#494=CARTESIAN_POINT('Origin',(-7.,-43.5,-25.0399680510978));
#495=CARTESIAN_POINT('Origin',(-7.,-43.5,-25.0399680510978));
#496=CARTESIAN_POINT('',(-2.,-28.5,-25.0399680510978));
#497=CARTESIAN_POINT('Origin',(-7.,-28.5,-25.0399680510978));
#498=CARTESIAN_POINT('',(-2.,-43.5,-25.0399680510978));
#499=CARTESIAN_POINT('Origin',(-2.,-43.5,-21.4067746286076));
#500=CARTESIAN_POINT('',(-2.,-28.5,-35.6458228220626));
#501=CARTESIAN_POINT('',(-2.,-43.5,-35.6458228220626));
#502=CARTESIAN_POINT('',(-2.,-28.5,-35.6458228220626));
#503=CARTESIAN_POINT('Origin',(2.,-43.5,-35.6458228220626));
#504=CARTESIAN_POINT('',(2.,-28.5,-35.6458228220626));
#505=CARTESIAN_POINT('',(2.,-28.5,-21.4067746286076));
#506=CARTESIAN_POINT('',(2.,-43.5,-35.6458228220626));
#507=CARTESIAN_POINT('Origin',(8.5,-43.5,-26.6786431439082));
#508=CARTESIAN_POINT('',(6.,-28.5,-26.6786431439082));
#509=CARTESIAN_POINT('',(6.,-43.5,-26.6786431439082));
#510=CARTESIAN_POINT('',(7.74107142857143,-28.5,-24.2966214346307));
#511=CARTESIAN_POINT('Origin',(8.5,-28.5,-26.6786431439082));
#512=CARTESIAN_POINT('',(7.74107142857143,-43.5,-24.2966214346307));
#513=CARTESIAN_POINT('Origin',(6.,-43.5,-24.7840674627875));
#514=CARTESIAN_POINT('',(6.,-28.5,-35.6458228220626));
#515=CARTESIAN_POINT('',(6.,-43.5,-35.6458228220626));
#516=CARTESIAN_POINT('',(6.,-28.5,-35.6458228220626));
#517=CARTESIAN_POINT('Origin',(-8.5,-43.5,-26.6786431439082));
#518=CARTESIAN_POINT('',(-7.74107142857143,-28.5,-24.2966214346307));
#519=CARTESIAN_POINT('',(-7.74107142857143,-43.5,-24.2966214346307));
#520=CARTESIAN_POINT('',(-6.,-28.5,-26.6786431439082));
#521=CARTESIAN_POINT('Origin',(-8.5,-28.5,-26.6786431439082));
#522=CARTESIAN_POINT('',(-6.,-43.5,-26.6786431439082));
#523=CARTESIAN_POINT('Origin',(0.,-43.5,0.));
#524=CARTESIAN_POINT('Origin',(0.,-28.5,0.));
#525=CARTESIAN_POINT('Origin',(6.,-43.5,-35.6458228220626));
#526=CARTESIAN_POINT('',(2.,-28.5,-35.6458228220626));
#527=CARTESIAN_POINT('Origin',(-6.,-43.5,-35.6458228220626));
#528=CARTESIAN_POINT('',(-6.,-28.5,-35.6458228220626));
#529=CARTESIAN_POINT('',(-6.,-28.5,-24.7840674627875));
#530=CARTESIAN_POINT('',(-6.,-43.5,-35.6458228220626));
#531=CARTESIAN_POINT('Origin',(-2.,-43.5,-35.6458228220626));
#532=CARTESIAN_POINT('',(-6.,-28.5,-35.6458228220626));
#533=CARTESIAN_POINT('Origin',(0.,-28.5,-5.07291141103129));
#534=UNCERTAINTY_MEASURE_WITH_UNIT(LENGTH_MEASURE(0.01),#538,
'DISTANCE_ACCURACY_VALUE',
'Maximum model space distance between geometric entities at asserted c
onnectivities');
#535=UNCERTAINTY_MEASURE_WITH_UNIT(LENGTH_MEASURE(0.01),#538,
'DISTANCE_ACCURACY_VALUE',
'Maximum model space distance between geometric entities at asserted c
onnectivities');
#536=(
GEOMETRIC_REPRESENTATION_CONTEXT(3)
GLOBAL_UNCERTAINTY_ASSIGNED_CONTEXT((#534))
GLOBAL_UNIT_ASSIGNED_CONTEXT((#538,#540,#541))
REPRESENTATION_CONTEXT('','3D')
);
#537=(
GEOMETRIC_REPRESENTATION_CONTEXT(3)
GLOBAL_UNCERTAINTY_ASSIGNED_CONTEXT((#535))
GLOBAL_UNIT_ASSIGNED_CONTEXT((#538,#540,#541))
REPRESENTATION_CONTEXT('','3D')
);
#538=(
LENGTH_UNIT()
NAMED_UNIT(*)
SI_UNIT(.MILLI.,.METRE.)
);
#539=(
LENGTH_UNIT()
NAMED_UNIT(*)
SI_UNIT($,.METRE.)
);
#540=(
NAMED_UNIT(*)
PLANE_ANGLE_UNIT()
SI_UNIT($,.RADIAN.)
);
#541=(
NAMED_UNIT(*)
SI_UNIT($,.STERADIAN.)
SOLID_ANGLE_UNIT()
);
#542=SHAPE_DEFINITION_REPRESENTATION(#543,#544);
#543=PRODUCT_DEFINITION_SHAPE('',$,#546);
#544=SHAPE_REPRESENTATION('',(#322),#536);
#545=PRODUCT_DEFINITION_CONTEXT('part definition',#550,'design');
#546=PRODUCT_DEFINITION('obudowa_anteny','obudowa_anteny v12',#547,#545);
#547=PRODUCT_DEFINITION_FORMATION('',$,#552);
#548=PRODUCT_RELATED_PRODUCT_CATEGORY('obudowa_anteny v12',
'obudowa_anteny v12',(#552));
#549=APPLICATION_PROTOCOL_DEFINITION('international standard',
'automotive_design',2009,#550);
#550=APPLICATION_CONTEXT(
'Core Data for Automotive Mechanical Design Process');
#551=PRODUCT_CONTEXT('part definition',#550,'mechanical');
#552=PRODUCT('obudowa_anteny','obudowa_anteny v12',$,(#551));
#553=PRESENTATION_STYLE_ASSIGNMENT((#555));
#554=PRESENTATION_STYLE_ASSIGNMENT((#556));
#555=SURFACE_STYLE_USAGE(.BOTH.,#557);
#556=SURFACE_STYLE_USAGE(.BOTH.,#558);
#557=SURFACE_SIDE_STYLE('',(#559));
#558=SURFACE_SIDE_STYLE('',(#560));
#559=SURFACE_STYLE_FILL_AREA(#561);
#560=SURFACE_STYLE_FILL_AREA(#562);
#561=FILL_AREA_STYLE('Stal \X2\2014\X0\ satynowa',(#563));
#562=FILL_AREA_STYLE('FR4',(#564));
#563=FILL_AREA_STYLE_COLOUR('Stal \X2\2014\X0\ satynowa',#565);
#564=FILL_AREA_STYLE_COLOUR('FR4',#566);
#565=COLOUR_RGB('Stal \X2\2014\X0\ satynowa',0.627450980392157,0.627450980392157,
0.627450980392157);
#566=COLOUR_RGB('FR4',0.266666666666667,0.466666666666667,0.4);
ENDSEC;
END-ISO-10303-21;
