ISO-10303-21;
HEADER;
/* Generated by software containing ST-Developer
 * from STEP Tools, Inc. (www.steptools.com) 
 */

FILE_DESCRIPTION(
/* description */ (''),
/* implementation_level */ '2;1');

FILE_NAME(
/* name */ 'Bottom_cover.step',
/* time_stamp */ '2026-04-28T21:21:13+02:00',
/* author */ (''),
/* organization */ (''),
/* preprocessor_version */ 'ST-DEVELOPER v20.1',
/* originating_system */ 'Autodesk Translation Framework v15.8.0.0',
/* authorisation */ '');

FILE_SCHEMA (('AUTOMOTIVE_DESIGN { 1 0 10303 214 3 1 1 }'));
ENDSEC;

DATA;
#10=MECHANICAL_DESIGN_GEOMETRIC_PRESENTATION_REPRESENTATION('',(#13),#1317);
#11=SHAPE_REPRESENTATION_RELATIONSHIP('SRR','None',#1324,#12);
#12=ADVANCED_BREP_SHAPE_REPRESENTATION('',(#14),#1316);
#13=STYLED_ITEM('',(#1333),#14);
#14=MANIFOLD_SOLID_BREP('Bottom_cover',#693);
#15=(
BOUNDED_CURVE()
B_SPLINE_CURVE(2,(#1182,#1183,#1184),.UNSPECIFIED.,.F.,.F.)
B_SPLINE_CURVE_WITH_KNOTS((3,3),(0.715329816850127,0.745293425414815),
 .UNSPECIFIED.)
CURVE()
GEOMETRIC_REPRESENTATION_ITEM()
RATIONAL_B_SPLINE_CURVE((2.38600451467269,2.41361588431488,2.44110854503465))
REPRESENTATION_ITEM('')
);
#16=(
BOUNDED_CURVE()
B_SPLINE_CURVE(2,(#1188,#1189,#1190),.UNSPECIFIED.,.F.,.F.)
B_SPLINE_CURVE_WITH_KNOTS((3,3),(14.6242724842002,14.6542360927649),
 .UNSPECIFIED.)
CURVE()
GEOMETRIC_REPRESENTATION_ITEM()
RATIONAL_B_SPLINE_CURVE((2.44110854503464,2.41361588431488,2.38600451467269))
REPRESENTATION_ITEM('')
);
#17=(
BOUNDED_CURVE()
B_SPLINE_CURVE(2,(#1204,#1205,#1206),.UNSPECIFIED.,.F.,.F.)
B_SPLINE_CURVE_WITH_KNOTS((3,3),(0.715329816850134,0.745293425414822),
 .UNSPECIFIED.)
CURVE()
GEOMETRIC_REPRESENTATION_ITEM()
RATIONAL_B_SPLINE_CURVE((2.38600451467269,2.41361588431488,2.44110854503465))
REPRESENTATION_ITEM('')
);
#18=(
BOUNDED_CURVE()
B_SPLINE_CURVE(2,(#1210,#1211,#1212),.UNSPECIFIED.,.F.,.F.)
B_SPLINE_CURVE_WITH_KNOTS((3,3),(14.6242724842002,14.6542360927649),
 .UNSPECIFIED.)
CURVE()
GEOMETRIC_REPRESENTATION_ITEM()
RATIONAL_B_SPLINE_CURVE((2.44110854503465,2.41361588431489,2.38600451467269))
REPRESENTATION_ITEM('')
);
#19=CONICAL_SURFACE('',#723,19.05,0.674740942223555);
#20=CONICAL_SURFACE('',#729,19.05,0.674740942223555);
#21=B_SPLINE_CURVE_WITH_KNOTS('',3,(#986,#987,#988,#989,#990,#991,#992,
#993,#994,#995),.UNSPECIFIED.,.F.,.F.,(4,2,2,2,4),(0.,0.0565058772012775,
0.113011754402555,0.169605127202555,0.226198500002556),.UNSPECIFIED.);
#22=B_SPLINE_CURVE_WITH_KNOTS('',3,(#997,#998,#999,#1000,#1001,#1002,#1003,
#1004,#1005,#1006),.UNSPECIFIED.,.F.,.F.,(4,2,2,2,4),(-0.226946384092325,
-0.170014208364088,-0.113082032635851,-0.0565410163179256,0.),
 .UNSPECIFIED.);
#23=B_SPLINE_CURVE_WITH_KNOTS('',3,(#1010,#1011,#1012,#1013,#1014,#1015,
#1016,#1017,#1018,#1019),.UNSPECIFIED.,.F.,.F.,(4,2,2,2,4),(0.,0.056533349317117,
0.113066698634234,0.16991505303069,0.226763407427145),.UNSPECIFIED.);
#24=B_SPLINE_CURVE_WITH_KNOTS('',3,(#1021,#1022,#1023,#1024,#1025,#1026,
#1027,#1028,#1029,#1030),.UNSPECIFIED.,.F.,.F.,(4,2,2,2,4),(-0.226162343970574,
-0.16958649374252,-0.113010643514467,-0.0565053217572333,0.),
 .UNSPECIFIED.);
#25=B_SPLINE_CURVE_WITH_KNOTS('',3,(#1035,#1036,#1037,#1038,#1039,#1040,
#1041,#1042,#1043,#1044),.UNSPECIFIED.,.F.,.F.,(4,2,2,2,4),(0.,0.0565053217572332,
0.113010643514466,0.16958649374252,0.226162343970574),.UNSPECIFIED.);
#26=B_SPLINE_CURVE_WITH_KNOTS('',3,(#1046,#1047,#1048,#1049,#1050,#1051,
#1052,#1053,#1054,#1055),.UNSPECIFIED.,.F.,.F.,(4,2,2,2,4),(-0.226763407427145,
-0.169915053030689,-0.113066698634234,-0.056533349317117,0.),
 .UNSPECIFIED.);
#27=B_SPLINE_CURVE_WITH_KNOTS('',3,(#1059,#1060,#1061,#1062,#1063,#1064,
#1065,#1066,#1067,#1068),.UNSPECIFIED.,.F.,.F.,(4,2,2,2,4),(0.,0.0565410163179256,
0.113082032635851,0.170014208364088,0.226946384092325),.UNSPECIFIED.);
#28=B_SPLINE_CURVE_WITH_KNOTS('',3,(#1070,#1071,#1072,#1073,#1074,#1075,
#1076,#1077,#1078,#1079),.UNSPECIFIED.,.F.,.F.,(4,2,2,2,4),(-0.226198500002556,
-0.169605127202555,-0.113011754402555,-0.0565058772012775,0.),
 .UNSPECIFIED.);
#29=B_SPLINE_CURVE_WITH_KNOTS('',3,(#1084,#1085,#1086,#1087,#1088,#1089,
#1090,#1091,#1092,#1093),.UNSPECIFIED.,.F.,.F.,(4,2,2,2,4),(0.,0.0565058772012775,
0.113011754402555,0.169605127202555,0.226198500002556),.UNSPECIFIED.);
#30=B_SPLINE_CURVE_WITH_KNOTS('',3,(#1095,#1096,#1097,#1098,#1099,#1100,
#1101,#1102,#1103,#1104),.UNSPECIFIED.,.F.,.F.,(4,2,2,2,4),(-0.226946384092325,
-0.170014208364088,-0.113082032635851,-0.0565410163179256,0.),
 .UNSPECIFIED.);
#31=B_SPLINE_CURVE_WITH_KNOTS('',3,(#1108,#1109,#1110,#1111,#1112,#1113,
#1114,#1115,#1116,#1117),.UNSPECIFIED.,.F.,.F.,(4,2,2,2,4),(0.,0.056533349317117,
0.113066698634234,0.16991505303069,0.226763407427145),.UNSPECIFIED.);
#32=B_SPLINE_CURVE_WITH_KNOTS('',3,(#1119,#1120,#1121,#1122,#1123,#1124,
#1125,#1126,#1127,#1128),.UNSPECIFIED.,.F.,.F.,(4,2,2,2,4),(-0.226162343970574,
-0.16958649374252,-0.113010643514467,-0.0565053217572333,0.),
 .UNSPECIFIED.);
#33=B_SPLINE_CURVE_WITH_KNOTS('',3,(#1133,#1134,#1135,#1136,#1137,#1138,
#1139,#1140,#1141,#1142),.UNSPECIFIED.,.F.,.F.,(4,2,2,2,4),(0.,0.0565053217572333,
0.113010643514467,0.16958649374252,0.226162343970574),.UNSPECIFIED.);
#34=B_SPLINE_CURVE_WITH_KNOTS('',3,(#1144,#1145,#1146,#1147,#1148,#1149,
#1150,#1151,#1152,#1153),.UNSPECIFIED.,.F.,.F.,(4,2,2,2,4),(-0.226763407427145,
-0.16991505303069,-0.113066698634234,-0.0565333493171171,0.),
 .UNSPECIFIED.);
#35=B_SPLINE_CURVE_WITH_KNOTS('',3,(#1157,#1158,#1159,#1160,#1161,#1162,
#1163,#1164,#1165,#1166),.UNSPECIFIED.,.F.,.F.,(4,2,2,2,4),(0.,0.0566551624695002,
0.113310324939,0.170128408272243,0.226946491605487),.UNSPECIFIED.);
#36=B_SPLINE_CURVE_WITH_KNOTS('',3,(#1168,#1169,#1170,#1171,#1172,#1173,
#1174,#1175,#1176,#1177),.UNSPECIFIED.,.F.,.F.,(4,2,2,2,4),(-0.226198500002556,
-0.169605127202555,-0.113011754402555,-0.0565058772012774,0.),
 .UNSPECIFIED.);
#37=FACE_BOUND('',#109,.T.);
#38=FACE_BOUND('',#112,.T.);
#39=FACE_BOUND('',#135,.T.);
#40=FACE_BOUND('',#136,.T.);
#41=FACE_BOUND('',#137,.T.);
#42=FACE_BOUND('',#138,.T.);
#43=FACE_BOUND('',#139,.T.);
#44=FACE_BOUND('',#140,.T.);
#45=FACE_BOUND('',#141,.T.);
#46=FACE_BOUND('',#144,.T.);
#47=FACE_BOUND('',#145,.T.);
#48=FACE_BOUND('',#146,.T.);
#49=FACE_BOUND('',#147,.T.);
#50=FACE_BOUND('',#148,.T.);
#51=FACE_BOUND('',#149,.T.);
#52=FACE_BOUND('',#150,.T.);
#53=FACE_BOUND('',#152,.T.);
#54=PLANE('',#713);
#55=PLANE('',#717);
#56=PLANE('',#726);
#57=PLANE('',#728);
#58=PLANE('',#732);
#59=PLANE('',#734);
#60=PLANE('',#738);
#61=PLANE('',#739);
#62=PLANE('',#740);
#63=PLANE('',#741);
#64=PLANE('',#742);
#65=PLANE('',#743);
#66=PLANE('',#744);
#67=PLANE('',#749);
#68=PLANE('',#755);
#69=PLANE('',#764);
#70=PLANE('',#770);
#71=FACE_OUTER_BOUND('',#106,.T.);
#72=FACE_OUTER_BOUND('',#107,.T.);
#73=FACE_OUTER_BOUND('',#108,.T.);
#74=FACE_OUTER_BOUND('',#110,.T.);
#75=FACE_OUTER_BOUND('',#111,.T.);
#76=FACE_OUTER_BOUND('',#113,.T.);
#77=FACE_OUTER_BOUND('',#114,.T.);
#78=FACE_OUTER_BOUND('',#115,.T.);
#79=FACE_OUTER_BOUND('',#116,.T.);
#80=FACE_OUTER_BOUND('',#117,.T.);
#81=FACE_OUTER_BOUND('',#118,.T.);
#82=FACE_OUTER_BOUND('',#119,.T.);
#83=FACE_OUTER_BOUND('',#120,.T.);
#84=FACE_OUTER_BOUND('',#121,.T.);
#85=FACE_OUTER_BOUND('',#122,.T.);
#86=FACE_OUTER_BOUND('',#123,.T.);
#87=FACE_OUTER_BOUND('',#124,.T.);
#88=FACE_OUTER_BOUND('',#125,.T.);
#89=FACE_OUTER_BOUND('',#126,.T.);
#90=FACE_OUTER_BOUND('',#127,.T.);
#91=FACE_OUTER_BOUND('',#128,.T.);
#92=FACE_OUTER_BOUND('',#129,.T.);
#93=FACE_OUTER_BOUND('',#130,.T.);
#94=FACE_OUTER_BOUND('',#131,.T.);
#95=FACE_OUTER_BOUND('',#132,.T.);
#96=FACE_OUTER_BOUND('',#133,.T.);
#97=FACE_OUTER_BOUND('',#134,.T.);
#98=FACE_OUTER_BOUND('',#142,.T.);
#99=FACE_OUTER_BOUND('',#143,.T.);
#100=FACE_OUTER_BOUND('',#151,.T.);
#101=FACE_OUTER_BOUND('',#153,.T.);
#102=FACE_OUTER_BOUND('',#154,.T.);
#103=FACE_OUTER_BOUND('',#155,.T.);
#104=FACE_OUTER_BOUND('',#156,.T.);
#105=FACE_OUTER_BOUND('',#157,.T.);
#106=EDGE_LOOP('',(#446,#447,#448,#449));
#107=EDGE_LOOP('',(#450,#451,#452,#453));
#108=EDGE_LOOP('',(#454));
#109=EDGE_LOOP('',(#455));
#110=EDGE_LOOP('',(#456,#457,#458,#459));
#111=EDGE_LOOP('',(#460));
#112=EDGE_LOOP('',(#461));
#113=EDGE_LOOP('',(#462,#463,#464,#465,#466,#467));
#114=EDGE_LOOP('',(#468,#469,#470,#471,#472,#473));
#115=EDGE_LOOP('',(#474,#475,#476,#477,#478,#479));
#116=EDGE_LOOP('',(#480,#481,#482,#483,#484,#485));
#117=EDGE_LOOP('',(#486,#487,#488,#489));
#118=EDGE_LOOP('',(#490,#491,#492,#493));
#119=EDGE_LOOP('',(#494,#495,#496,#497,#498));
#120=EDGE_LOOP('',(#499,#500,#501,#502));
#121=EDGE_LOOP('',(#503,#504,#505,#506));
#122=EDGE_LOOP('',(#507,#508,#509,#510,#511));
#123=EDGE_LOOP('',(#512,#513,#514,#515));
#124=EDGE_LOOP('',(#516,#517,#518,#519));
#125=EDGE_LOOP('',(#520,#521,#522,#523,#524));
#126=EDGE_LOOP('',(#525,#526,#527,#528,#529));
#127=EDGE_LOOP('',(#530,#531,#532,#533));
#128=EDGE_LOOP('',(#534,#535,#536,#537));
#129=EDGE_LOOP('',(#538,#539,#540,#541));
#130=EDGE_LOOP('',(#542,#543,#544,#545,#546,#547));
#131=EDGE_LOOP('',(#548,#549,#550,#551));
#132=EDGE_LOOP('',(#552,#553,#554,#555,#556,#557,#558,#559,#560,#561,#562,
#563,#564,#565,#566,#567,#568,#569,#570,#571,#572,#573,#574,#575));
#133=EDGE_LOOP('',(#576,#577,#578,#579,#580,#581,#582,#583,#584,#585,#586,
#587,#588,#589,#590,#591,#592,#593,#594,#595,#596,#597,#598,#599));
#134=EDGE_LOOP('',(#600));
#135=EDGE_LOOP('',(#601));
#136=EDGE_LOOP('',(#602));
#137=EDGE_LOOP('',(#603));
#138=EDGE_LOOP('',(#604));
#139=EDGE_LOOP('',(#605));
#140=EDGE_LOOP('',(#606));
#141=EDGE_LOOP('',(#607));
#142=EDGE_LOOP('',(#608,#609,#610,#611));
#143=EDGE_LOOP('',(#612));
#144=EDGE_LOOP('',(#613));
#145=EDGE_LOOP('',(#614));
#146=EDGE_LOOP('',(#615));
#147=EDGE_LOOP('',(#616));
#148=EDGE_LOOP('',(#617));
#149=EDGE_LOOP('',(#618));
#150=EDGE_LOOP('',(#619));
#151=EDGE_LOOP('',(#620));
#152=EDGE_LOOP('',(#621));
#153=EDGE_LOOP('',(#622,#623,#624,#625));
#154=EDGE_LOOP('',(#626,#627,#628,#629));
#155=EDGE_LOOP('',(#630,#631,#632,#633));
#156=EDGE_LOOP('',(#634,#635,#636,#637));
#157=EDGE_LOOP('',(#638,#639,#640,#641));
#158=LINE('',#965,#202);
#159=LINE('',#971,#203);
#160=LINE('',#979,#204);
#161=LINE('',#1008,#205);
#162=LINE('',#1031,#206);
#163=LINE('',#1057,#207);
#164=LINE('',#1080,#208);
#165=LINE('',#1106,#209);
#166=LINE('',#1129,#210);
#167=LINE('',#1155,#211);
#168=LINE('',#1178,#212);
#169=LINE('',#1194,#213);
#170=LINE('',#1197,#214);
#171=LINE('',#1199,#215);
#172=LINE('',#1200,#216);
#173=LINE('',#1216,#217);
#174=LINE('',#1219,#218);
#175=LINE('',#1221,#219);
#176=LINE('',#1222,#220);
#177=LINE('',#1227,#221);
#178=LINE('',#1231,#222);
#179=LINE('',#1233,#223);
#180=LINE('',#1234,#224);
#181=LINE('',#1236,#225);
#182=LINE('',#1237,#226);
#183=LINE('',#1239,#227);
#184=LINE('',#1240,#228);
#185=LINE('',#1243,#229);
#186=LINE('',#1245,#230);
#187=LINE('',#1246,#231);
#188=LINE('',#1249,#232);
#189=LINE('',#1251,#233);
#190=LINE('',#1252,#234);
#191=LINE('',#1255,#235);
#192=LINE('',#1257,#236);
#193=LINE('',#1258,#237);
#194=LINE('',#1271,#238);
#195=LINE('',#1274,#239);
#196=LINE('',#1291,#240);
#197=LINE('',#1305,#241);
#198=LINE('',#1307,#242);
#199=LINE('',#1309,#243);
#200=LINE('',#1311,#244);
#201=LINE('',#1313,#245);
#202=VECTOR('',#782,1.5);
#203=VECTOR('',#789,23.25);
#204=VECTOR('',#800,22.);
#205=VECTOR('',#807,10.);
#206=VECTOR('',#808,10.);
#207=VECTOR('',#811,10.);
#208=VECTOR('',#812,10.);
#209=VECTOR('',#815,10.);
#210=VECTOR('',#816,10.);
#211=VECTOR('',#819,10.);
#212=VECTOR('',#820,10.);
#213=VECTOR('',#829,10.);
#214=VECTOR('',#832,10.);
#215=VECTOR('',#835,10.);
#216=VECTOR('',#836,10.);
#217=VECTOR('',#845,10.);
#218=VECTOR('',#848,10.);
#219=VECTOR('',#851,10.);
#220=VECTOR('',#852,10.);
#221=VECTOR('',#857,7.5);
#222=VECTOR('',#862,10.);
#223=VECTOR('',#863,10.);
#224=VECTOR('',#864,10.);
#225=VECTOR('',#867,10.);
#226=VECTOR('',#868,10.);
#227=VECTOR('',#871,10.);
#228=VECTOR('',#872,10.);
#229=VECTOR('',#875,10.);
#230=VECTOR('',#876,10.);
#231=VECTOR('',#877,10.);
#232=VECTOR('',#880,10.);
#233=VECTOR('',#881,10.);
#234=VECTOR('',#882,10.);
#235=VECTOR('',#885,10.);
#236=VECTOR('',#886,10.);
#237=VECTOR('',#887,10.);
#238=VECTOR('',#906,18.);
#239=VECTOR('',#911,19.45);
#240=VECTOR('',#930,20.5);
#241=VECTOR('',#947,1.5);
#242=VECTOR('',#950,1.5);
#243=VECTOR('',#953,1.5);
#244=VECTOR('',#956,1.5);
#245=VECTOR('',#959,1.5);
#246=CIRCLE('',#708,1.5);
#247=CIRCLE('',#709,1.5);
#248=CIRCLE('',#711,23.25);
#249=CIRCLE('',#712,23.25);
#250=CIRCLE('',#714,22.);
#251=CIRCLE('',#716,22.);
#252=CIRCLE('',#718,19.15);
#253=CIRCLE('',#724,18.65);
#254=CIRCLE('',#725,19.15);
#255=CIRCLE('',#727,17.2);
#256=CIRCLE('',#730,18.65);
#257=CIRCLE('',#731,19.15);
#258=CIRCLE('',#733,17.2);
#259=CIRCLE('',#736,7.5);
#260=CIRCLE('',#737,7.5);
#261=CIRCLE('',#745,17.2);
#262=CIRCLE('',#746,17.2);
#263=CIRCLE('',#747,19.15);
#264=CIRCLE('',#748,19.15);
#265=CIRCLE('',#750,17.2);
#266=CIRCLE('',#751,19.15);
#267=CIRCLE('',#753,17.2);
#268=CIRCLE('',#756,29.);
#269=CIRCLE('',#757,1.5);
#270=CIRCLE('',#758,1.5);
#271=CIRCLE('',#759,1.5);
#272=CIRCLE('',#760,1.5);
#273=CIRCLE('',#761,1.5);
#274=CIRCLE('',#763,29.);
#275=CIRCLE('',#765,1.5);
#276=CIRCLE('',#766,1.5);
#277=CIRCLE('',#767,1.5);
#278=CIRCLE('',#768,1.5);
#279=CIRCLE('',#769,1.5);
#280=VERTEX_POINT('',#962);
#281=VERTEX_POINT('',#964);
#282=VERTEX_POINT('',#968);
#283=VERTEX_POINT('',#970);
#284=VERTEX_POINT('',#974);
#285=VERTEX_POINT('',#977);
#286=VERTEX_POINT('',#981);
#287=VERTEX_POINT('',#984);
#288=VERTEX_POINT('',#985);
#289=VERTEX_POINT('',#996);
#290=VERTEX_POINT('',#1007);
#291=VERTEX_POINT('',#1009);
#292=VERTEX_POINT('',#1020);
#293=VERTEX_POINT('',#1033);
#294=VERTEX_POINT('',#1034);
#295=VERTEX_POINT('',#1045);
#296=VERTEX_POINT('',#1056);
#297=VERTEX_POINT('',#1058);
#298=VERTEX_POINT('',#1069);
#299=VERTEX_POINT('',#1082);
#300=VERTEX_POINT('',#1083);
#301=VERTEX_POINT('',#1094);
#302=VERTEX_POINT('',#1105);
#303=VERTEX_POINT('',#1107);
#304=VERTEX_POINT('',#1118);
#305=VERTEX_POINT('',#1131);
#306=VERTEX_POINT('',#1132);
#307=VERTEX_POINT('',#1143);
#308=VERTEX_POINT('',#1154);
#309=VERTEX_POINT('',#1156);
#310=VERTEX_POINT('',#1167);
#311=VERTEX_POINT('',#1180);
#312=VERTEX_POINT('',#1181);
#313=VERTEX_POINT('',#1185);
#314=VERTEX_POINT('',#1187);
#315=VERTEX_POINT('',#1193);
#316=VERTEX_POINT('',#1195);
#317=VERTEX_POINT('',#1202);
#318=VERTEX_POINT('',#1203);
#319=VERTEX_POINT('',#1207);
#320=VERTEX_POINT('',#1209);
#321=VERTEX_POINT('',#1215);
#322=VERTEX_POINT('',#1217);
#323=VERTEX_POINT('',#1224);
#324=VERTEX_POINT('',#1226);
#325=VERTEX_POINT('',#1230);
#326=VERTEX_POINT('',#1232);
#327=VERTEX_POINT('',#1242);
#328=VERTEX_POINT('',#1244);
#329=VERTEX_POINT('',#1248);
#330=VERTEX_POINT('',#1250);
#331=VERTEX_POINT('',#1254);
#332=VERTEX_POINT('',#1256);
#333=VERTEX_POINT('',#1260);
#334=VERTEX_POINT('',#1263);
#335=VERTEX_POINT('',#1270);
#336=VERTEX_POINT('',#1276);
#337=VERTEX_POINT('',#1278);
#338=VERTEX_POINT('',#1280);
#339=VERTEX_POINT('',#1282);
#340=VERTEX_POINT('',#1284);
#341=VERTEX_POINT('',#1286);
#342=VERTEX_POINT('',#1289);
#343=VERTEX_POINT('',#1293);
#344=VERTEX_POINT('',#1295);
#345=VERTEX_POINT('',#1297);
#346=VERTEX_POINT('',#1299);
#347=VERTEX_POINT('',#1301);
#348=EDGE_CURVE('',#280,#280,#246,.F.);
#349=EDGE_CURVE('',#280,#281,#158,.T.);
#350=EDGE_CURVE('',#281,#281,#247,.T.);
#351=EDGE_CURVE('',#282,#282,#248,.T.);
#352=EDGE_CURVE('',#282,#283,#159,.T.);
#353=EDGE_CURVE('',#283,#283,#249,.T.);
#354=EDGE_CURVE('',#284,#284,#250,.T.);
#355=EDGE_CURVE('',#285,#285,#251,.T.);
#356=EDGE_CURVE('',#285,#284,#160,.T.);
#357=EDGE_CURVE('',#286,#286,#252,.F.);
#358=EDGE_CURVE('',#287,#288,#21,.T.);
#359=EDGE_CURVE('',#288,#289,#22,.T.);
#360=EDGE_CURVE('',#289,#290,#161,.T.);
#361=EDGE_CURVE('',#290,#291,#23,.T.);
#362=EDGE_CURVE('',#291,#292,#24,.T.);
#363=EDGE_CURVE('',#292,#287,#162,.T.);
#364=EDGE_CURVE('',#293,#294,#25,.T.);
#365=EDGE_CURVE('',#294,#295,#26,.T.);
#366=EDGE_CURVE('',#295,#296,#163,.T.);
#367=EDGE_CURVE('',#296,#297,#27,.T.);
#368=EDGE_CURVE('',#297,#298,#28,.T.);
#369=EDGE_CURVE('',#298,#293,#164,.T.);
#370=EDGE_CURVE('',#299,#300,#29,.T.);
#371=EDGE_CURVE('',#300,#301,#30,.T.);
#372=EDGE_CURVE('',#301,#302,#165,.T.);
#373=EDGE_CURVE('',#302,#303,#31,.T.);
#374=EDGE_CURVE('',#303,#304,#32,.T.);
#375=EDGE_CURVE('',#304,#299,#166,.T.);
#376=EDGE_CURVE('',#305,#306,#33,.T.);
#377=EDGE_CURVE('',#306,#307,#34,.T.);
#378=EDGE_CURVE('',#307,#308,#167,.T.);
#379=EDGE_CURVE('',#308,#309,#35,.T.);
#380=EDGE_CURVE('',#309,#310,#36,.T.);
#381=EDGE_CURVE('',#310,#305,#168,.T.);
#382=EDGE_CURVE('',#311,#312,#15,.T.);
#383=EDGE_CURVE('',#312,#313,#253,.T.);
#384=EDGE_CURVE('',#313,#314,#16,.T.);
#385=EDGE_CURVE('',#314,#311,#254,.F.);
#386=EDGE_CURVE('',#312,#315,#169,.T.);
#387=EDGE_CURVE('',#315,#316,#255,.F.);
#388=EDGE_CURVE('',#316,#313,#170,.T.);
#389=EDGE_CURVE('',#315,#301,#171,.T.);
#390=EDGE_CURVE('',#302,#311,#172,.T.);
#391=EDGE_CURVE('',#317,#318,#17,.T.);
#392=EDGE_CURVE('',#318,#319,#256,.T.);
#393=EDGE_CURVE('',#319,#320,#18,.T.);
#394=EDGE_CURVE('',#320,#317,#257,.F.);
#395=EDGE_CURVE('',#318,#321,#173,.T.);
#396=EDGE_CURVE('',#321,#322,#258,.F.);
#397=EDGE_CURVE('',#322,#319,#174,.T.);
#398=EDGE_CURVE('',#321,#289,#175,.T.);
#399=EDGE_CURVE('',#290,#317,#176,.T.);
#400=EDGE_CURVE('',#323,#323,#259,.F.);
#401=EDGE_CURVE('',#323,#324,#177,.T.);
#402=EDGE_CURVE('',#324,#324,#260,.T.);
#403=EDGE_CURVE('',#325,#310,#178,.F.);
#404=EDGE_CURVE('',#326,#325,#179,.T.);
#405=EDGE_CURVE('',#305,#326,#180,.F.);
#406=EDGE_CURVE('',#320,#307,#181,.T.);
#407=EDGE_CURVE('',#308,#322,#182,.T.);
#408=EDGE_CURVE('',#314,#295,#183,.T.);
#409=EDGE_CURVE('',#296,#316,#184,.T.);
#410=EDGE_CURVE('',#327,#298,#185,.F.);
#411=EDGE_CURVE('',#328,#327,#186,.T.);
#412=EDGE_CURVE('',#293,#328,#187,.F.);
#413=EDGE_CURVE('',#329,#304,#188,.F.);
#414=EDGE_CURVE('',#330,#329,#189,.T.);
#415=EDGE_CURVE('',#299,#330,#190,.F.);
#416=EDGE_CURVE('',#331,#292,#191,.F.);
#417=EDGE_CURVE('',#332,#331,#192,.T.);
#418=EDGE_CURVE('',#287,#332,#193,.F.);
#419=EDGE_CURVE('',#327,#333,#261,.F.);
#420=EDGE_CURVE('',#333,#332,#262,.F.);
#421=EDGE_CURVE('',#331,#334,#263,.F.);
#422=EDGE_CURVE('',#334,#328,#264,.F.);
#423=EDGE_CURVE('',#325,#330,#265,.F.);
#424=EDGE_CURVE('',#329,#326,#266,.F.);
#425=EDGE_CURVE('',#333,#335,#194,.T.);
#426=EDGE_CURVE('',#335,#335,#267,.F.);
#427=EDGE_CURVE('',#334,#286,#195,.T.);
#428=EDGE_CURVE('',#336,#336,#268,.F.);
#429=EDGE_CURVE('',#337,#337,#269,.T.);
#430=EDGE_CURVE('',#338,#338,#270,.T.);
#431=EDGE_CURVE('',#339,#339,#271,.T.);
#432=EDGE_CURVE('',#340,#340,#272,.T.);
#433=EDGE_CURVE('',#341,#341,#273,.T.);
#434=EDGE_CURVE('',#342,#342,#274,.T.);
#435=EDGE_CURVE('',#342,#336,#196,.T.);
#436=EDGE_CURVE('',#343,#343,#275,.F.);
#437=EDGE_CURVE('',#344,#344,#276,.F.);
#438=EDGE_CURVE('',#345,#345,#277,.F.);
#439=EDGE_CURVE('',#346,#346,#278,.F.);
#440=EDGE_CURVE('',#347,#347,#279,.F.);
#441=EDGE_CURVE('',#347,#341,#197,.T.);
#442=EDGE_CURVE('',#346,#340,#198,.T.);
#443=EDGE_CURVE('',#345,#339,#199,.T.);
#444=EDGE_CURVE('',#344,#338,#200,.T.);
#445=EDGE_CURVE('',#343,#337,#201,.T.);
#446=ORIENTED_EDGE('',*,*,#348,.F.);
#447=ORIENTED_EDGE('',*,*,#349,.T.);
#448=ORIENTED_EDGE('',*,*,#350,.F.);
#449=ORIENTED_EDGE('',*,*,#349,.F.);
#450=ORIENTED_EDGE('',*,*,#351,.F.);
#451=ORIENTED_EDGE('',*,*,#352,.T.);
#452=ORIENTED_EDGE('',*,*,#353,.T.);
#453=ORIENTED_EDGE('',*,*,#352,.F.);
#454=ORIENTED_EDGE('',*,*,#353,.F.);
#455=ORIENTED_EDGE('',*,*,#354,.T.);
#456=ORIENTED_EDGE('',*,*,#355,.F.);
#457=ORIENTED_EDGE('',*,*,#356,.T.);
#458=ORIENTED_EDGE('',*,*,#354,.F.);
#459=ORIENTED_EDGE('',*,*,#356,.F.);
#460=ORIENTED_EDGE('',*,*,#355,.T.);
#461=ORIENTED_EDGE('',*,*,#357,.T.);
#462=ORIENTED_EDGE('',*,*,#358,.T.);
#463=ORIENTED_EDGE('',*,*,#359,.T.);
#464=ORIENTED_EDGE('',*,*,#360,.T.);
#465=ORIENTED_EDGE('',*,*,#361,.T.);
#466=ORIENTED_EDGE('',*,*,#362,.T.);
#467=ORIENTED_EDGE('',*,*,#363,.T.);
#468=ORIENTED_EDGE('',*,*,#364,.T.);
#469=ORIENTED_EDGE('',*,*,#365,.T.);
#470=ORIENTED_EDGE('',*,*,#366,.T.);
#471=ORIENTED_EDGE('',*,*,#367,.T.);
#472=ORIENTED_EDGE('',*,*,#368,.T.);
#473=ORIENTED_EDGE('',*,*,#369,.T.);
#474=ORIENTED_EDGE('',*,*,#370,.T.);
#475=ORIENTED_EDGE('',*,*,#371,.T.);
#476=ORIENTED_EDGE('',*,*,#372,.T.);
#477=ORIENTED_EDGE('',*,*,#373,.T.);
#478=ORIENTED_EDGE('',*,*,#374,.T.);
#479=ORIENTED_EDGE('',*,*,#375,.T.);
#480=ORIENTED_EDGE('',*,*,#376,.T.);
#481=ORIENTED_EDGE('',*,*,#377,.T.);
#482=ORIENTED_EDGE('',*,*,#378,.T.);
#483=ORIENTED_EDGE('',*,*,#379,.T.);
#484=ORIENTED_EDGE('',*,*,#380,.T.);
#485=ORIENTED_EDGE('',*,*,#381,.T.);
#486=ORIENTED_EDGE('',*,*,#382,.T.);
#487=ORIENTED_EDGE('',*,*,#383,.T.);
#488=ORIENTED_EDGE('',*,*,#384,.T.);
#489=ORIENTED_EDGE('',*,*,#385,.T.);
#490=ORIENTED_EDGE('',*,*,#383,.F.);
#491=ORIENTED_EDGE('',*,*,#386,.T.);
#492=ORIENTED_EDGE('',*,*,#387,.T.);
#493=ORIENTED_EDGE('',*,*,#388,.T.);
#494=ORIENTED_EDGE('',*,*,#372,.F.);
#495=ORIENTED_EDGE('',*,*,#389,.F.);
#496=ORIENTED_EDGE('',*,*,#386,.F.);
#497=ORIENTED_EDGE('',*,*,#382,.F.);
#498=ORIENTED_EDGE('',*,*,#390,.F.);
#499=ORIENTED_EDGE('',*,*,#391,.T.);
#500=ORIENTED_EDGE('',*,*,#392,.T.);
#501=ORIENTED_EDGE('',*,*,#393,.T.);
#502=ORIENTED_EDGE('',*,*,#394,.T.);
#503=ORIENTED_EDGE('',*,*,#392,.F.);
#504=ORIENTED_EDGE('',*,*,#395,.T.);
#505=ORIENTED_EDGE('',*,*,#396,.T.);
#506=ORIENTED_EDGE('',*,*,#397,.T.);
#507=ORIENTED_EDGE('',*,*,#360,.F.);
#508=ORIENTED_EDGE('',*,*,#398,.F.);
#509=ORIENTED_EDGE('',*,*,#395,.F.);
#510=ORIENTED_EDGE('',*,*,#391,.F.);
#511=ORIENTED_EDGE('',*,*,#399,.F.);
#512=ORIENTED_EDGE('',*,*,#400,.F.);
#513=ORIENTED_EDGE('',*,*,#401,.T.);
#514=ORIENTED_EDGE('',*,*,#402,.F.);
#515=ORIENTED_EDGE('',*,*,#401,.F.);
#516=ORIENTED_EDGE('',*,*,#381,.F.);
#517=ORIENTED_EDGE('',*,*,#403,.F.);
#518=ORIENTED_EDGE('',*,*,#404,.F.);
#519=ORIENTED_EDGE('',*,*,#405,.F.);
#520=ORIENTED_EDGE('',*,*,#378,.F.);
#521=ORIENTED_EDGE('',*,*,#406,.F.);
#522=ORIENTED_EDGE('',*,*,#393,.F.);
#523=ORIENTED_EDGE('',*,*,#397,.F.);
#524=ORIENTED_EDGE('',*,*,#407,.F.);
#525=ORIENTED_EDGE('',*,*,#366,.F.);
#526=ORIENTED_EDGE('',*,*,#408,.F.);
#527=ORIENTED_EDGE('',*,*,#384,.F.);
#528=ORIENTED_EDGE('',*,*,#388,.F.);
#529=ORIENTED_EDGE('',*,*,#409,.F.);
#530=ORIENTED_EDGE('',*,*,#369,.F.);
#531=ORIENTED_EDGE('',*,*,#410,.F.);
#532=ORIENTED_EDGE('',*,*,#411,.F.);
#533=ORIENTED_EDGE('',*,*,#412,.F.);
#534=ORIENTED_EDGE('',*,*,#375,.F.);
#535=ORIENTED_EDGE('',*,*,#413,.F.);
#536=ORIENTED_EDGE('',*,*,#414,.F.);
#537=ORIENTED_EDGE('',*,*,#415,.F.);
#538=ORIENTED_EDGE('',*,*,#363,.F.);
#539=ORIENTED_EDGE('',*,*,#416,.F.);
#540=ORIENTED_EDGE('',*,*,#417,.F.);
#541=ORIENTED_EDGE('',*,*,#418,.F.);
#542=ORIENTED_EDGE('',*,*,#411,.T.);
#543=ORIENTED_EDGE('',*,*,#419,.T.);
#544=ORIENTED_EDGE('',*,*,#420,.T.);
#545=ORIENTED_EDGE('',*,*,#417,.T.);
#546=ORIENTED_EDGE('',*,*,#421,.T.);
#547=ORIENTED_EDGE('',*,*,#422,.T.);
#548=ORIENTED_EDGE('',*,*,#404,.T.);
#549=ORIENTED_EDGE('',*,*,#423,.T.);
#550=ORIENTED_EDGE('',*,*,#414,.T.);
#551=ORIENTED_EDGE('',*,*,#424,.T.);
#552=ORIENTED_EDGE('',*,*,#403,.T.);
#553=ORIENTED_EDGE('',*,*,#380,.F.);
#554=ORIENTED_EDGE('',*,*,#379,.F.);
#555=ORIENTED_EDGE('',*,*,#407,.T.);
#556=ORIENTED_EDGE('',*,*,#396,.F.);
#557=ORIENTED_EDGE('',*,*,#398,.T.);
#558=ORIENTED_EDGE('',*,*,#359,.F.);
#559=ORIENTED_EDGE('',*,*,#358,.F.);
#560=ORIENTED_EDGE('',*,*,#418,.T.);
#561=ORIENTED_EDGE('',*,*,#420,.F.);
#562=ORIENTED_EDGE('',*,*,#425,.T.);
#563=ORIENTED_EDGE('',*,*,#426,.F.);
#564=ORIENTED_EDGE('',*,*,#425,.F.);
#565=ORIENTED_EDGE('',*,*,#419,.F.);
#566=ORIENTED_EDGE('',*,*,#410,.T.);
#567=ORIENTED_EDGE('',*,*,#368,.F.);
#568=ORIENTED_EDGE('',*,*,#367,.F.);
#569=ORIENTED_EDGE('',*,*,#409,.T.);
#570=ORIENTED_EDGE('',*,*,#387,.F.);
#571=ORIENTED_EDGE('',*,*,#389,.T.);
#572=ORIENTED_EDGE('',*,*,#371,.F.);
#573=ORIENTED_EDGE('',*,*,#370,.F.);
#574=ORIENTED_EDGE('',*,*,#415,.T.);
#575=ORIENTED_EDGE('',*,*,#423,.F.);
#576=ORIENTED_EDGE('',*,*,#385,.F.);
#577=ORIENTED_EDGE('',*,*,#408,.T.);
#578=ORIENTED_EDGE('',*,*,#365,.F.);
#579=ORIENTED_EDGE('',*,*,#364,.F.);
#580=ORIENTED_EDGE('',*,*,#412,.T.);
#581=ORIENTED_EDGE('',*,*,#422,.F.);
#582=ORIENTED_EDGE('',*,*,#427,.T.);
#583=ORIENTED_EDGE('',*,*,#357,.F.);
#584=ORIENTED_EDGE('',*,*,#427,.F.);
#585=ORIENTED_EDGE('',*,*,#421,.F.);
#586=ORIENTED_EDGE('',*,*,#416,.T.);
#587=ORIENTED_EDGE('',*,*,#362,.F.);
#588=ORIENTED_EDGE('',*,*,#361,.F.);
#589=ORIENTED_EDGE('',*,*,#399,.T.);
#590=ORIENTED_EDGE('',*,*,#394,.F.);
#591=ORIENTED_EDGE('',*,*,#406,.T.);
#592=ORIENTED_EDGE('',*,*,#377,.F.);
#593=ORIENTED_EDGE('',*,*,#376,.F.);
#594=ORIENTED_EDGE('',*,*,#405,.T.);
#595=ORIENTED_EDGE('',*,*,#424,.F.);
#596=ORIENTED_EDGE('',*,*,#413,.T.);
#597=ORIENTED_EDGE('',*,*,#374,.F.);
#598=ORIENTED_EDGE('',*,*,#373,.F.);
#599=ORIENTED_EDGE('',*,*,#390,.T.);
#600=ORIENTED_EDGE('',*,*,#428,.F.);
#601=ORIENTED_EDGE('',*,*,#429,.T.);
#602=ORIENTED_EDGE('',*,*,#430,.T.);
#603=ORIENTED_EDGE('',*,*,#431,.T.);
#604=ORIENTED_EDGE('',*,*,#432,.T.);
#605=ORIENTED_EDGE('',*,*,#433,.T.);
#606=ORIENTED_EDGE('',*,*,#350,.T.);
#607=ORIENTED_EDGE('',*,*,#351,.T.);
#608=ORIENTED_EDGE('',*,*,#434,.F.);
#609=ORIENTED_EDGE('',*,*,#435,.T.);
#610=ORIENTED_EDGE('',*,*,#428,.T.);
#611=ORIENTED_EDGE('',*,*,#435,.F.);
#612=ORIENTED_EDGE('',*,*,#434,.T.);
#613=ORIENTED_EDGE('',*,*,#436,.T.);
#614=ORIENTED_EDGE('',*,*,#437,.T.);
#615=ORIENTED_EDGE('',*,*,#438,.T.);
#616=ORIENTED_EDGE('',*,*,#439,.T.);
#617=ORIENTED_EDGE('',*,*,#440,.T.);
#618=ORIENTED_EDGE('',*,*,#348,.T.);
#619=ORIENTED_EDGE('',*,*,#400,.T.);
#620=ORIENTED_EDGE('',*,*,#426,.T.);
#621=ORIENTED_EDGE('',*,*,#402,.T.);
#622=ORIENTED_EDGE('',*,*,#440,.F.);
#623=ORIENTED_EDGE('',*,*,#441,.T.);
#624=ORIENTED_EDGE('',*,*,#433,.F.);
#625=ORIENTED_EDGE('',*,*,#441,.F.);
#626=ORIENTED_EDGE('',*,*,#439,.F.);
#627=ORIENTED_EDGE('',*,*,#442,.T.);
#628=ORIENTED_EDGE('',*,*,#432,.F.);
#629=ORIENTED_EDGE('',*,*,#442,.F.);
#630=ORIENTED_EDGE('',*,*,#438,.F.);
#631=ORIENTED_EDGE('',*,*,#443,.T.);
#632=ORIENTED_EDGE('',*,*,#431,.F.);
#633=ORIENTED_EDGE('',*,*,#443,.F.);
#634=ORIENTED_EDGE('',*,*,#437,.F.);
#635=ORIENTED_EDGE('',*,*,#444,.T.);
#636=ORIENTED_EDGE('',*,*,#430,.F.);
#637=ORIENTED_EDGE('',*,*,#444,.F.);
#638=ORIENTED_EDGE('',*,*,#436,.F.);
#639=ORIENTED_EDGE('',*,*,#445,.T.);
#640=ORIENTED_EDGE('',*,*,#429,.F.);
#641=ORIENTED_EDGE('',*,*,#445,.F.);
#642=CYLINDRICAL_SURFACE('',#707,1.5);
#643=CYLINDRICAL_SURFACE('',#710,23.25);
#644=CYLINDRICAL_SURFACE('',#715,22.);
#645=CYLINDRICAL_SURFACE('',#719,1.5);
#646=CYLINDRICAL_SURFACE('',#720,1.5);
#647=CYLINDRICAL_SURFACE('',#721,1.5);
#648=CYLINDRICAL_SURFACE('',#722,1.5);
#649=CYLINDRICAL_SURFACE('',#735,7.5);
#650=CYLINDRICAL_SURFACE('',#752,17.2);
#651=CYLINDRICAL_SURFACE('',#754,19.15);
#652=CYLINDRICAL_SURFACE('',#762,29.);
#653=CYLINDRICAL_SURFACE('',#771,1.5);
#654=CYLINDRICAL_SURFACE('',#772,1.5);
#655=CYLINDRICAL_SURFACE('',#773,1.5);
#656=CYLINDRICAL_SURFACE('',#774,1.5);
#657=CYLINDRICAL_SURFACE('',#775,1.5);
#658=ADVANCED_FACE('',(#71),#642,.F.);
#659=ADVANCED_FACE('',(#72),#643,.F.);
#660=ADVANCED_FACE('',(#73,#37),#54,.F.);
#661=ADVANCED_FACE('',(#74),#644,.T.);
#662=ADVANCED_FACE('',(#75,#38),#55,.F.);
#663=ADVANCED_FACE('',(#76),#645,.F.);
#664=ADVANCED_FACE('',(#77),#646,.F.);
#665=ADVANCED_FACE('',(#78),#647,.F.);
#666=ADVANCED_FACE('',(#79),#648,.F.);
#667=ADVANCED_FACE('',(#80),#19,.T.);
#668=ADVANCED_FACE('',(#81),#56,.T.);
#669=ADVANCED_FACE('',(#82),#57,.F.);
#670=ADVANCED_FACE('',(#83),#20,.T.);
#671=ADVANCED_FACE('',(#84),#58,.T.);
#672=ADVANCED_FACE('',(#85),#59,.F.);
#673=ADVANCED_FACE('',(#86),#649,.F.);
#674=ADVANCED_FACE('',(#87),#60,.F.);
#675=ADVANCED_FACE('',(#88),#61,.F.);
#676=ADVANCED_FACE('',(#89),#62,.F.);
#677=ADVANCED_FACE('',(#90),#63,.F.);
#678=ADVANCED_FACE('',(#91),#64,.F.);
#679=ADVANCED_FACE('',(#92),#65,.F.);
#680=ADVANCED_FACE('',(#93),#66,.T.);
#681=ADVANCED_FACE('',(#94),#67,.T.);
#682=ADVANCED_FACE('',(#95),#650,.F.);
#683=ADVANCED_FACE('',(#96),#651,.T.);
#684=ADVANCED_FACE('',(#97,#39,#40,#41,#42,#43,#44,#45),#68,.F.);
#685=ADVANCED_FACE('',(#98),#652,.T.);
#686=ADVANCED_FACE('',(#99,#46,#47,#48,#49,#50,#51,#52),#69,.T.);
#687=ADVANCED_FACE('',(#100,#53),#70,.F.);
#688=ADVANCED_FACE('',(#101),#653,.F.);
#689=ADVANCED_FACE('',(#102),#654,.F.);
#690=ADVANCED_FACE('',(#103),#655,.F.);
#691=ADVANCED_FACE('',(#104),#656,.F.);
#692=ADVANCED_FACE('',(#105),#657,.F.);
#693=CLOSED_SHELL('',(#658,#659,#660,#661,#662,#663,#664,#665,#666,#667,
#668,#669,#670,#671,#672,#673,#674,#675,#676,#677,#678,#679,#680,#681,#682,
#683,#684,#685,#686,#687,#688,#689,#690,#691,#692));
#694=DERIVED_UNIT_ELEMENT(#696,1.);
#695=DERIVED_UNIT_ELEMENT(#1319,-3.);
#696=(
MASS_UNIT()
NAMED_UNIT(*)
SI_UNIT(.KILO.,.GRAM.)
);
#697=DERIVED_UNIT((#694,#695));
#698=MEASURE_REPRESENTATION_ITEM('density measure',
POSITIVE_RATIO_MEASURE(7850.),#697);
#699=PROPERTY_DEFINITION_REPRESENTATION(#704,#701);
#700=PROPERTY_DEFINITION_REPRESENTATION(#705,#702);
#701=REPRESENTATION('material name',(#703),#1316);
#702=REPRESENTATION('density',(#698),#1316);
#703=DESCRIPTIVE_REPRESENTATION_ITEM('Stal','Stal');
#704=PROPERTY_DEFINITION('material property','material name',#1326);
#705=PROPERTY_DEFINITION('material property','density of part',#1326);
#706=AXIS2_PLACEMENT_3D('',#960,#776,#777);
#707=AXIS2_PLACEMENT_3D('',#961,#778,#779);
#708=AXIS2_PLACEMENT_3D('',#963,#780,#781);
#709=AXIS2_PLACEMENT_3D('',#966,#783,#784);
#710=AXIS2_PLACEMENT_3D('',#967,#785,#786);
#711=AXIS2_PLACEMENT_3D('',#969,#787,#788);
#712=AXIS2_PLACEMENT_3D('',#972,#790,#791);
#713=AXIS2_PLACEMENT_3D('',#973,#792,#793);
#714=AXIS2_PLACEMENT_3D('',#975,#794,#795);
#715=AXIS2_PLACEMENT_3D('',#976,#796,#797);
#716=AXIS2_PLACEMENT_3D('',#978,#798,#799);
#717=AXIS2_PLACEMENT_3D('',#980,#801,#802);
#718=AXIS2_PLACEMENT_3D('',#982,#803,#804);
#719=AXIS2_PLACEMENT_3D('',#983,#805,#806);
#720=AXIS2_PLACEMENT_3D('',#1032,#809,#810);
#721=AXIS2_PLACEMENT_3D('',#1081,#813,#814);
#722=AXIS2_PLACEMENT_3D('',#1130,#817,#818);
#723=AXIS2_PLACEMENT_3D('',#1179,#821,#822);
#724=AXIS2_PLACEMENT_3D('',#1186,#823,#824);
#725=AXIS2_PLACEMENT_3D('',#1191,#825,#826);
#726=AXIS2_PLACEMENT_3D('',#1192,#827,#828);
#727=AXIS2_PLACEMENT_3D('',#1196,#830,#831);
#728=AXIS2_PLACEMENT_3D('',#1198,#833,#834);
#729=AXIS2_PLACEMENT_3D('',#1201,#837,#838);
#730=AXIS2_PLACEMENT_3D('',#1208,#839,#840);
#731=AXIS2_PLACEMENT_3D('',#1213,#841,#842);
#732=AXIS2_PLACEMENT_3D('',#1214,#843,#844);
#733=AXIS2_PLACEMENT_3D('',#1218,#846,#847);
#734=AXIS2_PLACEMENT_3D('',#1220,#849,#850);
#735=AXIS2_PLACEMENT_3D('',#1223,#853,#854);
#736=AXIS2_PLACEMENT_3D('',#1225,#855,#856);
#737=AXIS2_PLACEMENT_3D('',#1228,#858,#859);
#738=AXIS2_PLACEMENT_3D('',#1229,#860,#861);
#739=AXIS2_PLACEMENT_3D('',#1235,#865,#866);
#740=AXIS2_PLACEMENT_3D('',#1238,#869,#870);
#741=AXIS2_PLACEMENT_3D('',#1241,#873,#874);
#742=AXIS2_PLACEMENT_3D('',#1247,#878,#879);
#743=AXIS2_PLACEMENT_3D('',#1253,#883,#884);
#744=AXIS2_PLACEMENT_3D('',#1259,#888,#889);
#745=AXIS2_PLACEMENT_3D('',#1261,#890,#891);
#746=AXIS2_PLACEMENT_3D('',#1262,#892,#893);
#747=AXIS2_PLACEMENT_3D('',#1264,#894,#895);
#748=AXIS2_PLACEMENT_3D('',#1265,#896,#897);
#749=AXIS2_PLACEMENT_3D('',#1266,#898,#899);
#750=AXIS2_PLACEMENT_3D('',#1267,#900,#901);
#751=AXIS2_PLACEMENT_3D('',#1268,#902,#903);
#752=AXIS2_PLACEMENT_3D('',#1269,#904,#905);
#753=AXIS2_PLACEMENT_3D('',#1272,#907,#908);
#754=AXIS2_PLACEMENT_3D('',#1273,#909,#910);
#755=AXIS2_PLACEMENT_3D('',#1275,#912,#913);
#756=AXIS2_PLACEMENT_3D('',#1277,#914,#915);
#757=AXIS2_PLACEMENT_3D('',#1279,#916,#917);
#758=AXIS2_PLACEMENT_3D('',#1281,#918,#919);
#759=AXIS2_PLACEMENT_3D('',#1283,#920,#921);
#760=AXIS2_PLACEMENT_3D('',#1285,#922,#923);
#761=AXIS2_PLACEMENT_3D('',#1287,#924,#925);
#762=AXIS2_PLACEMENT_3D('',#1288,#926,#927);
#763=AXIS2_PLACEMENT_3D('',#1290,#928,#929);
#764=AXIS2_PLACEMENT_3D('',#1292,#931,#932);
#765=AXIS2_PLACEMENT_3D('',#1294,#933,#934);
#766=AXIS2_PLACEMENT_3D('',#1296,#935,#936);
#767=AXIS2_PLACEMENT_3D('',#1298,#937,#938);
#768=AXIS2_PLACEMENT_3D('',#1300,#939,#940);
#769=AXIS2_PLACEMENT_3D('',#1302,#941,#942);
#770=AXIS2_PLACEMENT_3D('',#1303,#943,#944);
#771=AXIS2_PLACEMENT_3D('',#1304,#945,#946);
#772=AXIS2_PLACEMENT_3D('',#1306,#948,#949);
#773=AXIS2_PLACEMENT_3D('',#1308,#951,#952);
#774=AXIS2_PLACEMENT_3D('',#1310,#954,#955);
#775=AXIS2_PLACEMENT_3D('',#1312,#957,#958);
#776=DIRECTION('axis',(0.,0.,1.));
#777=DIRECTION('refdir',(1.,0.,0.));
#778=DIRECTION('center_axis',(0.,1.,0.));
#779=DIRECTION('ref_axis',(1.,0.,0.));
#780=DIRECTION('center_axis',(0.,-1.,0.));
#781=DIRECTION('ref_axis',(1.,0.,0.));
#782=DIRECTION('',(0.,1.,0.));
#783=DIRECTION('center_axis',(0.,-1.,0.));
#784=DIRECTION('ref_axis',(1.,0.,0.));
#785=DIRECTION('center_axis',(0.,-1.,0.));
#786=DIRECTION('ref_axis',(1.,0.,0.));
#787=DIRECTION('center_axis',(0.,-1.,0.));
#788=DIRECTION('ref_axis',(1.,0.,0.));
#789=DIRECTION('',(0.,-1.,0.));
#790=DIRECTION('center_axis',(0.,-1.,0.));
#791=DIRECTION('ref_axis',(1.,0.,0.));
#792=DIRECTION('center_axis',(0.,-1.,0.));
#793=DIRECTION('ref_axis',(0.,0.,-1.));
#794=DIRECTION('center_axis',(0.,-1.,0.));
#795=DIRECTION('ref_axis',(1.,0.,0.));
#796=DIRECTION('center_axis',(0.,-1.,0.));
#797=DIRECTION('ref_axis',(1.,0.,0.));
#798=DIRECTION('center_axis',(0.,1.,0.));
#799=DIRECTION('ref_axis',(1.,0.,0.));
#800=DIRECTION('',(0.,-1.,0.));
#801=DIRECTION('center_axis',(0.,-1.,0.));
#802=DIRECTION('ref_axis',(1.,0.,0.));
#803=DIRECTION('center_axis',(0.,1.,0.));
#804=DIRECTION('ref_axis',(-1.,0.,0.));
#805=DIRECTION('center_axis',(0.946446595036712,0.,0.322860407519122));
#806=DIRECTION('ref_axis',(0.228296783533424,-0.707106781186548,-0.669238805381377));
#807=DIRECTION('',(0.946446595036712,0.,0.322860407519121));
#808=DIRECTION('',(-0.946446595036712,0.,-0.322860407519122));
#809=DIRECTION('center_axis',(-0.946446595036713,0.,0.322860407519121));
#810=DIRECTION('ref_axis',(0.228296783533422,-0.707106781186548,0.669238805381377));
#811=DIRECTION('',(-0.946446595036713,0.,0.322860407519121));
#812=DIRECTION('',(0.946446595036713,0.,-0.322860407519121));
#813=DIRECTION('center_axis',(-0.946446595036712,0.,-0.322860407519122));
#814=DIRECTION('ref_axis',(-0.228296783533424,-0.707106781186548,0.669238805381377));
#815=DIRECTION('',(-0.946446595036712,0.,-0.322860407519121));
#816=DIRECTION('',(0.946446595036712,0.,0.322860407519122));
#817=DIRECTION('center_axis',(0.946446595036712,0.,-0.322860407519122));
#818=DIRECTION('ref_axis',(-0.228296783533424,-0.707106781186548,-0.669238805381377));
#819=DIRECTION('',(0.946446595036712,0.,-0.322860407519121));
#820=DIRECTION('',(-0.946446595036712,0.,0.322860407519122));
#821=DIRECTION('center_axis',(0.,-1.,0.));
#822=DIRECTION('ref_axis',(-1.,0.,0.));
#823=DIRECTION('center_axis',(0.,-1.,0.));
#824=DIRECTION('ref_axis',(-1.,0.,0.));
#825=DIRECTION('center_axis',(0.,-1.,0.));
#826=DIRECTION('ref_axis',(-1.,0.,0.));
#827=DIRECTION('center_axis',(0.,1.,0.));
#828=DIRECTION('ref_axis',(-1.,0.,0.));
#829=DIRECTION('',(0.946446595036712,0.,0.322860407519121));
#830=DIRECTION('center_axis',(0.,1.,0.));
#831=DIRECTION('ref_axis',(-1.,0.,0.));
#832=DIRECTION('',(0.946446595036713,0.,-0.322860407519121));
#833=DIRECTION('center_axis',(0.322860407519121,0.,-0.946446595036713));
#834=DIRECTION('ref_axis',(0.946446595036712,0.,0.322860407519121));
#835=DIRECTION('',(0.,-1.,0.));
#836=DIRECTION('',(0.,1.,0.));
#837=DIRECTION('center_axis',(0.,-1.,0.));
#838=DIRECTION('ref_axis',(-1.,0.,0.));
#839=DIRECTION('center_axis',(0.,-1.,0.));
#840=DIRECTION('ref_axis',(-1.,0.,0.));
#841=DIRECTION('center_axis',(0.,-1.,0.));
#842=DIRECTION('ref_axis',(-1.,0.,0.));
#843=DIRECTION('center_axis',(0.,1.,0.));
#844=DIRECTION('ref_axis',(-1.,0.,0.));
#845=DIRECTION('',(-0.946446595036712,0.,-0.322860407519121));
#846=DIRECTION('center_axis',(0.,1.,0.));
#847=DIRECTION('ref_axis',(-1.,0.,0.));
#848=DIRECTION('',(-0.946446595036712,0.,0.322860407519121));
#849=DIRECTION('center_axis',(-0.322860407519121,0.,0.946446595036713));
#850=DIRECTION('ref_axis',(-0.946446595036712,0.,-0.322860407519121));
#851=DIRECTION('',(0.,-1.,0.));
#852=DIRECTION('',(0.,1.,0.));
#853=DIRECTION('center_axis',(0.,1.,0.));
#854=DIRECTION('ref_axis',(1.,0.,0.));
#855=DIRECTION('center_axis',(0.,-1.,0.));
#856=DIRECTION('ref_axis',(1.,0.,0.));
#857=DIRECTION('',(0.,1.,0.));
#858=DIRECTION('center_axis',(0.,-1.,0.));
#859=DIRECTION('ref_axis',(1.,0.,0.));
#860=DIRECTION('center_axis',(-0.322860407519122,0.,-0.946446595036712));
#861=DIRECTION('ref_axis',(0.946446595036712,0.,-0.322860407519122));
#862=DIRECTION('',(0.,1.,0.));
#863=DIRECTION('',(0.946446595036712,0.,-0.322860407519122));
#864=DIRECTION('',(0.,-1.,0.));
#865=DIRECTION('center_axis',(0.322860407519121,0.,0.946446595036713));
#866=DIRECTION('ref_axis',(-0.946446595036712,0.,0.322860407519121));
#867=DIRECTION('',(0.,-1.,0.));
#868=DIRECTION('',(0.,1.,0.));
#869=DIRECTION('center_axis',(-0.322860407519121,0.,-0.946446595036713));
#870=DIRECTION('ref_axis',(0.946446595036713,0.,-0.322860407519121));
#871=DIRECTION('',(0.,-1.,0.));
#872=DIRECTION('',(0.,1.,0.));
#873=DIRECTION('center_axis',(0.322860407519121,0.,0.946446595036713));
#874=DIRECTION('ref_axis',(-0.946446595036713,0.,0.322860407519121));
#875=DIRECTION('',(0.,1.,0.));
#876=DIRECTION('',(-0.946446595036713,0.,0.322860407519121));
#877=DIRECTION('',(0.,-1.,0.));
#878=DIRECTION('center_axis',(-0.322860407519122,0.,0.946446595036712));
#879=DIRECTION('ref_axis',(-0.946446595036712,0.,-0.322860407519122));
#880=DIRECTION('',(0.,1.,0.));
#881=DIRECTION('',(-0.946446595036712,0.,-0.322860407519122));
#882=DIRECTION('',(0.,-1.,0.));
#883=DIRECTION('center_axis',(0.322860407519122,0.,-0.946446595036712));
#884=DIRECTION('ref_axis',(0.946446595036712,0.,0.322860407519122));
#885=DIRECTION('',(0.,1.,0.));
#886=DIRECTION('',(0.946446595036712,0.,0.322860407519122));
#887=DIRECTION('',(0.,-1.,0.));
#888=DIRECTION('center_axis',(0.,1.,0.));
#889=DIRECTION('ref_axis',(-1.,0.,0.));
#890=DIRECTION('center_axis',(0.,1.,0.));
#891=DIRECTION('ref_axis',(-1.,0.,0.));
#892=DIRECTION('center_axis',(0.,1.,0.));
#893=DIRECTION('ref_axis',(-1.,0.,0.));
#894=DIRECTION('center_axis',(0.,-1.,0.));
#895=DIRECTION('ref_axis',(-1.,0.,0.));
#896=DIRECTION('center_axis',(0.,-1.,0.));
#897=DIRECTION('ref_axis',(-1.,0.,0.));
#898=DIRECTION('center_axis',(0.,1.,0.));
#899=DIRECTION('ref_axis',(-1.,0.,0.));
#900=DIRECTION('center_axis',(0.,1.,0.));
#901=DIRECTION('ref_axis',(-1.,0.,0.));
#902=DIRECTION('center_axis',(0.,-1.,0.));
#903=DIRECTION('ref_axis',(-1.,0.,0.));
#904=DIRECTION('center_axis',(0.,1.,0.));
#905=DIRECTION('ref_axis',(-1.,0.,0.));
#906=DIRECTION('',(0.,-1.,0.));
#907=DIRECTION('center_axis',(0.,-1.,0.));
#908=DIRECTION('ref_axis',(-1.,0.,0.));
#909=DIRECTION('center_axis',(0.,1.,0.));
#910=DIRECTION('ref_axis',(-1.,0.,0.));
#911=DIRECTION('',(0.,-1.,0.));
#912=DIRECTION('center_axis',(0.,-1.,0.));
#913=DIRECTION('ref_axis',(1.,0.,0.));
#914=DIRECTION('center_axis',(0.,1.,0.));
#915=DIRECTION('ref_axis',(1.,0.,0.));
#916=DIRECTION('center_axis',(0.,-1.,0.));
#917=DIRECTION('ref_axis',(0.499999999999999,0.,0.866025403784439));
#918=DIRECTION('center_axis',(0.,-1.,0.));
#919=DIRECTION('ref_axis',(-0.500000000000001,0.,0.866025403784438));
#920=DIRECTION('center_axis',(0.,-1.,0.));
#921=DIRECTION('ref_axis',(-1.,0.,-1.22464679914735E-16));
#922=DIRECTION('center_axis',(0.,-1.,0.));
#923=DIRECTION('ref_axis',(-0.5,0.,-0.866025403784439));
#924=DIRECTION('center_axis',(0.,-1.,0.));
#925=DIRECTION('ref_axis',(0.5,0.,-0.866025403784439));
#926=DIRECTION('center_axis',(0.,-1.,0.));
#927=DIRECTION('ref_axis',(1.,0.,0.));
#928=DIRECTION('center_axis',(0.,-1.,0.));
#929=DIRECTION('ref_axis',(1.,0.,0.));
#930=DIRECTION('',(0.,1.,0.));
#931=DIRECTION('center_axis',(0.,-1.,0.));
#932=DIRECTION('ref_axis',(1.,0.,0.));
#933=DIRECTION('center_axis',(0.,-1.,0.));
#934=DIRECTION('ref_axis',(0.499999999999999,0.,0.866025403784439));
#935=DIRECTION('center_axis',(0.,-1.,0.));
#936=DIRECTION('ref_axis',(-0.500000000000001,0.,0.866025403784438));
#937=DIRECTION('center_axis',(0.,-1.,0.));
#938=DIRECTION('ref_axis',(-1.,0.,-1.22464679914735E-16));
#939=DIRECTION('center_axis',(0.,-1.,0.));
#940=DIRECTION('ref_axis',(-0.5,0.,-0.866025403784439));
#941=DIRECTION('center_axis',(0.,-1.,0.));
#942=DIRECTION('ref_axis',(0.5,0.,-0.866025403784439));
#943=DIRECTION('center_axis',(0.,-1.,0.));
#944=DIRECTION('ref_axis',(1.,0.,0.));
#945=DIRECTION('center_axis',(0.,1.,0.));
#946=DIRECTION('ref_axis',(0.5,0.,-0.866025403784439));
#947=DIRECTION('',(0.,1.,0.));
#948=DIRECTION('center_axis',(0.,1.,0.));
#949=DIRECTION('ref_axis',(-0.5,0.,-0.866025403784439));
#950=DIRECTION('',(0.,1.,0.));
#951=DIRECTION('center_axis',(0.,1.,0.));
#952=DIRECTION('ref_axis',(-1.,0.,-1.22464679914735E-16));
#953=DIRECTION('',(0.,1.,0.));
#954=DIRECTION('center_axis',(0.,1.,0.));
#955=DIRECTION('ref_axis',(-0.500000000000001,0.,0.866025403784438));
#956=DIRECTION('',(0.,1.,0.));
#957=DIRECTION('center_axis',(0.,1.,0.));
#958=DIRECTION('ref_axis',(0.499999999999999,0.,0.866025403784439));
#959=DIRECTION('',(0.,1.,0.));
#960=CARTESIAN_POINT('',(0.,0.,0.));
#961=CARTESIAN_POINT('Origin',(25.6528169727249,-71.5,0.0090618458815456));
#962=CARTESIAN_POINT('',(24.1528169727249,-72.5,0.00906184588154541));
#963=CARTESIAN_POINT('Origin',(25.6528169727249,-72.5,0.0090618458815456));
#964=CARTESIAN_POINT('',(24.1528169727249,-70.,0.00906184588154541));
#965=CARTESIAN_POINT('',(24.1528169727249,-71.5,0.00906184588154578));
#966=CARTESIAN_POINT('Origin',(25.6528169727249,-70.,0.0090618458815456));
#967=CARTESIAN_POINT('Origin',(0.,-69.9536586579687,0.));
#968=CARTESIAN_POINT('',(-23.25,-70.,-2.8473038080176E-15));
#969=CARTESIAN_POINT('Origin',(0.,-70.,0.));
#970=CARTESIAN_POINT('',(-23.25,-70.3536586579687,-2.8473038080176E-15));
#971=CARTESIAN_POINT('',(-23.25,-69.9536586579687,-2.8473038080176E-15));
#972=CARTESIAN_POINT('Origin',(0.,-70.3536586579687,0.));
#973=CARTESIAN_POINT('Origin',(22.,-70.3536586579687,0.));
#974=CARTESIAN_POINT('',(-22.,-70.3536586579687,-2.69422295812418E-15));
#975=CARTESIAN_POINT('Origin',(0.,-70.3536586579687,0.));
#976=CARTESIAN_POINT('Origin',(0.,-69.9536586579687,0.));
#977=CARTESIAN_POINT('',(-22.,-70.,2.69422295812418E-15));
#978=CARTESIAN_POINT('Origin',(0.,-70.,0.));
#979=CARTESIAN_POINT('',(-22.,-69.9536586579687,-2.69422295812418E-15));
#980=CARTESIAN_POINT('Origin',(0.,-70.,0.));
#981=CARTESIAN_POINT('',(19.15,-70.,-2.34519862036718E-15));
#982=CARTESIAN_POINT('Origin',(0.,-70.,0.));
#983=CARTESIAN_POINT('Origin',(16.8883085503107,-61.5,7.34596776756568));
#984=CARTESIAN_POINT('',(16.2788814346315,-61.5,5.5531990093289));
#985=CARTESIAN_POINT('',(15.7325684606551,-63.,6.95171127354986));
#986=CARTESIAN_POINT('Ctrl Pts',(16.2788814346315,-61.5,5.5531990093289));
#987=CARTESIAN_POINT('Ctrl Pts',(16.2788814346315,-61.6883529240042,5.5531990093289));
#988=CARTESIAN_POINT('Ctrl Pts',(16.266849616984,-61.8892585993633,5.58886954268921));
#989=CARTESIAN_POINT('Ctrl Pts',(16.2164616996577,-62.2588305932575,5.7334308378049));
#990=CARTESIAN_POINT('Ctrl Pts',(16.1779382414372,-62.4274962749146,5.84226483966594));
#991=CARTESIAN_POINT('Ctrl Pts',(16.0854393807398,-62.694030264097,6.0923262489031));
#992=CARTESIAN_POINT('Ctrl Pts',(16.0252496017,-62.809527994124,6.25025136176284));
#993=CARTESIAN_POINT('Ctrl Pts',(15.8870179079726,-62.9625081228524,6.59370372968372));
#994=CARTESIAN_POINT('Ctrl Pts',(15.808812799357,-63.,6.77916105804688));
#995=CARTESIAN_POINT('Ctrl Pts',(15.7325684606551,-63.,6.95171127354986));
#996=CARTESIAN_POINT('',(15.0607709274043,-61.5,8.30741711197017));
#997=CARTESIAN_POINT('Ctrl Pts',(15.7325684606551,-63.,6.95171127354986));
#998=CARTESIAN_POINT('Ctrl Pts',(15.6558676761904,-63.,7.12529448135191));
#999=CARTESIAN_POINT('Ctrl Pts',(15.5709108936221,-62.9621054347487,7.30899851611854));
#1000=CARTESIAN_POINT('Ctrl Pts',(15.4089008986767,-62.8084489964732,7.64463854359854));
#1001=CARTESIAN_POINT('Ctrl Pts',(15.3320032446558,-62.6926992225542,7.796655138747));
#1002=CARTESIAN_POINT('Ctrl Pts',(15.2084015973373,-62.4263400664869,8.03507480286619));
#1003=CARTESIAN_POINT('Ctrl Pts',(15.1532967047699,-62.2581892095485,8.13778832067212));
#1004=CARTESIAN_POINT('Ctrl Pts',(15.0793882639231,-61.8892649040606,8.27393796219536));
#1005=CARTESIAN_POINT('Ctrl Pts',(15.0607709274043,-61.6884700543931,8.30741711197017));
#1006=CARTESIAN_POINT('Ctrl Pts',(15.0607709274043,-61.5,8.30741711197017));
#1007=CARTESIAN_POINT('',(16.9320869375064,-61.5,8.94577732456641));
#1008=CARTESIAN_POINT('',(17.0780185471781,-61.5,8.99555883280535));
#1009=CARTESIAN_POINT('',(17.5844754890449,-63.,7.58345051906984));
#1010=CARTESIAN_POINT('Ctrl Pts',(16.9320869375064,-61.5,8.94577732456641));
#1011=CARTESIAN_POINT('Ctrl Pts',(16.9320869375064,-61.6884444977237,8.94577732456641));
#1012=CARTESIAN_POINT('Ctrl Pts',(16.950024591505,-61.88925935381,8.91207822194971));
#1013=CARTESIAN_POINT('Ctrl Pts',(17.0213989545185,-62.2583098018046,8.77498999911737));
#1014=CARTESIAN_POINT('Ctrl Pts',(17.0746712282781,-62.4265624731716,8.67156129814684));
#1015=CARTESIAN_POINT('Ctrl Pts',(17.1944091785037,-62.6929219748454,8.43165853404944));
#1016=CARTESIAN_POINT('Ctrl Pts',(17.2689804668336,-62.8086114633738,8.27885410899507));
#1017=CARTESIAN_POINT('Ctrl Pts',(17.4265639994601,-62.962155309974,7.94178688288432));
#1018=CARTESIAN_POINT('Ctrl Pts',(17.5094351613415,-63.,7.75745373829995));
#1019=CARTESIAN_POINT('Ctrl Pts',(17.5844754890449,-63.,7.58345051906984));
#1020=CARTESIAN_POINT('',(18.124452294953,-61.5,6.18277680399119));
#1021=CARTESIAN_POINT('Ctrl Pts',(17.5844754890449,-63.,7.58345051906984));
#1022=CARTESIAN_POINT('Ctrl Pts',(17.6591561088497,-63.,7.41028138911212));
#1023=CARTESIAN_POINT('Ctrl Pts',(17.7360009227704,-62.9624793347606,7.22433488778532));
#1024=CARTESIAN_POINT('Ctrl Pts',(17.8722957085343,-62.8094797346441,6.88024631893679));
#1025=CARTESIAN_POINT('Ctrl Pts',(17.9318926256123,-62.6939931770103,6.72216586494058));
#1026=CARTESIAN_POINT('Ctrl Pts',(18.02372299922,-62.4274933818678,6.47191254421551));
#1027=CARTESIAN_POINT('Ctrl Pts',(18.0621188184393,-62.2588265417571,6.36303566377366));
#1028=CARTESIAN_POINT('Ctrl Pts',(18.1124083044921,-61.8892551301877,6.21844228725821));
#1029=CARTESIAN_POINT('Ctrl Pts',(18.124452294953,-61.6883510725241,6.18277680399119));
#1030=CARTESIAN_POINT('Ctrl Pts',(18.124452294953,-61.5,6.18277680399119));
#1031=CARTESIAN_POINT('',(17.3725991615894,-61.5,5.92629787501061));
#1032=CARTESIAN_POINT('Origin',(17.5744823317123,-61.5,-7.58004156301705));
#1033=CARTESIAN_POINT('',(18.124452294953,-61.5,-6.18277680399119));
#1034=CARTESIAN_POINT('',(17.5844754890449,-63.,-7.58345051906984));
#1035=CARTESIAN_POINT('Ctrl Pts',(18.124452294953,-61.5,-6.18277680399119));
#1036=CARTESIAN_POINT('Ctrl Pts',(18.124452294953,-61.6883510725241,-6.18277680399119));
#1037=CARTESIAN_POINT('Ctrl Pts',(18.1124083044921,-61.8892551301877,-6.21844228725822));
#1038=CARTESIAN_POINT('Ctrl Pts',(18.0621188184393,-62.2588265417571,-6.36303566377366));
#1039=CARTESIAN_POINT('Ctrl Pts',(18.02372299922,-62.4274933818678,-6.47191254421551));
#1040=CARTESIAN_POINT('Ctrl Pts',(17.9318926256123,-62.6939931770103,-6.72216586494058));
#1041=CARTESIAN_POINT('Ctrl Pts',(17.8722957085343,-62.8094797346441,-6.8802463189368));
#1042=CARTESIAN_POINT('Ctrl Pts',(17.7360009227704,-62.9624793347606,-7.22433488778532));
#1043=CARTESIAN_POINT('Ctrl Pts',(17.6591561088497,-63.,-7.41028138911212));
#1044=CARTESIAN_POINT('Ctrl Pts',(17.5844754890449,-63.,-7.58345051906984));
#1045=CARTESIAN_POINT('',(16.9320869375064,-61.5,-8.94577732456641));
#1046=CARTESIAN_POINT('Ctrl Pts',(17.5844754890449,-63.,-7.58345051906984));
#1047=CARTESIAN_POINT('Ctrl Pts',(17.5094351613415,-63.,-7.75745373829995));
#1048=CARTESIAN_POINT('Ctrl Pts',(17.4265639994601,-62.962155309974,-7.94178688288431));
#1049=CARTESIAN_POINT('Ctrl Pts',(17.2689804668336,-62.8086114633738,-8.27885410899507));
#1050=CARTESIAN_POINT('Ctrl Pts',(17.1944091785037,-62.6929219748454,-8.43165853404944));
#1051=CARTESIAN_POINT('Ctrl Pts',(17.0746712282781,-62.4265624731716,-8.67156129814684));
#1052=CARTESIAN_POINT('Ctrl Pts',(17.0213989545185,-62.2583098018045,-8.77498999911736));
#1053=CARTESIAN_POINT('Ctrl Pts',(16.950024591505,-61.88925935381,-8.91207822194971));
#1054=CARTESIAN_POINT('Ctrl Pts',(16.9320869375064,-61.6884444977237,-8.94577732456641));
#1055=CARTESIAN_POINT('Ctrl Pts',(16.9320869375064,-61.5,-8.94577732456641));
#1056=CARTESIAN_POINT('',(15.0607709274043,-61.5,-8.30741711197017));
#1057=CARTESIAN_POINT('',(16.3908626889339,-61.5,-8.76115002243474));
#1058=CARTESIAN_POINT('',(15.7325684606551,-63.,-6.95171127354986));
#1059=CARTESIAN_POINT('Ctrl Pts',(15.0607709274043,-61.5,-8.30741711197017));
#1060=CARTESIAN_POINT('Ctrl Pts',(15.0607709274043,-61.6884700543931,-8.30741711197017));
#1061=CARTESIAN_POINT('Ctrl Pts',(15.0793882639231,-61.8892649040606,-8.27393796219536));
#1062=CARTESIAN_POINT('Ctrl Pts',(15.1532967047699,-62.2581892095486,-8.13778832067211));
#1063=CARTESIAN_POINT('Ctrl Pts',(15.2084015973373,-62.426340066487,-8.03507480286619));
#1064=CARTESIAN_POINT('Ctrl Pts',(15.3320032446558,-62.6926992225542,-7.796655138747));
#1065=CARTESIAN_POINT('Ctrl Pts',(15.4089008986767,-62.8084489964732,-7.64463854359854));
#1066=CARTESIAN_POINT('Ctrl Pts',(15.5709108936221,-62.9621054347487,-7.30899851611853));
#1067=CARTESIAN_POINT('Ctrl Pts',(15.6558676761904,-63.,-7.1252944813519));
#1068=CARTESIAN_POINT('Ctrl Pts',(15.7325684606551,-63.,-6.95171127354986));
#1069=CARTESIAN_POINT('',(16.2788814346315,-61.5,-5.5531990093289));
#1070=CARTESIAN_POINT('Ctrl Pts',(15.7325684606551,-63.,-6.95171127354986));
#1071=CARTESIAN_POINT('Ctrl Pts',(15.808812799357,-63.,-6.77916105804688));
#1072=CARTESIAN_POINT('Ctrl Pts',(15.8870179079726,-62.9625081228524,-6.59370372968372));
#1073=CARTESIAN_POINT('Ctrl Pts',(16.0252496017,-62.809527994124,-6.25025136176285));
#1074=CARTESIAN_POINT('Ctrl Pts',(16.0854393807398,-62.694030264097,-6.0923262489031));
#1075=CARTESIAN_POINT('Ctrl Pts',(16.1779382414372,-62.4274962749146,-5.84226483966594));
#1076=CARTESIAN_POINT('Ctrl Pts',(16.2164616996577,-62.2588305932575,-5.7334308378049));
#1077=CARTESIAN_POINT('Ctrl Pts',(16.266849616984,-61.8892585993633,-5.58886954268921));
#1078=CARTESIAN_POINT('Ctrl Pts',(16.2788814346315,-61.6883529240042,-5.5531990093289));
#1079=CARTESIAN_POINT('Ctrl Pts',(16.2788814346315,-61.5,-5.5531990093289));
#1080=CARTESIAN_POINT('',(18.058772942991,-61.5,-6.16037167046198));
#1081=CARTESIAN_POINT('Origin',(-16.8883085503107,-61.5,-7.34596776756568));
#1082=CARTESIAN_POINT('',(-16.2788814346315,-61.5,-5.5531990093289));
#1083=CARTESIAN_POINT('',(-15.7325684606551,-63.,-6.95171127354986));
#1084=CARTESIAN_POINT('Ctrl Pts',(-16.2788814346315,-61.5,-5.5531990093289));
#1085=CARTESIAN_POINT('Ctrl Pts',(-16.2788814346315,-61.6883529240042,-5.5531990093289));
#1086=CARTESIAN_POINT('Ctrl Pts',(-16.266849616984,-61.8892585993633,-5.58886954268921));
#1087=CARTESIAN_POINT('Ctrl Pts',(-16.2164616996577,-62.2588305932575,-5.7334308378049));
#1088=CARTESIAN_POINT('Ctrl Pts',(-16.1779382414372,-62.4274962749146,-5.84226483966594));
#1089=CARTESIAN_POINT('Ctrl Pts',(-16.0854393807398,-62.694030264097,-6.0923262489031));
#1090=CARTESIAN_POINT('Ctrl Pts',(-16.0252496017,-62.809527994124,-6.25025136176284));
#1091=CARTESIAN_POINT('Ctrl Pts',(-15.8870179079726,-62.9625081228524,-6.59370372968372));
#1092=CARTESIAN_POINT('Ctrl Pts',(-15.808812799357,-63.,-6.77916105804688));
#1093=CARTESIAN_POINT('Ctrl Pts',(-15.7325684606551,-63.,-6.95171127354986));
#1094=CARTESIAN_POINT('',(-15.0607709274043,-61.5,-8.30741711197017));
#1095=CARTESIAN_POINT('Ctrl Pts',(-15.7325684606551,-63.,-6.95171127354986));
#1096=CARTESIAN_POINT('Ctrl Pts',(-15.6558676761904,-63.,-7.12529448135191));
#1097=CARTESIAN_POINT('Ctrl Pts',(-15.5709108936221,-62.9621054347487,-7.30899851611854));
#1098=CARTESIAN_POINT('Ctrl Pts',(-15.4089008986767,-62.8084489964732,-7.64463854359854));
#1099=CARTESIAN_POINT('Ctrl Pts',(-15.3320032446558,-62.6926992225542,-7.796655138747));
#1100=CARTESIAN_POINT('Ctrl Pts',(-15.2084015973373,-62.4263400664869,-8.03507480286619));
#1101=CARTESIAN_POINT('Ctrl Pts',(-15.1532967047699,-62.2581892095485,-8.13778832067212));
#1102=CARTESIAN_POINT('Ctrl Pts',(-15.0793882639231,-61.8892649040606,-8.27393796219536));
#1103=CARTESIAN_POINT('Ctrl Pts',(-15.0607709274043,-61.6884700543931,-8.30741711197017));
#1104=CARTESIAN_POINT('Ctrl Pts',(-15.0607709274043,-61.5,-8.30741711197017));
#1105=CARTESIAN_POINT('',(-16.9320869375064,-61.5,-8.94577732456641));
#1106=CARTESIAN_POINT('',(-17.0780185471781,-61.5,-8.99555883280535));
#1107=CARTESIAN_POINT('',(-17.5844754890449,-63.,-7.58345051906984));
#1108=CARTESIAN_POINT('Ctrl Pts',(-16.9320869375064,-61.5,-8.94577732456641));
#1109=CARTESIAN_POINT('Ctrl Pts',(-16.9320869375064,-61.6884444977237,-8.94577732456641));
#1110=CARTESIAN_POINT('Ctrl Pts',(-16.950024591505,-61.88925935381,-8.91207822194971));
#1111=CARTESIAN_POINT('Ctrl Pts',(-17.0213989545185,-62.2583098018046,-8.77498999911737));
#1112=CARTESIAN_POINT('Ctrl Pts',(-17.0746712282781,-62.4265624731716,-8.67156129814684));
#1113=CARTESIAN_POINT('Ctrl Pts',(-17.1944091785037,-62.6929219748454,-8.43165853404944));
#1114=CARTESIAN_POINT('Ctrl Pts',(-17.2689804668336,-62.8086114633738,-8.27885410899507));
#1115=CARTESIAN_POINT('Ctrl Pts',(-17.4265639994601,-62.962155309974,-7.94178688288432));
#1116=CARTESIAN_POINT('Ctrl Pts',(-17.5094351613415,-63.,-7.75745373829995));
#1117=CARTESIAN_POINT('Ctrl Pts',(-17.5844754890449,-63.,-7.58345051906984));
#1118=CARTESIAN_POINT('',(-18.124452294953,-61.5,-6.18277680399119));
#1119=CARTESIAN_POINT('Ctrl Pts',(-17.5844754890449,-63.,-7.58345051906984));
#1120=CARTESIAN_POINT('Ctrl Pts',(-17.6591561088497,-63.,-7.41028138911212));
#1121=CARTESIAN_POINT('Ctrl Pts',(-17.7360009227704,-62.9624793347606,-7.22433488778532));
#1122=CARTESIAN_POINT('Ctrl Pts',(-17.8722957085343,-62.8094797346441,-6.88024631893679));
#1123=CARTESIAN_POINT('Ctrl Pts',(-17.9318926256123,-62.6939931770103,-6.72216586494058));
#1124=CARTESIAN_POINT('Ctrl Pts',(-18.02372299922,-62.4274933818678,-6.47191254421551));
#1125=CARTESIAN_POINT('Ctrl Pts',(-18.0621188184393,-62.2588265417571,-6.36303566377366));
#1126=CARTESIAN_POINT('Ctrl Pts',(-18.1124083044921,-61.8892551301877,-6.21844228725821));
#1127=CARTESIAN_POINT('Ctrl Pts',(-18.124452294953,-61.6883510725241,-6.18277680399119));
#1128=CARTESIAN_POINT('Ctrl Pts',(-18.124452294953,-61.5,-6.18277680399119));
#1129=CARTESIAN_POINT('',(-17.3725991615894,-61.5,-5.92629787501061));
#1130=CARTESIAN_POINT('Origin',(-17.5744823317123,-61.5,7.58004156301705));
#1131=CARTESIAN_POINT('',(-18.124452294953,-61.5,6.18277680399119));
#1132=CARTESIAN_POINT('',(-17.5844754890449,-63.,7.58345051906984));
#1133=CARTESIAN_POINT('Ctrl Pts',(-18.124452294953,-61.5,6.18277680399119));
#1134=CARTESIAN_POINT('Ctrl Pts',(-18.124452294953,-61.6883510725241,6.18277680399119));
#1135=CARTESIAN_POINT('Ctrl Pts',(-18.1124083044921,-61.8892551301877,6.21844228725822));
#1136=CARTESIAN_POINT('Ctrl Pts',(-18.0621188184393,-62.2588265417571,6.36303566377366));
#1137=CARTESIAN_POINT('Ctrl Pts',(-18.02372299922,-62.4274933818678,6.47191254421551));
#1138=CARTESIAN_POINT('Ctrl Pts',(-17.9318926256123,-62.6939931770103,6.72216586494058));
#1139=CARTESIAN_POINT('Ctrl Pts',(-17.8722957085343,-62.8094797346441,6.8802463189368));
#1140=CARTESIAN_POINT('Ctrl Pts',(-17.7360009227704,-62.9624793347606,7.22433488778532));
#1141=CARTESIAN_POINT('Ctrl Pts',(-17.6591561088497,-63.,7.41028138911212));
#1142=CARTESIAN_POINT('Ctrl Pts',(-17.5844754890449,-63.,7.58345051906984));
#1143=CARTESIAN_POINT('',(-16.9320869375064,-61.5,8.94577732456641));
#1144=CARTESIAN_POINT('Ctrl Pts',(-17.5844754890449,-63.,7.58345051906984));
#1145=CARTESIAN_POINT('Ctrl Pts',(-17.5094351613415,-63.,7.75745373829995));
#1146=CARTESIAN_POINT('Ctrl Pts',(-17.4265639994601,-62.962155309974,7.94178688288432));
#1147=CARTESIAN_POINT('Ctrl Pts',(-17.2689804668336,-62.8086114633738,8.27885410899507));
#1148=CARTESIAN_POINT('Ctrl Pts',(-17.1944091785037,-62.6929219748454,8.43165853404944));
#1149=CARTESIAN_POINT('Ctrl Pts',(-17.0746712282781,-62.4265624731716,8.67156129814684));
#1150=CARTESIAN_POINT('Ctrl Pts',(-17.0213989545185,-62.2583098018045,8.77498999911737));
#1151=CARTESIAN_POINT('Ctrl Pts',(-16.950024591505,-61.88925935381,8.91207822194971));
#1152=CARTESIAN_POINT('Ctrl Pts',(-16.9320869375064,-61.6884444977237,8.94577732456641));
#1153=CARTESIAN_POINT('Ctrl Pts',(-16.9320869375064,-61.5,8.94577732456641));
#1154=CARTESIAN_POINT('',(-15.0607709274043,-61.5,8.30741711197017));
#1155=CARTESIAN_POINT('',(-16.3908626889339,-61.5,8.76115002243474));
#1156=CARTESIAN_POINT('',(-15.7325684606551,-63.,6.95171127354986));
#1157=CARTESIAN_POINT('Ctrl Pts',(-15.0607709274043,-61.5,8.30741711197017));
#1158=CARTESIAN_POINT('Ctrl Pts',(-15.0607709274043,-61.688850541565,8.30741711197017));
#1159=CARTESIAN_POINT('Ctrl Pts',(-15.0794632516663,-61.8900236306752,8.27380398158079));
#1160=CARTESIAN_POINT('Ctrl Pts',(-15.1536415765045,-62.2595240858791,8.137148838071));
#1161=CARTESIAN_POINT('Ctrl Pts',(-15.2089400602512,-62.4278730023052,8.03406337654597));
#1162=CARTESIAN_POINT('Ctrl Pts',(-15.3327030735481,-62.6938291917232,7.79527757109813));
#1163=CARTESIAN_POINT('Ctrl Pts',(-15.4094945340758,-62.8091643298204,7.6434347735368));
#1164=CARTESIAN_POINT('Ctrl Pts',(-15.5712309058862,-62.9622557766474,7.30830931247838));
#1165=CARTESIAN_POINT('Ctrl Pts',(-15.6560213849867,-63.,7.12494661964356));
#1166=CARTESIAN_POINT('Ctrl Pts',(-15.7325684606551,-63.,6.95171127354986));
#1167=CARTESIAN_POINT('',(-16.2788814346315,-61.5,5.5531990093289));
#1168=CARTESIAN_POINT('Ctrl Pts',(-15.7325684606551,-63.,6.95171127354986));
#1169=CARTESIAN_POINT('Ctrl Pts',(-15.808812799357,-63.,6.77916105804688));
#1170=CARTESIAN_POINT('Ctrl Pts',(-15.8870179079726,-62.9625081228524,6.59370372968372));
#1171=CARTESIAN_POINT('Ctrl Pts',(-16.0252496017,-62.809527994124,6.25025136176284));
#1172=CARTESIAN_POINT('Ctrl Pts',(-16.0854393807398,-62.694030264097,6.0923262489031));
#1173=CARTESIAN_POINT('Ctrl Pts',(-16.1779382414372,-62.4274962749146,5.84226483966594));
#1174=CARTESIAN_POINT('Ctrl Pts',(-16.2164616996577,-62.2588305932574,5.73343083780489));
#1175=CARTESIAN_POINT('Ctrl Pts',(-16.266849616984,-61.8892585993633,5.58886954268921));
#1176=CARTESIAN_POINT('Ctrl Pts',(-16.2788814346315,-61.6883529240042,5.5531990093289));
#1177=CARTESIAN_POINT('Ctrl Pts',(-16.2788814346315,-61.5,5.5531990093289));
#1178=CARTESIAN_POINT('',(-18.058772942991,-61.5,6.16037167046198));
#1179=CARTESIAN_POINT('Origin',(0.,-55.5,0.));
#1180=CARTESIAN_POINT('',(-16.9320869375064,-55.625,-8.94577732456641));
#1181=CARTESIAN_POINT('',(-16.452785965599,-55.,-8.7822738496468));
#1182=CARTESIAN_POINT('Ctrl Pts',(-16.9320869375064,-55.625,-8.94577732456641));
#1183=CARTESIAN_POINT('Ctrl Pts',(-16.6892664715797,-55.3082595435188,-8.86294421491798));
#1184=CARTESIAN_POINT('Ctrl Pts',(-16.4527859655989,-55.,-8.78227384964679));
#1185=CARTESIAN_POINT('',(16.452785965599,-55.,-8.7822738496468));
#1186=CARTESIAN_POINT('Origin',(0.,-55.,0.));
#1187=CARTESIAN_POINT('',(16.9320869375064,-55.625,-8.94577732456641));
#1188=CARTESIAN_POINT('Ctrl Pts',(16.452785965599,-55.,-8.7822738496468));
#1189=CARTESIAN_POINT('Ctrl Pts',(16.6892664715797,-55.3082595435188,-8.86294421491799));
#1190=CARTESIAN_POINT('Ctrl Pts',(16.9320869375064,-55.625,-8.94577732456642));
#1191=CARTESIAN_POINT('Origin',(0.,-55.625,0.));
#1192=CARTESIAN_POINT('Origin',(0.,-55.,0.));
#1193=CARTESIAN_POINT('',(-15.0607709274043,-55.,-8.30741711197017));
#1194=CARTESIAN_POINT('',(-8.22343874091915,-55.,-5.97500462546684));
#1195=CARTESIAN_POINT('',(15.0607709274043,-55.,-8.30741711197017));
#1196=CARTESIAN_POINT('Origin',(0.,-55.,0.));
#1197=CARTESIAN_POINT('',(7.53628288267497,-55.,-5.74059581509624));
#1198=CARTESIAN_POINT('Origin',(-17.4154587043957,-55.,-9.11066946582353));
#1199=CARTESIAN_POINT('',(-15.0607709274043,-70.,-8.30741711197017));
#1200=CARTESIAN_POINT('',(-16.9320869375064,-70.,-8.94577732456641));
#1201=CARTESIAN_POINT('Origin',(0.,-55.5,0.));
#1202=CARTESIAN_POINT('',(16.9320869375064,-55.625,8.94577732456641));
#1203=CARTESIAN_POINT('',(16.452785965599,-55.,8.7822738496468));
#1204=CARTESIAN_POINT('Ctrl Pts',(16.9320869375064,-55.625,8.94577732456641));
#1205=CARTESIAN_POINT('Ctrl Pts',(16.6892664715797,-55.3082595435188,8.86294421491799));
#1206=CARTESIAN_POINT('Ctrl Pts',(16.452785965599,-55.,8.78227384964681));
#1207=CARTESIAN_POINT('',(-16.452785965599,-55.,8.7822738496468));
#1208=CARTESIAN_POINT('Origin',(0.,-55.,0.));
#1209=CARTESIAN_POINT('',(-16.9320869375064,-55.625,8.94577732456641));
#1210=CARTESIAN_POINT('Ctrl Pts',(-16.4527859655989,-55.,8.78227384964679));
#1211=CARTESIAN_POINT('Ctrl Pts',(-16.6892664715797,-55.3082595435188,8.86294421491797));
#1212=CARTESIAN_POINT('Ctrl Pts',(-16.9320869375063,-55.625,8.9457773245664));
#1213=CARTESIAN_POINT('Origin',(0.,-55.625,0.));
#1214=CARTESIAN_POINT('Origin',(0.,-55.,0.));
#1215=CARTESIAN_POINT('',(15.0607709274043,-55.,8.30741711197017));
#1216=CARTESIAN_POINT('',(8.22343874091915,-55.,5.97500462546684));
#1217=CARTESIAN_POINT('',(-15.0607709274043,-55.,8.30741711197017));
#1218=CARTESIAN_POINT('Origin',(0.,-55.,0.));
#1219=CARTESIAN_POINT('',(-7.53628288267497,-55.,5.74059581509623));
#1220=CARTESIAN_POINT('Origin',(17.4154587043957,-55.,9.11066946582353));
#1221=CARTESIAN_POINT('',(15.0607709274043,-70.,8.30741711197017));
#1222=CARTESIAN_POINT('',(16.9320869375064,-70.,8.94577732456641));
#1223=CARTESIAN_POINT('Origin',(0.,-71.5,0.));
#1224=CARTESIAN_POINT('',(-7.5,-72.5,-9.18485099360515E-16));
#1225=CARTESIAN_POINT('Origin',(0.,-72.5,0.));
#1226=CARTESIAN_POINT('',(-7.5,-70.,-9.18485099360515E-16));
#1227=CARTESIAN_POINT('',(-7.5,-71.5,9.18485099360515E-16));
#1228=CARTESIAN_POINT('Origin',(0.,-70.,0.));
#1229=CARTESIAN_POINT('Origin',(-18.4083862734641,-55.,6.27963492624692));
#1230=CARTESIAN_POINT('',(-16.2788814346315,-55.,5.5531990093289));
#1231=CARTESIAN_POINT('',(-16.2788814346315,-70.,5.5531990093289));
#1232=CARTESIAN_POINT('',(-18.124452294953,-55.,6.18277680399119));
#1233=CARTESIAN_POINT('',(-9.20419313673203,-55.,3.13981746312346));
#1234=CARTESIAN_POINT('',(-18.124452294953,-70.,6.18277680399119));
#1235=CARTESIAN_POINT('Origin',(-16.0411469879073,-55.,8.64185184508232));
#1236=CARTESIAN_POINT('',(-16.9320869375064,-70.,8.94577732456641));
#1237=CARTESIAN_POINT('',(-15.0607709274043,-70.,8.30741711197017));
#1238=CARTESIAN_POINT('Origin',(16.0411469879073,-55.,-8.64185184508232));
#1239=CARTESIAN_POINT('',(16.9320869375064,-70.,-8.94577732456641));
#1240=CARTESIAN_POINT('',(15.0607709274043,-70.,-8.30741711197017));
#1241=CARTESIAN_POINT('Origin',(18.4083862734641,-55.,-6.27963492624692));
#1242=CARTESIAN_POINT('',(16.2788814346315,-55.,-5.5531990093289));
#1243=CARTESIAN_POINT('',(16.2788814346315,-70.,-5.5531990093289));
#1244=CARTESIAN_POINT('',(18.124452294953,-55.,-6.18277680399118));
#1245=CARTESIAN_POINT('',(9.20419313673203,-55.,-3.13981746312347));
#1246=CARTESIAN_POINT('',(18.124452294953,-70.,-6.18277680399119));
#1247=CARTESIAN_POINT('Origin',(-17.0360387106608,-55.,-5.8114873353442));
#1248=CARTESIAN_POINT('',(-18.124452294953,-55.,-6.18277680399118));
#1249=CARTESIAN_POINT('',(-18.124452294953,-70.,-6.18277680399119));
#1250=CARTESIAN_POINT('',(-16.2788814346315,-55.,-5.5531990093289));
#1251=CARTESIAN_POINT('',(-8.51801935533041,-55.,-2.9057436676721));
#1252=CARTESIAN_POINT('',(-16.2788814346315,-70.,-5.5531990093289));
#1253=CARTESIAN_POINT('Origin',(17.0360387106608,-55.,5.8114873353442));
#1254=CARTESIAN_POINT('',(18.124452294953,-55.,6.18277680399118));
#1255=CARTESIAN_POINT('',(18.124452294953,-70.,6.18277680399119));
#1256=CARTESIAN_POINT('',(16.2788814346315,-55.,5.5531990093289));
#1257=CARTESIAN_POINT('',(8.51801935533041,-55.,2.9057436676721));
#1258=CARTESIAN_POINT('',(16.2788814346315,-70.,5.5531990093289));
#1259=CARTESIAN_POINT('Origin',(0.,-55.,0.));
#1260=CARTESIAN_POINT('',(17.2,-55.,-2.10639249453345E-15));
#1261=CARTESIAN_POINT('Origin',(0.,-55.,0.));
#1262=CARTESIAN_POINT('Origin',(0.,-55.,0.));
#1263=CARTESIAN_POINT('',(19.15,-55.,-2.34519862036718E-15));
#1264=CARTESIAN_POINT('Origin',(0.,-55.,0.));
#1265=CARTESIAN_POINT('Origin',(0.,-55.,0.));
#1266=CARTESIAN_POINT('Origin',(0.,-55.,0.));
#1267=CARTESIAN_POINT('Origin',(0.,-55.,0.));
#1268=CARTESIAN_POINT('Origin',(0.,-55.,0.));
#1269=CARTESIAN_POINT('Origin',(0.,-70.,0.));
#1270=CARTESIAN_POINT('',(17.2,-70.,2.10639249453345E-15));
#1271=CARTESIAN_POINT('',(17.2,-70.,-2.10639249453345E-15));
#1272=CARTESIAN_POINT('Origin',(0.,-70.,0.));
#1273=CARTESIAN_POINT('Origin',(0.,-70.,0.));
#1274=CARTESIAN_POINT('',(19.15,-70.,-2.34519862036718E-15));
#1275=CARTESIAN_POINT('Origin',(0.,-70.,0.));
#1276=CARTESIAN_POINT('',(-29.,-70.,3.55147571752732E-15));
#1277=CARTESIAN_POINT('Origin',(0.,-70.,0.));
#1278=CARTESIAN_POINT('',(12.0685606976238,-70.,20.9214839942765));
#1279=CARTESIAN_POINT('Origin',(12.8185606976238,-70.,22.2205220999532));
#1280=CARTESIAN_POINT('',(-12.0842562751011,-70.,20.912422148395));
#1281=CARTESIAN_POINT('Origin',(-12.8342562751011,-70.,22.2114602540716));
#1282=CARTESIAN_POINT('',(-24.1528169727249,-70.,-0.00906184588154837));
#1283=CARTESIAN_POINT('Origin',(-25.6528169727249,-70.,-0.00906184588154874));
#1284=CARTESIAN_POINT('',(-12.0685606976239,-70.,-20.9214839942765));
#1285=CARTESIAN_POINT('Origin',(-12.8185606976239,-70.,-22.2205220999532));
#1286=CARTESIAN_POINT('',(12.0842562751011,-70.,-20.912422148395));
#1287=CARTESIAN_POINT('Origin',(12.8342562751011,-70.,-22.2114602540716));
#1288=CARTESIAN_POINT('Origin',(0.,-70.,0.));
#1289=CARTESIAN_POINT('',(-29.,-72.5,-3.55147571752732E-15));
#1290=CARTESIAN_POINT('Origin',(0.,-72.5,0.));
#1291=CARTESIAN_POINT('',(-29.,-70.,-3.55147571752732E-15));
#1292=CARTESIAN_POINT('Origin',(0.,-72.5,0.));
#1293=CARTESIAN_POINT('',(12.0685606976238,-72.5,20.9214839942765));
#1294=CARTESIAN_POINT('Origin',(12.8185606976238,-72.5,22.2205220999532));
#1295=CARTESIAN_POINT('',(-12.0842562751011,-72.5,20.912422148395));
#1296=CARTESIAN_POINT('Origin',(-12.8342562751011,-72.5,22.2114602540716));
#1297=CARTESIAN_POINT('',(-24.1528169727249,-72.5,-0.00906184588154837));
#1298=CARTESIAN_POINT('Origin',(-25.6528169727249,-72.5,-0.00906184588154874));
#1299=CARTESIAN_POINT('',(-12.0685606976239,-72.5,-20.9214839942765));
#1300=CARTESIAN_POINT('Origin',(-12.8185606976239,-72.5,-22.2205220999532));
#1301=CARTESIAN_POINT('',(12.0842562751011,-72.5,-20.912422148395));
#1302=CARTESIAN_POINT('Origin',(12.8342562751011,-72.5,-22.2114602540716));
#1303=CARTESIAN_POINT('Origin',(0.,-70.,0.));
#1304=CARTESIAN_POINT('Origin',(12.8342562751011,-71.5,-22.2114602540716));
#1305=CARTESIAN_POINT('',(12.0842562751011,-71.5,-20.912422148395));
#1306=CARTESIAN_POINT('Origin',(-12.8185606976239,-71.5,-22.2205220999532));
#1307=CARTESIAN_POINT('',(-12.0685606976239,-71.5,-20.9214839942765));
#1308=CARTESIAN_POINT('Origin',(-25.6528169727249,-71.5,-0.00906184588154874));
#1309=CARTESIAN_POINT('',(-24.1528169727249,-71.5,-0.00906184588154874));
#1310=CARTESIAN_POINT('Origin',(-12.8342562751011,-71.5,22.2114602540716));
#1311=CARTESIAN_POINT('',(-12.0842562751011,-71.5,20.912422148395));
#1312=CARTESIAN_POINT('Origin',(12.8185606976238,-71.5,22.2205220999532));
#1313=CARTESIAN_POINT('',(12.0685606976238,-71.5,20.9214839942765));
#1314=UNCERTAINTY_MEASURE_WITH_UNIT(LENGTH_MEASURE(0.01),#1318,
'DISTANCE_ACCURACY_VALUE',
'Maximum model space distance between geometric entities at asserted c
onnectivities');
#1315=UNCERTAINTY_MEASURE_WITH_UNIT(LENGTH_MEASURE(0.01),#1318,
'DISTANCE_ACCURACY_VALUE',
'Maximum model space distance between geometric entities at asserted c
onnectivities');
#1316=(
GEOMETRIC_REPRESENTATION_CONTEXT(3)
GLOBAL_UNCERTAINTY_ASSIGNED_CONTEXT((#1314))
GLOBAL_UNIT_ASSIGNED_CONTEXT((#1318,#1320,#1321))
REPRESENTATION_CONTEXT('','3D')
);
#1317=(
GEOMETRIC_REPRESENTATION_CONTEXT(3)
GLOBAL_UNCERTAINTY_ASSIGNED_CONTEXT((#1315))
GLOBAL_UNIT_ASSIGNED_CONTEXT((#1318,#1320,#1321))
REPRESENTATION_CONTEXT('','3D')
);
#1318=(
LENGTH_UNIT()
NAMED_UNIT(*)
SI_UNIT(.MILLI.,.METRE.)
);
#1319=(
LENGTH_UNIT()
NAMED_UNIT(*)
SI_UNIT($,.METRE.)
);
#1320=(
NAMED_UNIT(*)
PLANE_ANGLE_UNIT()
SI_UNIT($,.RADIAN.)
);
#1321=(
NAMED_UNIT(*)
SI_UNIT($,.STERADIAN.)
SOLID_ANGLE_UNIT()
);
#1322=SHAPE_DEFINITION_REPRESENTATION(#1323,#1324);
#1323=PRODUCT_DEFINITION_SHAPE('',$,#1326);
#1324=SHAPE_REPRESENTATION('',(#706),#1316);
#1325=PRODUCT_DEFINITION_CONTEXT('part definition',#1330,'design');
#1326=PRODUCT_DEFINITION('obudowa_anteny','obudowa_anteny v12',#1327,#1325);
#1327=PRODUCT_DEFINITION_FORMATION('',$,#1332);
#1328=PRODUCT_RELATED_PRODUCT_CATEGORY('obudowa_anteny v12',
'obudowa_anteny v12',(#1332));
#1329=APPLICATION_PROTOCOL_DEFINITION('international standard',
'automotive_design',2009,#1330);
#1330=APPLICATION_CONTEXT(
'Core Data for Automotive Mechanical Design Process');
#1331=PRODUCT_CONTEXT('part definition',#1330,'mechanical');
#1332=PRODUCT('obudowa_anteny','obudowa_anteny v12',$,(#1331));
#1333=PRESENTATION_STYLE_ASSIGNMENT((#1335));
#1334=PRESENTATION_STYLE_ASSIGNMENT((#1336));
#1335=SURFACE_STYLE_USAGE(.BOTH.,#1337);
#1336=SURFACE_STYLE_USAGE(.BOTH.,#1338);
#1337=SURFACE_SIDE_STYLE('',(#1339));
#1338=SURFACE_SIDE_STYLE('',(#1340));
#1339=SURFACE_STYLE_FILL_AREA(#1341);
#1340=SURFACE_STYLE_FILL_AREA(#1342);
#1341=FILL_AREA_STYLE('Stal \X2\2014\X0\ satynowa',(#1343));
#1342=FILL_AREA_STYLE('FR4',(#1344));
#1343=FILL_AREA_STYLE_COLOUR('Stal \X2\2014\X0\ satynowa',#1345);
#1344=FILL_AREA_STYLE_COLOUR('FR4',#1346);
#1345=COLOUR_RGB('Stal \X2\2014\X0\ satynowa',0.627450980392157,0.627450980392157,
0.627450980392157);
#1346=COLOUR_RGB('FR4',0.266666666666667,0.466666666666667,0.4);
ENDSEC;
END-ISO-10303-21;
