ISO-10303-21;
HEADER;
/* Generated by software containing ST-Developer
 * from STEP Tools, Inc. (www.steptools.com) 
 */

FILE_DESCRIPTION(
/* description */ (''),
/* implementation_level */ '2;1');

FILE_NAME(
/* name */ 'Mast_bracket_36mm.step',
/* time_stamp */ '2026-04-28T21:24:58+02:00',
/* author */ (''),
/* organization */ (''),
/* preprocessor_version */ 'ST-DEVELOPER v20.1',
/* originating_system */ 'Autodesk Translation Framework v15.8.0.0',
/* authorisation */ '');

FILE_SCHEMA (('AUTOMOTIVE_DESIGN { 1 0 10303 214 3 1 1 }'));
ENDSEC;

DATA;
#10=MECHANICAL_DESIGN_GEOMETRIC_PRESENTATION_REPRESENTATION('',(#13),#845);
#11=SHAPE_REPRESENTATION_RELATIONSHIP('SRR','None',#852,#12);
#12=ADVANCED_BREP_SHAPE_REPRESENTATION('',(#14),#844);
#13=STYLED_ITEM('',(#861),#14);
#14=MANIFOLD_SOLID_BREP('Mast_bracket',#476);
#15=FACE_BOUND('',#67,.T.);
#16=FACE_BOUND('',#68,.T.);
#17=FACE_BOUND('',#71,.T.);
#18=FACE_BOUND('',#82,.T.);
#19=FACE_BOUND('',#83,.T.);
#20=FACE_BOUND('',#89,.T.);
#21=PLANE('',#503);
#22=PLANE('',#508);
#23=PLANE('',#510);
#24=PLANE('',#511);
#25=PLANE('',#515);
#26=PLANE('',#516);
#27=PLANE('',#517);
#28=PLANE('',#519);
#29=PLANE('',#523);
#30=PLANE('',#524);
#31=PLANE('',#531);
#32=PLANE('',#532);
#33=PLANE('',#535);
#34=TOROIDAL_SURFACE('',#492,4.5,2.);
#35=TOROIDAL_SURFACE('',#495,25.,2.);
#36=FACE_OUTER_BOUND('',#61,.T.);
#37=FACE_OUTER_BOUND('',#62,.T.);
#38=FACE_OUTER_BOUND('',#63,.T.);
#39=FACE_OUTER_BOUND('',#64,.T.);
#40=FACE_OUTER_BOUND('',#65,.T.);
#41=FACE_OUTER_BOUND('',#66,.T.);
#42=FACE_OUTER_BOUND('',#69,.T.);
#43=FACE_OUTER_BOUND('',#70,.T.);
#44=FACE_OUTER_BOUND('',#72,.T.);
#45=FACE_OUTER_BOUND('',#73,.T.);
#46=FACE_OUTER_BOUND('',#74,.T.);
#47=FACE_OUTER_BOUND('',#75,.T.);
#48=FACE_OUTER_BOUND('',#76,.T.);
#49=FACE_OUTER_BOUND('',#77,.T.);
#50=FACE_OUTER_BOUND('',#78,.T.);
#51=FACE_OUTER_BOUND('',#79,.T.);
#52=FACE_OUTER_BOUND('',#80,.T.);
#53=FACE_OUTER_BOUND('',#81,.T.);
#54=FACE_OUTER_BOUND('',#84,.T.);
#55=FACE_OUTER_BOUND('',#85,.T.);
#56=FACE_OUTER_BOUND('',#86,.T.);
#57=FACE_OUTER_BOUND('',#87,.T.);
#58=FACE_OUTER_BOUND('',#88,.T.);
#59=FACE_OUTER_BOUND('',#90,.T.);
#60=FACE_OUTER_BOUND('',#91,.T.);
#61=EDGE_LOOP('',(#309,#310,#311,#312));
#62=EDGE_LOOP('',(#313,#314,#315,#316));
#63=EDGE_LOOP('',(#317,#318,#319,#320));
#64=EDGE_LOOP('',(#321,#322,#323,#324));
#65=EDGE_LOOP('',(#325,#326,#327,#328,#329,#330));
#66=EDGE_LOOP('',(#331,#332,#333,#334));
#67=EDGE_LOOP('',(#335));
#68=EDGE_LOOP('',(#336));
#69=EDGE_LOOP('',(#337,#338,#339,#340));
#70=EDGE_LOOP('',(#341,#342,#343,#344));
#71=EDGE_LOOP('',(#345));
#72=EDGE_LOOP('',(#346,#347,#348,#349,#350,#351,#352));
#73=EDGE_LOOP('',(#353,#354,#355,#356));
#74=EDGE_LOOP('',(#357,#358,#359,#360));
#75=EDGE_LOOP('',(#361,#362,#363,#364));
#76=EDGE_LOOP('',(#365,#366,#367,#368));
#77=EDGE_LOOP('',(#369,#370,#371,#372,#373,#374,#375,#376));
#78=EDGE_LOOP('',(#377,#378,#379,#380,#381,#382,#383,#384,#385,#386,#387));
#79=EDGE_LOOP('',(#388,#389,#390,#391));
#80=EDGE_LOOP('',(#392,#393,#394,#395));
#81=EDGE_LOOP('',(#396,#397,#398,#399,#400,#401));
#82=EDGE_LOOP('',(#402));
#83=EDGE_LOOP('',(#403));
#84=EDGE_LOOP('',(#404,#405,#406,#407));
#85=EDGE_LOOP('',(#408,#409,#410,#411));
#86=EDGE_LOOP('',(#412,#413,#414,#415));
#87=EDGE_LOOP('',(#416,#417,#418,#419,#420));
#88=EDGE_LOOP('',(#421,#422,#423,#424,#425,#426));
#89=EDGE_LOOP('',(#427));
#90=EDGE_LOOP('',(#428,#429,#430,#431));
#91=EDGE_LOOP('',(#432,#433,#434,#435,#436,#437,#438,#439,#440));
#92=B_SPLINE_CURVE_WITH_KNOTS('',3,(#681,#682,#683,#684,#685,#686,#687,
#688,#689,#690,#691,#692,#693,#694),.UNSPECIFIED.,.F.,.F.,(4,2,2,2,2,2,
4),(-0.000751340681346059,0.,0.0852916029497821,0.168121947124638,0.245840467326819,
0.313322201145346,0.346794529976518),.UNSPECIFIED.);
#93=B_SPLINE_CURVE_WITH_KNOTS('',3,(#698,#699,#700,#701,#702,#703,#704,
#705,#706,#707),.UNSPECIFIED.,.F.,.F.,(4,2,2,2,4),(0.595680262550377,0.66919634627229,
0.743811031536,0.819026243048763,0.894161331717147),.UNSPECIFIED.);
#94=B_SPLINE_CURVE_WITH_KNOTS('',3,(#715,#716,#717,#718,#719,#720,#721,
#722,#723,#724,#725,#726,#727,#728),.UNSPECIFIED.,.F.,.F.,(4,2,2,2,2,2,
4),(-0.692975865163926,-0.692226961120354,-0.61159510061847,-0.533024562251283,
-0.453945045029811,-0.38562239369492,-0.346068991624934),.UNSPECIFIED.);
#95=CIRCLE('',#491,2.);
#96=CIRCLE('',#493,4.5);
#97=CIRCLE('',#494,2.5);
#98=CIRCLE('',#496,23.);
#99=CIRCLE('',#497,25.);
#100=CIRCLE('',#499,2.);
#101=CIRCLE('',#501,2.5);
#102=CIRCLE('',#502,2.5);
#103=CIRCLE('',#504,2.5);
#104=CIRCLE('',#505,2.5);
#105=CIRCLE('',#507,23.);
#106=CIRCLE('',#509,2.5);
#107=CIRCLE('',#513,30.);
#108=CIRCLE('',#514,30.);
#109=CIRCLE('',#518,18.);
#110=CIRCLE('',#521,25.5);
#111=CIRCLE('',#522,25.5);
#112=CIRCLE('',#525,2.5);
#113=CIRCLE('',#526,2.5);
#114=CIRCLE('',#530,2.5);
#115=CIRCLE('',#534,18.);
#116=LINE('',#676,#158);
#117=LINE('',#680,#159);
#118=LINE('',#731,#160);
#119=LINE('',#734,#161);
#120=LINE('',#737,#162);
#121=LINE('',#739,#163);
#122=LINE('',#743,#164);
#123=LINE('',#747,#165);
#124=LINE('',#748,#166);
#125=LINE('',#755,#167);
#126=LINE('',#759,#168);
#127=LINE('',#760,#169);
#128=LINE('',#765,#170);
#129=LINE('',#767,#171);
#130=LINE('',#769,#172);
#131=LINE('',#771,#173);
#132=LINE('',#772,#174);
#133=LINE('',#775,#175);
#134=LINE('',#777,#176);
#135=LINE('',#778,#177);
#136=LINE('',#784,#178);
#137=LINE('',#787,#179);
#138=LINE('',#789,#180);
#139=LINE('',#790,#181);
#140=LINE('',#793,#182);
#141=LINE('',#795,#183);
#142=LINE('',#796,#184);
#143=LINE('',#799,#185);
#144=LINE('',#801,#186);
#145=LINE('',#805,#187);
#146=LINE('',#806,#188);
#147=LINE('',#810,#189);
#148=LINE('',#814,#190);
#149=LINE('',#817,#191);
#150=LINE('',#818,#192);
#151=LINE('',#824,#193);
#152=LINE('',#826,#194);
#153=LINE('',#829,#195);
#154=LINE('',#833,#196);
#155=LINE('',#834,#197);
#156=LINE('',#837,#198);
#157=LINE('',#838,#199);
#158=VECTOR('',#540,10.);
#159=VECTOR('',#543,10.);
#160=VECTOR('',#558,10.);
#161=VECTOR('',#561,10.);
#162=VECTOR('',#564,10.);
#163=VECTOR('',#565,10.);
#164=VECTOR('',#568,10.);
#165=VECTOR('',#573,10.);
#166=VECTOR('',#574,10.);
#167=VECTOR('',#581,10.);
#168=VECTOR('',#586,10.);
#169=VECTOR('',#587,10.);
#170=VECTOR('',#592,10.);
#171=VECTOR('',#593,10.);
#172=VECTOR('',#594,10.);
#173=VECTOR('',#595,10.);
#174=VECTOR('',#596,10.);
#175=VECTOR('',#599,10.);
#176=VECTOR('',#600,10.);
#177=VECTOR('',#601,10.);
#178=VECTOR('',#608,10.);
#179=VECTOR('',#611,10.);
#180=VECTOR('',#612,10.);
#181=VECTOR('',#613,10.);
#182=VECTOR('',#616,10.);
#183=VECTOR('',#617,10.);
#184=VECTOR('',#618,10.);
#185=VECTOR('',#621,10.);
#186=VECTOR('',#622,10.);
#187=VECTOR('',#627,10.);
#188=VECTOR('',#628,10.);
#189=VECTOR('',#631,10.);
#190=VECTOR('',#638,10.);
#191=VECTOR('',#641,10.);
#192=VECTOR('',#642,10.);
#193=VECTOR('',#649,2.5);
#194=VECTOR('',#652,2.5);
#195=VECTOR('',#655,2.5);
#196=VECTOR('',#660,10.);
#197=VECTOR('',#661,10.);
#198=VECTOR('',#664,10.);
#199=VECTOR('',#665,10.);
#200=VERTEX_POINT('',#674);
#201=VERTEX_POINT('',#675);
#202=VERTEX_POINT('',#677);
#203=VERTEX_POINT('',#679);
#204=VERTEX_POINT('',#696);
#205=VERTEX_POINT('',#697);
#206=VERTEX_POINT('',#711);
#207=VERTEX_POINT('',#713);
#208=VERTEX_POINT('',#730);
#209=VERTEX_POINT('',#732);
#210=VERTEX_POINT('',#736);
#211=VERTEX_POINT('',#738);
#212=VERTEX_POINT('',#740);
#213=VERTEX_POINT('',#742);
#214=VERTEX_POINT('',#746);
#215=VERTEX_POINT('',#749);
#216=VERTEX_POINT('',#751);
#217=VERTEX_POINT('',#754);
#218=VERTEX_POINT('',#758);
#219=VERTEX_POINT('',#761);
#220=VERTEX_POINT('',#764);
#221=VERTEX_POINT('',#766);
#222=VERTEX_POINT('',#768);
#223=VERTEX_POINT('',#770);
#224=VERTEX_POINT('',#774);
#225=VERTEX_POINT('',#776);
#226=VERTEX_POINT('',#780);
#227=VERTEX_POINT('',#782);
#228=VERTEX_POINT('',#786);
#229=VERTEX_POINT('',#788);
#230=VERTEX_POINT('',#792);
#231=VERTEX_POINT('',#794);
#232=VERTEX_POINT('',#798);
#233=VERTEX_POINT('',#800);
#234=VERTEX_POINT('',#804);
#235=VERTEX_POINT('',#808);
#236=VERTEX_POINT('',#809);
#237=VERTEX_POINT('',#816);
#238=VERTEX_POINT('',#819);
#239=VERTEX_POINT('',#821);
#240=VERTEX_POINT('',#828);
#241=VERTEX_POINT('',#832);
#242=VERTEX_POINT('',#836);
#243=EDGE_CURVE('',#200,#201,#116,.T.);
#244=EDGE_CURVE('',#201,#202,#95,.T.);
#245=EDGE_CURVE('',#202,#203,#117,.T.);
#246=EDGE_CURVE('',#203,#200,#92,.T.);
#247=EDGE_CURVE('',#204,#205,#93,.T.);
#248=EDGE_CURVE('',#205,#202,#96,.T.);
#249=EDGE_CURVE('',#201,#204,#97,.T.);
#250=EDGE_CURVE('',#206,#200,#98,.T.);
#251=EDGE_CURVE('',#203,#207,#99,.T.);
#252=EDGE_CURVE('',#207,#206,#94,.T.);
#253=EDGE_CURVE('',#207,#208,#118,.T.);
#254=EDGE_CURVE('',#208,#209,#100,.T.);
#255=EDGE_CURVE('',#209,#206,#119,.T.);
#256=EDGE_CURVE('',#210,#204,#120,.T.);
#257=EDGE_CURVE('',#201,#211,#121,.T.);
#258=EDGE_CURVE('',#212,#211,#101,.T.);
#259=EDGE_CURVE('',#213,#212,#122,.T.);
#260=EDGE_CURVE('',#210,#213,#102,.T.);
#261=EDGE_CURVE('',#214,#200,#123,.T.);
#262=EDGE_CURVE('',#214,#211,#124,.T.);
#263=EDGE_CURVE('',#215,#215,#103,.T.);
#264=EDGE_CURVE('',#216,#216,#104,.T.);
#265=EDGE_CURVE('',#217,#206,#125,.T.);
#266=EDGE_CURVE('',#214,#217,#105,.T.);
#267=EDGE_CURVE('',#218,#209,#126,.T.);
#268=EDGE_CURVE('',#217,#218,#127,.T.);
#269=EDGE_CURVE('',#219,#219,#106,.T.);
#270=EDGE_CURVE('',#220,#205,#128,.T.);
#271=EDGE_CURVE('',#221,#210,#129,.T.);
#272=EDGE_CURVE('',#221,#222,#130,.T.);
#273=EDGE_CURVE('',#223,#222,#131,.T.);
#274=EDGE_CURVE('',#220,#223,#132,.T.);
#275=EDGE_CURVE('',#224,#220,#133,.T.);
#276=EDGE_CURVE('',#225,#223,#134,.T.);
#277=EDGE_CURVE('',#224,#225,#135,.T.);
#278=EDGE_CURVE('',#226,#224,#107,.T.);
#279=EDGE_CURVE('',#227,#225,#108,.T.);
#280=EDGE_CURVE('',#226,#227,#136,.T.);
#281=EDGE_CURVE('',#228,#226,#137,.T.);
#282=EDGE_CURVE('',#229,#227,#138,.T.);
#283=EDGE_CURVE('',#228,#229,#139,.T.);
#284=EDGE_CURVE('',#230,#228,#140,.T.);
#285=EDGE_CURVE('',#231,#229,#141,.T.);
#286=EDGE_CURVE('',#230,#231,#142,.T.);
#287=EDGE_CURVE('',#232,#231,#143,.T.);
#288=EDGE_CURVE('',#222,#233,#144,.T.);
#289=EDGE_CURVE('',#233,#232,#109,.T.);
#290=EDGE_CURVE('',#234,#230,#145,.T.);
#291=EDGE_CURVE('',#234,#208,#146,.T.);
#292=EDGE_CURVE('',#235,#236,#147,.T.);
#293=EDGE_CURVE('',#213,#235,#110,.T.);
#294=EDGE_CURVE('',#236,#212,#111,.T.);
#295=EDGE_CURVE('',#235,#221,#148,.T.);
#296=EDGE_CURVE('',#236,#237,#149,.T.);
#297=EDGE_CURVE('',#237,#233,#150,.T.);
#298=EDGE_CURVE('',#238,#238,#112,.T.);
#299=EDGE_CURVE('',#239,#239,#113,.T.);
#300=EDGE_CURVE('',#239,#216,#151,.T.);
#301=EDGE_CURVE('',#238,#215,#152,.T.);
#302=EDGE_CURVE('',#219,#240,#153,.T.);
#303=EDGE_CURVE('',#240,#240,#114,.T.);
#304=EDGE_CURVE('',#218,#241,#154,.T.);
#305=EDGE_CURVE('',#241,#234,#155,.T.);
#306=EDGE_CURVE('',#241,#242,#156,.T.);
#307=EDGE_CURVE('',#242,#232,#157,.T.);
#308=EDGE_CURVE('',#237,#242,#115,.T.);
#309=ORIENTED_EDGE('',*,*,#243,.T.);
#310=ORIENTED_EDGE('',*,*,#244,.T.);
#311=ORIENTED_EDGE('',*,*,#245,.T.);
#312=ORIENTED_EDGE('',*,*,#246,.T.);
#313=ORIENTED_EDGE('',*,*,#247,.T.);
#314=ORIENTED_EDGE('',*,*,#248,.T.);
#315=ORIENTED_EDGE('',*,*,#244,.F.);
#316=ORIENTED_EDGE('',*,*,#249,.T.);
#317=ORIENTED_EDGE('',*,*,#250,.T.);
#318=ORIENTED_EDGE('',*,*,#246,.F.);
#319=ORIENTED_EDGE('',*,*,#251,.T.);
#320=ORIENTED_EDGE('',*,*,#252,.T.);
#321=ORIENTED_EDGE('',*,*,#253,.T.);
#322=ORIENTED_EDGE('',*,*,#254,.T.);
#323=ORIENTED_EDGE('',*,*,#255,.T.);
#324=ORIENTED_EDGE('',*,*,#252,.F.);
#325=ORIENTED_EDGE('',*,*,#256,.T.);
#326=ORIENTED_EDGE('',*,*,#249,.F.);
#327=ORIENTED_EDGE('',*,*,#257,.T.);
#328=ORIENTED_EDGE('',*,*,#258,.F.);
#329=ORIENTED_EDGE('',*,*,#259,.F.);
#330=ORIENTED_EDGE('',*,*,#260,.F.);
#331=ORIENTED_EDGE('',*,*,#243,.F.);
#332=ORIENTED_EDGE('',*,*,#261,.F.);
#333=ORIENTED_EDGE('',*,*,#262,.T.);
#334=ORIENTED_EDGE('',*,*,#257,.F.);
#335=ORIENTED_EDGE('',*,*,#263,.T.);
#336=ORIENTED_EDGE('',*,*,#264,.T.);
#337=ORIENTED_EDGE('',*,*,#250,.F.);
#338=ORIENTED_EDGE('',*,*,#265,.F.);
#339=ORIENTED_EDGE('',*,*,#266,.F.);
#340=ORIENTED_EDGE('',*,*,#261,.T.);
#341=ORIENTED_EDGE('',*,*,#255,.F.);
#342=ORIENTED_EDGE('',*,*,#267,.F.);
#343=ORIENTED_EDGE('',*,*,#268,.F.);
#344=ORIENTED_EDGE('',*,*,#265,.T.);
#345=ORIENTED_EDGE('',*,*,#269,.T.);
#346=ORIENTED_EDGE('',*,*,#270,.T.);
#347=ORIENTED_EDGE('',*,*,#247,.F.);
#348=ORIENTED_EDGE('',*,*,#256,.F.);
#349=ORIENTED_EDGE('',*,*,#271,.F.);
#350=ORIENTED_EDGE('',*,*,#272,.T.);
#351=ORIENTED_EDGE('',*,*,#273,.F.);
#352=ORIENTED_EDGE('',*,*,#274,.F.);
#353=ORIENTED_EDGE('',*,*,#275,.T.);
#354=ORIENTED_EDGE('',*,*,#274,.T.);
#355=ORIENTED_EDGE('',*,*,#276,.F.);
#356=ORIENTED_EDGE('',*,*,#277,.F.);
#357=ORIENTED_EDGE('',*,*,#278,.T.);
#358=ORIENTED_EDGE('',*,*,#277,.T.);
#359=ORIENTED_EDGE('',*,*,#279,.F.);
#360=ORIENTED_EDGE('',*,*,#280,.F.);
#361=ORIENTED_EDGE('',*,*,#281,.T.);
#362=ORIENTED_EDGE('',*,*,#280,.T.);
#363=ORIENTED_EDGE('',*,*,#282,.F.);
#364=ORIENTED_EDGE('',*,*,#283,.F.);
#365=ORIENTED_EDGE('',*,*,#284,.T.);
#366=ORIENTED_EDGE('',*,*,#283,.T.);
#367=ORIENTED_EDGE('',*,*,#285,.F.);
#368=ORIENTED_EDGE('',*,*,#286,.F.);
#369=ORIENTED_EDGE('',*,*,#287,.T.);
#370=ORIENTED_EDGE('',*,*,#285,.T.);
#371=ORIENTED_EDGE('',*,*,#282,.T.);
#372=ORIENTED_EDGE('',*,*,#279,.T.);
#373=ORIENTED_EDGE('',*,*,#276,.T.);
#374=ORIENTED_EDGE('',*,*,#273,.T.);
#375=ORIENTED_EDGE('',*,*,#288,.T.);
#376=ORIENTED_EDGE('',*,*,#289,.T.);
#377=ORIENTED_EDGE('',*,*,#248,.F.);
#378=ORIENTED_EDGE('',*,*,#270,.F.);
#379=ORIENTED_EDGE('',*,*,#275,.F.);
#380=ORIENTED_EDGE('',*,*,#278,.F.);
#381=ORIENTED_EDGE('',*,*,#281,.F.);
#382=ORIENTED_EDGE('',*,*,#284,.F.);
#383=ORIENTED_EDGE('',*,*,#290,.F.);
#384=ORIENTED_EDGE('',*,*,#291,.T.);
#385=ORIENTED_EDGE('',*,*,#253,.F.);
#386=ORIENTED_EDGE('',*,*,#251,.F.);
#387=ORIENTED_EDGE('',*,*,#245,.F.);
#388=ORIENTED_EDGE('',*,*,#292,.F.);
#389=ORIENTED_EDGE('',*,*,#293,.F.);
#390=ORIENTED_EDGE('',*,*,#259,.T.);
#391=ORIENTED_EDGE('',*,*,#294,.F.);
#392=ORIENTED_EDGE('',*,*,#271,.T.);
#393=ORIENTED_EDGE('',*,*,#260,.T.);
#394=ORIENTED_EDGE('',*,*,#293,.T.);
#395=ORIENTED_EDGE('',*,*,#295,.T.);
#396=ORIENTED_EDGE('',*,*,#292,.T.);
#397=ORIENTED_EDGE('',*,*,#296,.T.);
#398=ORIENTED_EDGE('',*,*,#297,.T.);
#399=ORIENTED_EDGE('',*,*,#288,.F.);
#400=ORIENTED_EDGE('',*,*,#272,.F.);
#401=ORIENTED_EDGE('',*,*,#295,.F.);
#402=ORIENTED_EDGE('',*,*,#298,.T.);
#403=ORIENTED_EDGE('',*,*,#299,.T.);
#404=ORIENTED_EDGE('',*,*,#299,.F.);
#405=ORIENTED_EDGE('',*,*,#300,.T.);
#406=ORIENTED_EDGE('',*,*,#264,.F.);
#407=ORIENTED_EDGE('',*,*,#300,.F.);
#408=ORIENTED_EDGE('',*,*,#298,.F.);
#409=ORIENTED_EDGE('',*,*,#301,.T.);
#410=ORIENTED_EDGE('',*,*,#263,.F.);
#411=ORIENTED_EDGE('',*,*,#301,.F.);
#412=ORIENTED_EDGE('',*,*,#269,.F.);
#413=ORIENTED_EDGE('',*,*,#302,.T.);
#414=ORIENTED_EDGE('',*,*,#303,.F.);
#415=ORIENTED_EDGE('',*,*,#302,.F.);
#416=ORIENTED_EDGE('',*,*,#304,.F.);
#417=ORIENTED_EDGE('',*,*,#267,.T.);
#418=ORIENTED_EDGE('',*,*,#254,.F.);
#419=ORIENTED_EDGE('',*,*,#291,.F.);
#420=ORIENTED_EDGE('',*,*,#305,.F.);
#421=ORIENTED_EDGE('',*,*,#306,.F.);
#422=ORIENTED_EDGE('',*,*,#305,.T.);
#423=ORIENTED_EDGE('',*,*,#290,.T.);
#424=ORIENTED_EDGE('',*,*,#286,.T.);
#425=ORIENTED_EDGE('',*,*,#287,.F.);
#426=ORIENTED_EDGE('',*,*,#307,.F.);
#427=ORIENTED_EDGE('',*,*,#303,.T.);
#428=ORIENTED_EDGE('',*,*,#308,.T.);
#429=ORIENTED_EDGE('',*,*,#307,.T.);
#430=ORIENTED_EDGE('',*,*,#289,.F.);
#431=ORIENTED_EDGE('',*,*,#297,.F.);
#432=ORIENTED_EDGE('',*,*,#258,.T.);
#433=ORIENTED_EDGE('',*,*,#262,.F.);
#434=ORIENTED_EDGE('',*,*,#266,.T.);
#435=ORIENTED_EDGE('',*,*,#268,.T.);
#436=ORIENTED_EDGE('',*,*,#304,.T.);
#437=ORIENTED_EDGE('',*,*,#306,.T.);
#438=ORIENTED_EDGE('',*,*,#308,.F.);
#439=ORIENTED_EDGE('',*,*,#296,.F.);
#440=ORIENTED_EDGE('',*,*,#294,.T.);
#441=CYLINDRICAL_SURFACE('',#490,2.);
#442=CYLINDRICAL_SURFACE('',#498,2.);
#443=CYLINDRICAL_SURFACE('',#500,2.5);
#444=CYLINDRICAL_SURFACE('',#506,23.);
#445=CYLINDRICAL_SURFACE('',#512,30.);
#446=CYLINDRICAL_SURFACE('',#520,25.5);
#447=CYLINDRICAL_SURFACE('',#527,2.5);
#448=CYLINDRICAL_SURFACE('',#528,2.5);
#449=CYLINDRICAL_SURFACE('',#529,2.5);
#450=CYLINDRICAL_SURFACE('',#533,18.);
#451=ADVANCED_FACE('',(#36),#441,.F.);
#452=ADVANCED_FACE('',(#37),#34,.F.);
#453=ADVANCED_FACE('',(#38),#35,.F.);
#454=ADVANCED_FACE('',(#39),#442,.F.);
#455=ADVANCED_FACE('',(#40),#443,.T.);
#456=ADVANCED_FACE('',(#41,#15,#16),#21,.T.);
#457=ADVANCED_FACE('',(#42),#444,.T.);
#458=ADVANCED_FACE('',(#43,#17),#22,.T.);
#459=ADVANCED_FACE('',(#44),#23,.T.);
#460=ADVANCED_FACE('',(#45),#24,.T.);
#461=ADVANCED_FACE('',(#46),#445,.T.);
#462=ADVANCED_FACE('',(#47),#25,.T.);
#463=ADVANCED_FACE('',(#48),#26,.T.);
#464=ADVANCED_FACE('',(#49),#27,.T.);
#465=ADVANCED_FACE('',(#50),#28,.F.);
#466=ADVANCED_FACE('',(#51),#446,.F.);
#467=ADVANCED_FACE('',(#52),#29,.F.);
#468=ADVANCED_FACE('',(#53,#18,#19),#30,.T.);
#469=ADVANCED_FACE('',(#54),#447,.F.);
#470=ADVANCED_FACE('',(#55),#448,.F.);
#471=ADVANCED_FACE('',(#56),#449,.F.);
#472=ADVANCED_FACE('',(#57),#31,.T.);
#473=ADVANCED_FACE('',(#58,#20),#32,.T.);
#474=ADVANCED_FACE('',(#59),#450,.F.);
#475=ADVANCED_FACE('',(#60),#33,.T.);
#476=CLOSED_SHELL('',(#451,#452,#453,#454,#455,#456,#457,#458,#459,#460,
#461,#462,#463,#464,#465,#466,#467,#468,#469,#470,#471,#472,#473,#474,#475));
#477=DERIVED_UNIT_ELEMENT(#479,1.);
#478=DERIVED_UNIT_ELEMENT(#847,-3.);
#479=(
MASS_UNIT()
NAMED_UNIT(*)
SI_UNIT(.KILO.,.GRAM.)
);
#480=DERIVED_UNIT((#477,#478));
#481=MEASURE_REPRESENTATION_ITEM('density measure',
POSITIVE_RATIO_MEASURE(7850.),#480);
#482=PROPERTY_DEFINITION_REPRESENTATION(#487,#484);
#483=PROPERTY_DEFINITION_REPRESENTATION(#488,#485);
#484=REPRESENTATION('material name',(#486),#844);
#485=REPRESENTATION('density',(#481),#844);
#486=DESCRIPTIVE_REPRESENTATION_ITEM('Stal','Stal');
#487=PROPERTY_DEFINITION('material property','material name',#854);
#488=PROPERTY_DEFINITION('material property','density of part',#854);
#489=AXIS2_PLACEMENT_3D('',#672,#536,#537);
#490=AXIS2_PLACEMENT_3D('',#673,#538,#539);
#491=AXIS2_PLACEMENT_3D('',#678,#541,#542);
#492=AXIS2_PLACEMENT_3D('',#695,#544,#545);
#493=AXIS2_PLACEMENT_3D('',#708,#546,#547);
#494=AXIS2_PLACEMENT_3D('',#709,#548,#549);
#495=AXIS2_PLACEMENT_3D('',#710,#550,#551);
#496=AXIS2_PLACEMENT_3D('',#712,#552,#553);
#497=AXIS2_PLACEMENT_3D('',#714,#554,#555);
#498=AXIS2_PLACEMENT_3D('',#729,#556,#557);
#499=AXIS2_PLACEMENT_3D('',#733,#559,#560);
#500=AXIS2_PLACEMENT_3D('',#735,#562,#563);
#501=AXIS2_PLACEMENT_3D('',#741,#566,#567);
#502=AXIS2_PLACEMENT_3D('',#744,#569,#570);
#503=AXIS2_PLACEMENT_3D('',#745,#571,#572);
#504=AXIS2_PLACEMENT_3D('',#750,#575,#576);
#505=AXIS2_PLACEMENT_3D('',#752,#577,#578);
#506=AXIS2_PLACEMENT_3D('',#753,#579,#580);
#507=AXIS2_PLACEMENT_3D('',#756,#582,#583);
#508=AXIS2_PLACEMENT_3D('',#757,#584,#585);
#509=AXIS2_PLACEMENT_3D('',#762,#588,#589);
#510=AXIS2_PLACEMENT_3D('',#763,#590,#591);
#511=AXIS2_PLACEMENT_3D('',#773,#597,#598);
#512=AXIS2_PLACEMENT_3D('',#779,#602,#603);
#513=AXIS2_PLACEMENT_3D('',#781,#604,#605);
#514=AXIS2_PLACEMENT_3D('',#783,#606,#607);
#515=AXIS2_PLACEMENT_3D('',#785,#609,#610);
#516=AXIS2_PLACEMENT_3D('',#791,#614,#615);
#517=AXIS2_PLACEMENT_3D('',#797,#619,#620);
#518=AXIS2_PLACEMENT_3D('',#802,#623,#624);
#519=AXIS2_PLACEMENT_3D('',#803,#625,#626);
#520=AXIS2_PLACEMENT_3D('',#807,#629,#630);
#521=AXIS2_PLACEMENT_3D('',#811,#632,#633);
#522=AXIS2_PLACEMENT_3D('',#812,#634,#635);
#523=AXIS2_PLACEMENT_3D('',#813,#636,#637);
#524=AXIS2_PLACEMENT_3D('',#815,#639,#640);
#525=AXIS2_PLACEMENT_3D('',#820,#643,#644);
#526=AXIS2_PLACEMENT_3D('',#822,#645,#646);
#527=AXIS2_PLACEMENT_3D('',#823,#647,#648);
#528=AXIS2_PLACEMENT_3D('',#825,#650,#651);
#529=AXIS2_PLACEMENT_3D('',#827,#653,#654);
#530=AXIS2_PLACEMENT_3D('',#830,#656,#657);
#531=AXIS2_PLACEMENT_3D('',#831,#658,#659);
#532=AXIS2_PLACEMENT_3D('',#835,#662,#663);
#533=AXIS2_PLACEMENT_3D('',#839,#666,#667);
#534=AXIS2_PLACEMENT_3D('',#840,#668,#669);
#535=AXIS2_PLACEMENT_3D('',#841,#670,#671);
#536=DIRECTION('axis',(0.,0.,1.));
#537=DIRECTION('refdir',(1.,0.,0.));
#538=DIRECTION('center_axis',(1.23436916229656E-16,0.,1.));
#539=DIRECTION('ref_axis',(0.707106781186547,0.707106781186548,0.));
#540=DIRECTION('',(1.23436916229656E-16,0.,1.));
#541=DIRECTION('center_axis',(2.22044604925031E-15,0.,1.));
#542=DIRECTION('ref_axis',(1.,0.,-2.22044604925031E-15));
#543=DIRECTION('',(-1.23436916229656E-16,0.,-1.));
#544=DIRECTION('center_axis',(0.,1.,0.));
#545=DIRECTION('ref_axis',(0.,0.,1.));
#546=DIRECTION('center_axis',(0.,-1.,0.));
#547=DIRECTION('ref_axis',(-0.992380539255935,0.,0.1232106541907));
#548=DIRECTION('center_axis',(0.,1.,0.));
#549=DIRECTION('ref_axis',(-0.992380539255935,0.,0.1232106541907));
#550=DIRECTION('center_axis',(0.,1.,0.));
#551=DIRECTION('ref_axis',(-0.00651496689800157,0.,-0.999978777377959));
#552=DIRECTION('center_axis',(0.,1.,0.));
#553=DIRECTION('ref_axis',(-0.00651496689800164,0.,-0.999978777377959));
#554=DIRECTION('center_axis',(0.,-1.,0.));
#555=DIRECTION('ref_axis',(-0.00651496689800164,0.,-0.999978777377959));
#556=DIRECTION('center_axis',(3.95766609090541E-16,0.,-1.));
#557=DIRECTION('ref_axis',(-0.707106781186548,0.707106781186548,0.));
#558=DIRECTION('',(-3.95766609090541E-16,0.,1.));
#559=DIRECTION('center_axis',(0.,0.,1.));
#560=DIRECTION('ref_axis',(-0.707106781186548,0.707106781186548,0.));
#561=DIRECTION('',(3.95766609090541E-16,0.,-1.));
#562=DIRECTION('center_axis',(0.,1.,0.));
#563=DIRECTION('ref_axis',(-0.807332468246951,0.,0.590096844352083));
#564=DIRECTION('',(0.,-1.,0.));
#565=DIRECTION('',(0.,-1.,0.));
#566=DIRECTION('center_axis',(0.,-1.,0.));
#567=DIRECTION('ref_axis',(-0.807332468246951,0.,0.590096844352083));
#568=DIRECTION('',(0.,-1.,0.));
#569=DIRECTION('center_axis',(0.,1.,0.));
#570=DIRECTION('ref_axis',(-0.807332468246951,0.,0.590096844352083));
#571=DIRECTION('center_axis',(-1.,0.,1.23436916229656E-16));
#572=DIRECTION('ref_axis',(1.23436916229656E-16,0.,1.));
#573=DIRECTION('',(0.,1.,0.));
#574=DIRECTION('',(1.23436916229656E-16,0.,1.));
#575=DIRECTION('center_axis',(1.,0.,-1.23436916229656E-16));
#576=DIRECTION('ref_axis',(5.55111512312578E-16,0.,-1.));
#577=DIRECTION('center_axis',(1.,0.,-1.23436916229656E-16));
#578=DIRECTION('ref_axis',(0.,0.,-1.));
#579=DIRECTION('center_axis',(0.,1.,0.));
#580=DIRECTION('ref_axis',(-0.00651496689800203,0.,-0.999978777377959));
#581=DIRECTION('',(0.,1.,0.));
#582=DIRECTION('center_axis',(0.,-1.,0.));
#583=DIRECTION('ref_axis',(-0.364518428011804,0.,0.931196174626917));
#584=DIRECTION('center_axis',(1.,0.,3.95766609090541E-16));
#585=DIRECTION('ref_axis',(3.95766609090541E-16,0.,-1.));
#586=DIRECTION('',(0.,1.,0.));
#587=DIRECTION('',(-3.95766609090541E-16,0.,1.));
#588=DIRECTION('center_axis',(-1.,0.,-3.95766609090541E-16));
#589=DIRECTION('ref_axis',(5.55111512312578E-16,0.,-1.));
#590=DIRECTION('center_axis',(5.84030743324096E-15,0.,1.));
#591=DIRECTION('ref_axis',(1.,0.,-5.84030743324096E-15));
#592=DIRECTION('',(1.,0.,-5.84030743324096E-15));
#593=DIRECTION('',(-1.,0.,5.84030743324096E-15));
#594=DIRECTION('',(0.,1.,0.));
#595=DIRECTION('',(1.,0.,-5.84030743324096E-15));
#596=DIRECTION('',(0.,1.,0.));
#597=DIRECTION('center_axis',(-1.,0.,-8.88229217690859E-17));
#598=DIRECTION('ref_axis',(-8.88229217690859E-17,0.,1.));
#599=DIRECTION('',(-8.88229217690859E-17,0.,1.));
#600=DIRECTION('',(-8.88229217690859E-17,0.,1.));
#601=DIRECTION('',(0.,1.,0.));
#602=DIRECTION('center_axis',(0.,1.,0.));
#603=DIRECTION('ref_axis',(-0.109119906413614,0.,-0.994028594168339));
#604=DIRECTION('center_axis',(0.,1.,0.));
#605=DIRECTION('ref_axis',(0.554366630022254,0.,0.832272575252705));
#606=DIRECTION('center_axis',(0.,1.,0.));
#607=DIRECTION('ref_axis',(0.554366630022254,0.,0.832272575252705));
#608=DIRECTION('',(0.,1.,0.));
#609=DIRECTION('center_axis',(0.998850665741021,0.,0.0479306535394583));
#610=DIRECTION('ref_axis',(0.0479306535394583,0.,-0.998850665741021));
#611=DIRECTION('',(0.0479306535394583,0.,-0.998850665741021));
#612=DIRECTION('',(0.0479306535394583,0.,-0.998850665741021));
#613=DIRECTION('',(0.,1.,0.));
#614=DIRECTION('center_axis',(0.,0.,1.));
#615=DIRECTION('ref_axis',(1.,0.,0.));
#616=DIRECTION('',(1.,0.,0.));
#617=DIRECTION('',(1.,0.,0.));
#618=DIRECTION('',(0.,1.,0.));
#619=DIRECTION('center_axis',(0.,1.,0.));
#620=DIRECTION('ref_axis',(-1.,0.,0.));
#621=DIRECTION('',(1.4894613115724E-16,0.,1.));
#622=DIRECTION('',(2.60315992321458E-17,0.,-1.));
#623=DIRECTION('center_axis',(0.,-1.,0.));
#624=DIRECTION('ref_axis',(0.203459720973003,0.,0.979083317160285));
#625=DIRECTION('center_axis',(0.,1.,0.));
#626=DIRECTION('ref_axis',(-1.,0.,0.));
#627=DIRECTION('',(1.4894613115724E-16,0.,1.));
#628=DIRECTION('',(1.,0.,0.));
#629=DIRECTION('center_axis',(0.,1.,0.));
#630=DIRECTION('ref_axis',(0.235294117647059,0.,-0.971924214226959));
#631=DIRECTION('',(0.,-1.,0.));
#632=DIRECTION('center_axis',(0.,-1.,0.));
#633=DIRECTION('ref_axis',(0.235294117647059,0.,-0.971924214226959));
#634=DIRECTION('center_axis',(0.,1.,0.));
#635=DIRECTION('ref_axis',(0.235294117647059,0.,-0.971924214226959));
#636=DIRECTION('center_axis',(0.,-1.,0.));
#637=DIRECTION('ref_axis',(-1.,0.,0.));
#638=DIRECTION('',(0.,0.,-1.));
#639=DIRECTION('center_axis',(1.,0.,0.));
#640=DIRECTION('ref_axis',(0.,0.,-1.));
#641=DIRECTION('',(0.,0.,-1.));
#642=DIRECTION('',(0.,1.,0.));
#643=DIRECTION('center_axis',(-1.,0.,0.));
#644=DIRECTION('ref_axis',(5.55111512312578E-16,0.,-1.));
#645=DIRECTION('center_axis',(-1.,0.,0.));
#646=DIRECTION('ref_axis',(0.,0.,-1.));
#647=DIRECTION('center_axis',(-1.,0.,0.));
#648=DIRECTION('ref_axis',(0.,0.,-1.));
#649=DIRECTION('',(-1.,0.,0.));
#650=DIRECTION('center_axis',(-1.,0.,-5.55111512312578E-16));
#651=DIRECTION('ref_axis',(5.55111512312578E-16,0.,-1.));
#652=DIRECTION('',(-1.,0.,-5.55111512312578E-16));
#653=DIRECTION('center_axis',(-1.,0.,-5.55111512312578E-16));
#654=DIRECTION('ref_axis',(5.55111512312578E-16,0.,-1.));
#655=DIRECTION('',(-1.,0.,-5.55111512312578E-16));
#656=DIRECTION('center_axis',(1.,0.,0.));
#657=DIRECTION('ref_axis',(5.55111512312578E-16,0.,-1.));
#658=DIRECTION('center_axis',(0.,0.,1.));
#659=DIRECTION('ref_axis',(1.,0.,0.));
#660=DIRECTION('',(-1.,0.,0.));
#661=DIRECTION('',(0.,1.,0.));
#662=DIRECTION('center_axis',(-1.,0.,0.));
#663=DIRECTION('ref_axis',(0.,0.,1.));
#664=DIRECTION('',(0.,0.,-1.));
#665=DIRECTION('',(0.,1.,0.));
#666=DIRECTION('center_axis',(0.,1.,0.));
#667=DIRECTION('ref_axis',(-0.00788448504931902,0.,-0.999968916964676));
#668=DIRECTION('center_axis',(0.,-1.,0.));
#669=DIRECTION('ref_axis',(-0.187995769126193,0.,0.982169838057885));
#670=DIRECTION('center_axis',(0.,-1.,0.));
#671=DIRECTION('ref_axis',(-1.,0.,0.));
#672=CARTESIAN_POINT('',(0.,0.,0.));
#673=CARTESIAN_POINT('Origin',(3.99999999999999,-30.5,-100.091398403157));
#674=CARTESIAN_POINT('',(5.99999999999999,-30.5,-107.626932576513));
#675=CARTESIAN_POINT('',(6.,-30.5,-26.6786431439082));
#676=CARTESIAN_POINT('',(5.99999999999999,-30.5,-100.091398403157));
#677=CARTESIAN_POINT('',(4.,-28.5,-26.6786431439082));
#678=CARTESIAN_POINT('Origin',(4.,-30.5,-26.6786431439082));
#679=CARTESIAN_POINT('',(3.99999999999999,-28.5,-106.302981895991));
#680=CARTESIAN_POINT('',(3.99999999999999,-28.5,-100.091398403157));
#681=CARTESIAN_POINT('Ctrl Pts',(3.99999999999999,-28.5,-106.302981895991));
#682=CARTESIAN_POINT('Ctrl Pts',(4.00210685012979,-28.5,-106.304335981362));
#683=CARTESIAN_POINT('Ctrl Pts',(4.00421364545356,-28.5000033291131,-106.305690152447));
#684=CARTESIAN_POINT('Ctrl Pts',(4.24547501030426,-28.5007657644435,-106.460778001235));
#685=CARTESIAN_POINT('Ctrl Pts',(4.48410405762731,-28.5444154685602,-106.615784726592));
#686=CARTESIAN_POINT('Ctrl Pts',(4.93039810374022,-28.7140297089753,-106.90855985816));
#687=CARTESIAN_POINT('Ctrl Pts',(5.1391194540438,-28.8377556563469,-107.04693499306));
#688=CARTESIAN_POINT('Ctrl Pts',(5.49694715221659,-29.1536925590562,-107.286031630655));
#689=CARTESIAN_POINT('Ctrl Pts',(5.64799064457522,-29.3404837780633,-107.387899022273));
#690=CARTESIAN_POINT('Ctrl Pts',(5.86436427701052,-29.7452513662795,-107.534461220584));
#691=CARTESIAN_POINT('Ctrl Pts',(5.93632778928987,-29.9522418073959,-107.583509934561));
#692=CARTESIAN_POINT('Ctrl Pts',(5.99094551847498,-30.2802473878792,-107.620750807326));
#693=CARTESIAN_POINT('Ctrl Pts',(5.99999999999997,-30.3901170419895,-107.626932576513));
#694=CARTESIAN_POINT('Ctrl Pts',(5.99999999999999,-30.4999999999995,-107.626932576513));
#695=CARTESIAN_POINT('Origin',(8.5,-30.5,-26.6786431439082));
#696=CARTESIAN_POINT('',(6.0759043265305,-30.5,-26.067283866669));
#697=CARTESIAN_POINT('',(4.04172232424521,-28.5,-26.067283866669));
#698=CARTESIAN_POINT('Ctrl Pts',(6.0759043265305,-30.5,-26.067283866669));
#699=CARTESIAN_POINT('Ctrl Pts',(6.0759043265305,-30.2549463875936,-26.067283866669));
#700=CARTESIAN_POINT('Ctrl Pts',(6.01707614397018,-29.9668264854876,-26.067283866669));
#701=CARTESIAN_POINT('Ctrl Pts',(5.82527345855904,-29.5118322192419,-26.067283866669));
#702=CARTESIAN_POINT('Ctrl Pts',(5.65721968867935,-29.2651835814162,-26.067283866669));
#703=CARTESIAN_POINT('Ctrl Pts',(5.30170402761995,-28.9144102564646,-26.067283866669));
#704=CARTESIAN_POINT('Ctrl Pts',(5.05062977106178,-28.7486424478276,-26.067283866669));
#705=CARTESIAN_POINT('Ctrl Pts',(4.5869941311222,-28.5583505034496,-26.067283866669));
#706=CARTESIAN_POINT('Ctrl Pts',(4.29217261980649,-28.5,-26.067283866669));
#707=CARTESIAN_POINT('Ctrl Pts',(4.04172232424521,-28.5,-26.067283866669));
#708=CARTESIAN_POINT('Origin',(8.5,-28.5,-26.6786431439082));
#709=CARTESIAN_POINT('Origin',(8.5,-30.5,-26.6786431439082));
#710=CARTESIAN_POINT('Origin',(14.3839238442715,-30.5,-129.044444592932));
#711=CARTESIAN_POINT('',(23.0461988217855,-30.5,-107.737990354511));
#712=CARTESIAN_POINT('Origin',(14.3839238442715,-30.5,-129.044444592932));
#713=CARTESIAN_POINT('',(25.0461988217855,-28.5,-106.432149435123));
#714=CARTESIAN_POINT('Origin',(14.3839238442715,-28.5,-129.044444592932));
#715=CARTESIAN_POINT('Ctrl Pts',(25.0461988217855,-28.5,-106.432149435123));
#716=CARTESIAN_POINT('Ctrl Pts',(25.0440918065066,-28.5,-106.433485425366));
#717=CARTESIAN_POINT('Ctrl Pts',(25.0419848446065,-28.500003329635,-106.434821500162));
#718=CARTESIAN_POINT('Ctrl Pts',(24.8130353715307,-28.5007269140735,-106.580016693336));
#719=CARTESIAN_POINT('Ctrl Pts',(24.5866948884718,-28.5400350152417,-106.724971345524));
#720=CARTESIAN_POINT('Ctrl Pts',(24.1604388783245,-28.692963593352,-107.000515268486));
#721=CARTESIAN_POINT('Ctrl Pts',(23.9597172491271,-28.8047839811107,-107.131558144488));
#722=CARTESIAN_POINT('Ctrl Pts',(23.5982161982797,-29.1006250099177,-107.369376662796));
#723=CARTESIAN_POINT('Ctrl Pts',(23.438559835761,-29.2845018356278,-107.475415508974));
#724=CARTESIAN_POINT('Ctrl Pts',(23.2066198451614,-29.6862533868983,-107.630190371751));
#725=CARTESIAN_POINT('Ctrl Pts',(23.1274352818736,-29.8927532987782,-107.683374003215));
#726=CARTESIAN_POINT('Ctrl Pts',(23.0588471281729,-30.240528488758,-107.72947394324));
#727=CARTESIAN_POINT('Ctrl Pts',(23.0461988217855,-30.3701269543166,-107.737990354511));
#728=CARTESIAN_POINT('Ctrl Pts',(23.0461988217855,-30.5,-107.737990354511));
#729=CARTESIAN_POINT('Origin',(25.0461988217855,-30.5,-94.5364336369362));
#730=CARTESIAN_POINT('',(25.0461988217855,-28.5,-96.5170030440717));
#731=CARTESIAN_POINT('',(25.0461988217855,-28.5,-94.5364336369362));
#732=CARTESIAN_POINT('',(23.0461988217855,-30.5,-96.5170030440717));
#733=CARTESIAN_POINT('Origin',(25.0461988217855,-30.5,-96.5170030440717));
#734=CARTESIAN_POINT('',(23.0461988217855,-30.5,-94.5364336369362));
#735=CARTESIAN_POINT('Origin',(8.5,-43.5,-26.6786431439082));
#736=CARTESIAN_POINT('',(6.0759043265305,-28.5,-26.067283866669));
#737=CARTESIAN_POINT('',(6.0759043265305,-43.5,-26.067283866669));
#738=CARTESIAN_POINT('',(6.,-43.5,-26.6786431439082));
#739=CARTESIAN_POINT('',(6.,-43.5,-26.6786431439082));
#740=CARTESIAN_POINT('',(7.74107142857143,-43.5,-24.2966214346307));
#741=CARTESIAN_POINT('Origin',(8.5,-43.5,-26.6786431439082));
#742=CARTESIAN_POINT('',(7.74107142857143,-28.5,-24.2966214346307));
#743=CARTESIAN_POINT('',(7.74107142857143,-43.5,-24.2966214346307));
#744=CARTESIAN_POINT('Origin',(8.5,-28.5,-26.6786431439082));
#745=CARTESIAN_POINT('Origin',(5.99999999999999,-43.5,-107.626932576513));
#746=CARTESIAN_POINT('',(5.99999999999999,-43.5,-107.626932576513));
#747=CARTESIAN_POINT('',(5.99999999999999,-43.5,-107.626932576513));
#748=CARTESIAN_POINT('',(5.99999999999999,-43.5,-107.626932576513));
#749=CARTESIAN_POINT('',(5.99999999999999,-36.,-99.6274966992915));
#750=CARTESIAN_POINT('Origin',(5.99999999999999,-36.,-102.127496699291));
#751=CARTESIAN_POINT('',(5.99999999999999,-36.,-28.6622329829854));
#752=CARTESIAN_POINT('Origin',(5.99999999999999,-36.,-31.1622329829854));
#753=CARTESIAN_POINT('Origin',(14.3839238442715,-43.5,-129.044444592932));
#754=CARTESIAN_POINT('',(23.0461988217855,-43.5,-107.737990354511));
#755=CARTESIAN_POINT('',(23.0461988217855,-43.5,-107.737990354511));
#756=CARTESIAN_POINT('Origin',(14.3839238442715,-43.5,-129.044444592932));
#757=CARTESIAN_POINT('Origin',(23.0461988217855,-43.5,-96.5170030440717));
#758=CARTESIAN_POINT('',(23.0461988217855,-43.5,-96.5170030440717));
#759=CARTESIAN_POINT('',(23.0461988217855,-43.5,-96.5170030440717));
#760=CARTESIAN_POINT('',(23.0461988217855,-43.5,-107.737990354511));
#761=CARTESIAN_POINT('',(23.0461988217855,-36.,-99.6274966992915));
#762=CARTESIAN_POINT('Origin',(23.0461988217855,-36.,-102.127496699291));
#763=CARTESIAN_POINT('Origin',(3.56549251337029,-28.5,-26.067283866669));
#764=CARTESIAN_POINT('',(3.56549251337029,-28.5,-26.067283866669));
#765=CARTESIAN_POINT('',(3.56549251337029,-28.5,-26.067283866669));
#766=CARTESIAN_POINT('',(11.,-28.5,-26.067283866669));
#767=CARTESIAN_POINT('',(8.97470817882106,-28.5,-26.067283866669));
#768=CARTESIAN_POINT('',(11.,-23.5,-26.067283866669));
#769=CARTESIAN_POINT('',(11.,-28.5,-26.067283866669));
#770=CARTESIAN_POINT('',(3.56549251337029,-23.5,-26.067283866669));
#771=CARTESIAN_POINT('',(3.56549251337029,-23.5,-26.067283866669));
#772=CARTESIAN_POINT('',(3.56549251337029,-28.5,-26.067283866669));
#773=CARTESIAN_POINT('Origin',(3.56549251337029,-28.5,-101.062994603009));
#774=CARTESIAN_POINT('',(3.56549251337029,-28.5,-101.062994603009));
#775=CARTESIAN_POINT('',(3.56549251337029,-28.5,-101.062994603009));
#776=CARTESIAN_POINT('',(3.56549251337029,-23.5,-101.062994603009));
#777=CARTESIAN_POINT('',(3.56549251337029,-23.5,-101.062994603009));
#778=CARTESIAN_POINT('',(3.56549251337029,-28.5,-101.062994603009));
#779=CARTESIAN_POINT('Origin',(14.3839238442715,-28.5,-129.044444592932));
#780=CARTESIAN_POINT('',(31.0149227449391,-28.5,-104.076267335351));
#781=CARTESIAN_POINT('Origin',(14.3839238442715,-28.5,-129.044444592932));
#782=CARTESIAN_POINT('',(31.0149227449391,-23.5,-104.076267335351));
#783=CARTESIAN_POINT('Origin',(14.3839238442715,-23.5,-129.044444592932));
#784=CARTESIAN_POINT('',(31.0149227449391,-28.5,-104.076267335351));
#785=CARTESIAN_POINT('Origin',(30.6520044392823,-28.5,-96.5132327333622));
#786=CARTESIAN_POINT('',(30.6520044392823,-28.5,-96.5132327333622));
#787=CARTESIAN_POINT('',(30.6520044392823,-28.5,-96.5132327333622));
#788=CARTESIAN_POINT('',(30.6520044392823,-23.5,-96.5132327333622));
#789=CARTESIAN_POINT('',(30.6520044392823,-23.5,-96.5132327333622));
#790=CARTESIAN_POINT('',(30.6520044392823,-28.5,-96.5132327333622));
#791=CARTESIAN_POINT('Origin',(18.0461988217855,-28.5,-96.5132327333622));
#792=CARTESIAN_POINT('',(18.0461988217855,-28.5,-96.5132327333622));
#793=CARTESIAN_POINT('',(18.0461988217855,-28.5,-96.5132327333622));
#794=CARTESIAN_POINT('',(18.0461988217855,-23.5,-96.5132327333622));
#795=CARTESIAN_POINT('',(18.0461988217855,-23.5,-96.5132327333622));
#796=CARTESIAN_POINT('',(18.0461988217855,-28.5,-96.5132327333622));
#797=CARTESIAN_POINT('Origin',(14.3839238442715,-23.5,-92.5558642298007));
#798=CARTESIAN_POINT('',(18.0461988217855,-23.5,-111.420944884047));
#799=CARTESIAN_POINT('',(18.0461988217855,-23.5,-111.420944884047));
#800=CARTESIAN_POINT('',(11.,-23.5,-111.36538750789));
#801=CARTESIAN_POINT('',(11.,-23.5,-26.067283866669));
#802=CARTESIAN_POINT('Origin',(14.3839238442715,-23.5,-129.044444592932));
#803=CARTESIAN_POINT('Origin',(14.3839238442715,-28.5,-92.5558642298007));
#804=CARTESIAN_POINT('',(18.0461988217855,-28.5,-96.5170030440717));
#805=CARTESIAN_POINT('',(18.0461988217855,-28.5,-111.420944884047));
#806=CARTESIAN_POINT('',(23.0461988217855,-28.5,-96.5170030440717));
#807=CARTESIAN_POINT('Origin',(0.,-43.5,0.));
#808=CARTESIAN_POINT('',(11.,-28.5,-23.0054341406547));
#809=CARTESIAN_POINT('',(11.,-43.5,-23.0054341406547));
#810=CARTESIAN_POINT('',(11.,-43.5,-23.0054341406547));
#811=CARTESIAN_POINT('Origin',(0.,-28.5,0.));
#812=CARTESIAN_POINT('Origin',(0.,-43.5,0.));
#813=CARTESIAN_POINT('Origin',(14.3839238442715,-28.5,-89.3615438684203));
#814=CARTESIAN_POINT('',(11.,-28.5,-26.6786431439082));
#815=CARTESIAN_POINT('Origin',(11.,-43.5,-26.6786431439082));
#816=CARTESIAN_POINT('',(11.,-43.5,-111.36538750789));
#817=CARTESIAN_POINT('',(11.,-43.5,-26.6786431439082));
#818=CARTESIAN_POINT('',(11.,-43.5,-111.36538750789));
#819=CARTESIAN_POINT('',(11.,-36.,-99.6274966992915));
#820=CARTESIAN_POINT('Origin',(11.,-36.,-102.127496699291));
#821=CARTESIAN_POINT('',(11.,-36.,-28.6622329829854));
#822=CARTESIAN_POINT('Origin',(11.,-36.,-31.1622329829854));
#823=CARTESIAN_POINT('Origin',(11.,-36.,-31.1622329829854));
#824=CARTESIAN_POINT('',(11.,-36.,-28.6622329829854));
#825=CARTESIAN_POINT('Origin',(23.0461988217855,-36.,-102.127496699291));
#826=CARTESIAN_POINT('',(23.0461988217855,-36.,-99.6274966992915));
#827=CARTESIAN_POINT('Origin',(23.0461988217855,-36.,-102.127496699291));
#828=CARTESIAN_POINT('',(18.0461988217855,-36.,-99.6274966992915));
#829=CARTESIAN_POINT('',(23.0461988217855,-36.,-99.6274966992915));
#830=CARTESIAN_POINT('Origin',(18.0461988217855,-36.,-102.127496699291));
#831=CARTESIAN_POINT('Origin',(18.0461988217855,-43.5,-96.5170030440717));
#832=CARTESIAN_POINT('',(18.0461988217855,-43.5,-96.5170030440717));
#833=CARTESIAN_POINT('',(23.0461988217855,-43.5,-96.5170030440717));
#834=CARTESIAN_POINT('',(18.0461988217855,-43.5,-96.5170030440717));
#835=CARTESIAN_POINT('Origin',(18.0461988217855,-43.5,-111.420944884047));
#836=CARTESIAN_POINT('',(18.0461988217855,-43.5,-111.420944884047));
#837=CARTESIAN_POINT('',(18.0461988217855,-43.5,-96.5170030440717));
#838=CARTESIAN_POINT('',(18.0461988217855,-43.5,-111.420944884047));
#839=CARTESIAN_POINT('Origin',(14.3839238442715,-43.5,-129.044444592932));
#840=CARTESIAN_POINT('Origin',(14.3839238442715,-43.5,-129.044444592932));
#841=CARTESIAN_POINT('Origin',(14.3839238442715,-43.5,-89.3615438684203));
#842=UNCERTAINTY_MEASURE_WITH_UNIT(LENGTH_MEASURE(0.01),#846,
'DISTANCE_ACCURACY_VALUE',
'Maximum model space distance between geometric entities at asserted c
onnectivities');
#843=UNCERTAINTY_MEASURE_WITH_UNIT(LENGTH_MEASURE(0.01),#846,
'DISTANCE_ACCURACY_VALUE',
'Maximum model space distance between geometric entities at asserted c
onnectivities');
#844=(
GEOMETRIC_REPRESENTATION_CONTEXT(3)
GLOBAL_UNCERTAINTY_ASSIGNED_CONTEXT((#842))
GLOBAL_UNIT_ASSIGNED_CONTEXT((#846,#848,#849))
REPRESENTATION_CONTEXT('','3D')
);
#845=(
GEOMETRIC_REPRESENTATION_CONTEXT(3)
GLOBAL_UNCERTAINTY_ASSIGNED_CONTEXT((#843))
GLOBAL_UNIT_ASSIGNED_CONTEXT((#846,#848,#849))
REPRESENTATION_CONTEXT('','3D')
);
#846=(
LENGTH_UNIT()
NAMED_UNIT(*)
SI_UNIT(.MILLI.,.METRE.)
);
#847=(
LENGTH_UNIT()
NAMED_UNIT(*)
SI_UNIT($,.METRE.)
);
#848=(
NAMED_UNIT(*)
PLANE_ANGLE_UNIT()
SI_UNIT($,.RADIAN.)
);
#849=(
NAMED_UNIT(*)
SI_UNIT($,.STERADIAN.)
SOLID_ANGLE_UNIT()
);
#850=SHAPE_DEFINITION_REPRESENTATION(#851,#852);
#851=PRODUCT_DEFINITION_SHAPE('',$,#854);
#852=SHAPE_REPRESENTATION('',(#489),#844);
#853=PRODUCT_DEFINITION_CONTEXT('part definition',#858,'design');
#854=PRODUCT_DEFINITION('obudowa_anteny','obudowa_anteny v12',#855,#853);
#855=PRODUCT_DEFINITION_FORMATION('',$,#860);
#856=PRODUCT_RELATED_PRODUCT_CATEGORY('obudowa_anteny v12',
'obudowa_anteny v12',(#860));
#857=APPLICATION_PROTOCOL_DEFINITION('international standard',
'automotive_design',2009,#858);
#858=APPLICATION_CONTEXT(
'Core Data for Automotive Mechanical Design Process');
#859=PRODUCT_CONTEXT('part definition',#858,'mechanical');
#860=PRODUCT('obudowa_anteny','obudowa_anteny v12',$,(#859));
#861=PRESENTATION_STYLE_ASSIGNMENT((#863));
#862=PRESENTATION_STYLE_ASSIGNMENT((#864));
#863=SURFACE_STYLE_USAGE(.BOTH.,#865);
#864=SURFACE_STYLE_USAGE(.BOTH.,#866);
#865=SURFACE_SIDE_STYLE('',(#867));
#866=SURFACE_SIDE_STYLE('',(#868));
#867=SURFACE_STYLE_FILL_AREA(#869);
#868=SURFACE_STYLE_FILL_AREA(#870);
#869=FILL_AREA_STYLE('Stal \X2\2014\X0\ satynowa',(#871));
#870=FILL_AREA_STYLE('FR4',(#872));
#871=FILL_AREA_STYLE_COLOUR('Stal \X2\2014\X0\ satynowa',#873);
#872=FILL_AREA_STYLE_COLOUR('FR4',#874);
#873=COLOUR_RGB('Stal \X2\2014\X0\ satynowa',0.627450980392157,0.627450980392157,
0.627450980392157);
#874=COLOUR_RGB('FR4',0.266666666666667,0.466666666666667,0.4);
ENDSEC;
END-ISO-10303-21;
