ISO-10303-21;
HEADER;
/* Generated by software containing ST-Developer
 * from STEP Tools, Inc. (www.steptools.com) 
 */

FILE_DESCRIPTION(
/* description */ (''),
/* implementation_level */ '2;1');

FILE_NAME(
/* name */ 'Mast_bracket_50mm.step',
/* time_stamp */ '2026-04-28T21:28:18+02:00',
/* author */ (''),
/* organization */ (''),
/* preprocessor_version */ 'ST-DEVELOPER v20.1',
/* originating_system */ 'Autodesk Translation Framework v15.8.0.0',
/* authorisation */ '');

FILE_SCHEMA (('AUTOMOTIVE_DESIGN { 1 0 10303 214 3 1 1 }'));
ENDSEC;

DATA;
#10=MECHANICAL_DESIGN_GEOMETRIC_PRESENTATION_REPRESENTATION('',(#13),#814);
#11=SHAPE_REPRESENTATION_RELATIONSHIP('SRR','None',#821,#12);
#12=ADVANCED_BREP_SHAPE_REPRESENTATION('',(#14),#813);
#13=STYLED_ITEM('',(#830),#14);
#14=MANIFOLD_SOLID_BREP('Mast_bracket',#455);
#15=FACE_BOUND('',#65,.T.);
#16=FACE_BOUND('',#66,.T.);
#17=FACE_BOUND('',#69,.T.);
#18=FACE_BOUND('',#79,.T.);
#19=FACE_BOUND('',#80,.T.);
#20=FACE_BOUND('',#86,.T.);
#21=PLANE('',#482);
#22=PLANE('',#487);
#23=PLANE('',#489);
#24=PLANE('',#490);
#25=PLANE('',#494);
#26=PLANE('',#495);
#27=PLANE('',#497);
#28=PLANE('',#501);
#29=PLANE('',#502);
#30=PLANE('',#509);
#31=PLANE('',#510);
#32=PLANE('',#513);
#33=TOROIDAL_SURFACE('',#471,4.5,2.);
#34=TOROIDAL_SURFACE('',#474,33.,2.);
#35=FACE_OUTER_BOUND('',#59,.T.);
#36=FACE_OUTER_BOUND('',#60,.T.);
#37=FACE_OUTER_BOUND('',#61,.T.);
#38=FACE_OUTER_BOUND('',#62,.T.);
#39=FACE_OUTER_BOUND('',#63,.T.);
#40=FACE_OUTER_BOUND('',#64,.T.);
#41=FACE_OUTER_BOUND('',#67,.T.);
#42=FACE_OUTER_BOUND('',#68,.T.);
#43=FACE_OUTER_BOUND('',#70,.T.);
#44=FACE_OUTER_BOUND('',#71,.T.);
#45=FACE_OUTER_BOUND('',#72,.T.);
#46=FACE_OUTER_BOUND('',#73,.T.);
#47=FACE_OUTER_BOUND('',#74,.T.);
#48=FACE_OUTER_BOUND('',#75,.T.);
#49=FACE_OUTER_BOUND('',#76,.T.);
#50=FACE_OUTER_BOUND('',#77,.T.);
#51=FACE_OUTER_BOUND('',#78,.T.);
#52=FACE_OUTER_BOUND('',#81,.T.);
#53=FACE_OUTER_BOUND('',#82,.T.);
#54=FACE_OUTER_BOUND('',#83,.T.);
#55=FACE_OUTER_BOUND('',#84,.T.);
#56=FACE_OUTER_BOUND('',#85,.T.);
#57=FACE_OUTER_BOUND('',#87,.T.);
#58=FACE_OUTER_BOUND('',#88,.T.);
#59=EDGE_LOOP('',(#295,#296,#297,#298));
#60=EDGE_LOOP('',(#299,#300,#301,#302));
#61=EDGE_LOOP('',(#303,#304,#305,#306));
#62=EDGE_LOOP('',(#307,#308,#309,#310));
#63=EDGE_LOOP('',(#311,#312,#313,#314,#315,#316));
#64=EDGE_LOOP('',(#317,#318,#319,#320));
#65=EDGE_LOOP('',(#321));
#66=EDGE_LOOP('',(#322));
#67=EDGE_LOOP('',(#323,#324,#325,#326));
#68=EDGE_LOOP('',(#327,#328,#329,#330));
#69=EDGE_LOOP('',(#331));
#70=EDGE_LOOP('',(#332,#333,#334,#335,#336,#337,#338));
#71=EDGE_LOOP('',(#339,#340,#341,#342));
#72=EDGE_LOOP('',(#343,#344,#345,#346));
#73=EDGE_LOOP('',(#347,#348,#349,#350));
#74=EDGE_LOOP('',(#351,#352,#353,#354,#355,#356,#357,#358));
#75=EDGE_LOOP('',(#359,#360,#361,#362,#363,#364,#365,#366,#367));
#76=EDGE_LOOP('',(#368,#369,#370,#371));
#77=EDGE_LOOP('',(#372,#373,#374,#375));
#78=EDGE_LOOP('',(#376,#377,#378,#379,#380,#381));
#79=EDGE_LOOP('',(#382));
#80=EDGE_LOOP('',(#383));
#81=EDGE_LOOP('',(#384,#385,#386,#387));
#82=EDGE_LOOP('',(#388,#389,#390,#391));
#83=EDGE_LOOP('',(#392,#393,#394,#395));
#84=EDGE_LOOP('',(#396,#397,#398,#399,#400,#401,#402));
#85=EDGE_LOOP('',(#403,#404,#405,#406));
#86=EDGE_LOOP('',(#407));
#87=EDGE_LOOP('',(#408,#409,#410,#411));
#88=EDGE_LOOP('',(#412,#413,#414,#415,#416,#417,#418,#419,#420));
#89=B_SPLINE_CURVE_WITH_KNOTS('',3,(#654,#655,#656,#657,#658,#659,#660,
#661,#662,#663,#664,#665,#666,#667),.UNSPECIFIED.,.F.,.F.,(4,2,2,2,2,2,
4),(-0.000779506709318382,0.,0.0718132982078333,0.141946138975328,0.22633649393188,
0.295460028896661,0.35406879259026),.UNSPECIFIED.);
#90=B_SPLINE_CURVE_WITH_KNOTS('',3,(#671,#672,#673,#674,#675,#676,#677,
#678,#679,#680),.UNSPECIFIED.,.F.,.F.,(4,2,2,2,4),(0.595680262550378,0.669196346272291,
0.743811031536001,0.819026243048764,0.894161331717148),.UNSPECIFIED.);
#91=B_SPLINE_CURVE_WITH_KNOTS('',3,(#688,#689,#690,#691,#692,#693,#694,
#695,#696,#697,#698,#699,#700,#701,#702,#703),.UNSPECIFIED.,.F.,.F.,(4,
2,2,2,2,2,2,4),(-0.707204796486428,-0.706429031479059,-0.640752905369037,
-0.576333219862256,-0.489843570932837,-0.419035256293221,-0.354927732177536,
-0.353070346504933),.UNSPECIFIED.);
#92=CIRCLE('',#470,2.);
#93=CIRCLE('',#472,4.5);
#94=CIRCLE('',#473,2.5);
#95=CIRCLE('',#475,31.);
#96=CIRCLE('',#476,33.);
#97=CIRCLE('',#478,2.);
#98=CIRCLE('',#480,2.5);
#99=CIRCLE('',#481,2.5);
#100=CIRCLE('',#483,2.5);
#101=CIRCLE('',#484,2.5);
#102=CIRCLE('',#486,31.);
#103=CIRCLE('',#488,2.5);
#104=CIRCLE('',#492,36.);
#105=CIRCLE('',#493,36.);
#106=CIRCLE('',#496,26.);
#107=CIRCLE('',#499,25.5);
#108=CIRCLE('',#500,25.5);
#109=CIRCLE('',#503,2.5);
#110=CIRCLE('',#504,2.5);
#111=CIRCLE('',#508,2.5);
#112=CIRCLE('',#512,26.);
#113=LINE('',#649,#152);
#114=LINE('',#653,#153);
#115=LINE('',#706,#154);
#116=LINE('',#709,#155);
#117=LINE('',#712,#156);
#118=LINE('',#714,#157);
#119=LINE('',#718,#158);
#120=LINE('',#722,#159);
#121=LINE('',#723,#160);
#122=LINE('',#730,#161);
#123=LINE('',#734,#162);
#124=LINE('',#735,#163);
#125=LINE('',#740,#164);
#126=LINE('',#742,#165);
#127=LINE('',#744,#166);
#128=LINE('',#746,#167);
#129=LINE('',#747,#168);
#130=LINE('',#750,#169);
#131=LINE('',#752,#170);
#132=LINE('',#753,#171);
#133=LINE('',#759,#172);
#134=LINE('',#762,#173);
#135=LINE('',#764,#174);
#136=LINE('',#765,#175);
#137=LINE('',#769,#176);
#138=LINE('',#770,#177);
#139=LINE('',#772,#178);
#140=LINE('',#775,#179);
#141=LINE('',#779,#180);
#142=LINE('',#783,#181);
#143=LINE('',#786,#182);
#144=LINE('',#787,#183);
#145=LINE('',#793,#184);
#146=LINE('',#795,#185);
#147=LINE('',#798,#186);
#148=LINE('',#802,#187);
#149=LINE('',#803,#188);
#150=LINE('',#806,#189);
#151=LINE('',#807,#190);
#152=VECTOR('',#518,10.);
#153=VECTOR('',#521,10.);
#154=VECTOR('',#536,10.);
#155=VECTOR('',#539,10.);
#156=VECTOR('',#542,10.);
#157=VECTOR('',#543,10.);
#158=VECTOR('',#546,10.);
#159=VECTOR('',#551,10.);
#160=VECTOR('',#552,10.);
#161=VECTOR('',#559,10.);
#162=VECTOR('',#564,10.);
#163=VECTOR('',#565,10.);
#164=VECTOR('',#570,10.);
#165=VECTOR('',#571,10.);
#166=VECTOR('',#572,10.);
#167=VECTOR('',#573,10.);
#168=VECTOR('',#574,10.);
#169=VECTOR('',#577,10.);
#170=VECTOR('',#578,10.);
#171=VECTOR('',#579,10.);
#172=VECTOR('',#586,10.);
#173=VECTOR('',#589,10.);
#174=VECTOR('',#590,10.);
#175=VECTOR('',#591,10.);
#176=VECTOR('',#594,10.);
#177=VECTOR('',#595,10.);
#178=VECTOR('',#596,10.);
#179=VECTOR('',#601,10.);
#180=VECTOR('',#604,10.);
#181=VECTOR('',#611,10.);
#182=VECTOR('',#614,10.);
#183=VECTOR('',#615,10.);
#184=VECTOR('',#622,2.5);
#185=VECTOR('',#625,2.5);
#186=VECTOR('',#628,2.5);
#187=VECTOR('',#633,10.);
#188=VECTOR('',#634,10.);
#189=VECTOR('',#637,10.);
#190=VECTOR('',#638,10.);
#191=VERTEX_POINT('',#647);
#192=VERTEX_POINT('',#648);
#193=VERTEX_POINT('',#650);
#194=VERTEX_POINT('',#652);
#195=VERTEX_POINT('',#669);
#196=VERTEX_POINT('',#670);
#197=VERTEX_POINT('',#684);
#198=VERTEX_POINT('',#686);
#199=VERTEX_POINT('',#705);
#200=VERTEX_POINT('',#707);
#201=VERTEX_POINT('',#711);
#202=VERTEX_POINT('',#713);
#203=VERTEX_POINT('',#715);
#204=VERTEX_POINT('',#717);
#205=VERTEX_POINT('',#721);
#206=VERTEX_POINT('',#724);
#207=VERTEX_POINT('',#726);
#208=VERTEX_POINT('',#729);
#209=VERTEX_POINT('',#733);
#210=VERTEX_POINT('',#736);
#211=VERTEX_POINT('',#739);
#212=VERTEX_POINT('',#741);
#213=VERTEX_POINT('',#743);
#214=VERTEX_POINT('',#745);
#215=VERTEX_POINT('',#749);
#216=VERTEX_POINT('',#751);
#217=VERTEX_POINT('',#755);
#218=VERTEX_POINT('',#757);
#219=VERTEX_POINT('',#761);
#220=VERTEX_POINT('',#763);
#221=VERTEX_POINT('',#767);
#222=VERTEX_POINT('',#768);
#223=VERTEX_POINT('',#771);
#224=VERTEX_POINT('',#777);
#225=VERTEX_POINT('',#778);
#226=VERTEX_POINT('',#785);
#227=VERTEX_POINT('',#788);
#228=VERTEX_POINT('',#790);
#229=VERTEX_POINT('',#797);
#230=VERTEX_POINT('',#801);
#231=VERTEX_POINT('',#805);
#232=EDGE_CURVE('',#191,#192,#113,.T.);
#233=EDGE_CURVE('',#192,#193,#92,.T.);
#234=EDGE_CURVE('',#193,#194,#114,.T.);
#235=EDGE_CURVE('',#194,#191,#89,.T.);
#236=EDGE_CURVE('',#195,#196,#90,.T.);
#237=EDGE_CURVE('',#196,#193,#93,.T.);
#238=EDGE_CURVE('',#192,#195,#94,.T.);
#239=EDGE_CURVE('',#197,#191,#95,.T.);
#240=EDGE_CURVE('',#194,#198,#96,.T.);
#241=EDGE_CURVE('',#198,#197,#91,.T.);
#242=EDGE_CURVE('',#198,#199,#115,.T.);
#243=EDGE_CURVE('',#199,#200,#97,.T.);
#244=EDGE_CURVE('',#200,#197,#116,.T.);
#245=EDGE_CURVE('',#201,#195,#117,.T.);
#246=EDGE_CURVE('',#192,#202,#118,.T.);
#247=EDGE_CURVE('',#203,#202,#98,.T.);
#248=EDGE_CURVE('',#204,#203,#119,.T.);
#249=EDGE_CURVE('',#201,#204,#99,.T.);
#250=EDGE_CURVE('',#205,#191,#120,.T.);
#251=EDGE_CURVE('',#205,#202,#121,.T.);
#252=EDGE_CURVE('',#206,#206,#100,.T.);
#253=EDGE_CURVE('',#207,#207,#101,.T.);
#254=EDGE_CURVE('',#208,#197,#122,.T.);
#255=EDGE_CURVE('',#205,#208,#102,.T.);
#256=EDGE_CURVE('',#209,#200,#123,.T.);
#257=EDGE_CURVE('',#208,#209,#124,.T.);
#258=EDGE_CURVE('',#210,#210,#103,.T.);
#259=EDGE_CURVE('',#211,#196,#125,.T.);
#260=EDGE_CURVE('',#212,#201,#126,.T.);
#261=EDGE_CURVE('',#212,#213,#127,.T.);
#262=EDGE_CURVE('',#214,#213,#128,.T.);
#263=EDGE_CURVE('',#211,#214,#129,.T.);
#264=EDGE_CURVE('',#215,#211,#130,.T.);
#265=EDGE_CURVE('',#216,#214,#131,.T.);
#266=EDGE_CURVE('',#215,#216,#132,.T.);
#267=EDGE_CURVE('',#217,#215,#104,.T.);
#268=EDGE_CURVE('',#218,#216,#105,.T.);
#269=EDGE_CURVE('',#217,#218,#133,.T.);
#270=EDGE_CURVE('',#219,#217,#134,.T.);
#271=EDGE_CURVE('',#220,#218,#135,.T.);
#272=EDGE_CURVE('',#219,#220,#136,.T.);
#273=EDGE_CURVE('',#221,#222,#137,.T.);
#274=EDGE_CURVE('',#222,#220,#138,.T.);
#275=EDGE_CURVE('',#213,#223,#139,.T.);
#276=EDGE_CURVE('',#223,#221,#106,.T.);
#277=EDGE_CURVE('',#199,#219,#140,.T.);
#278=EDGE_CURVE('',#224,#225,#141,.T.);
#279=EDGE_CURVE('',#204,#224,#107,.T.);
#280=EDGE_CURVE('',#225,#203,#108,.T.);
#281=EDGE_CURVE('',#224,#212,#142,.T.);
#282=EDGE_CURVE('',#225,#226,#143,.T.);
#283=EDGE_CURVE('',#226,#223,#144,.T.);
#284=EDGE_CURVE('',#227,#227,#109,.T.);
#285=EDGE_CURVE('',#228,#228,#110,.T.);
#286=EDGE_CURVE('',#228,#207,#145,.T.);
#287=EDGE_CURVE('',#227,#206,#146,.T.);
#288=EDGE_CURVE('',#210,#229,#147,.T.);
#289=EDGE_CURVE('',#229,#229,#111,.T.);
#290=EDGE_CURVE('',#209,#230,#148,.T.);
#291=EDGE_CURVE('',#230,#222,#149,.T.);
#292=EDGE_CURVE('',#230,#231,#150,.T.);
#293=EDGE_CURVE('',#231,#221,#151,.T.);
#294=EDGE_CURVE('',#226,#231,#112,.T.);
#295=ORIENTED_EDGE('',*,*,#232,.T.);
#296=ORIENTED_EDGE('',*,*,#233,.T.);
#297=ORIENTED_EDGE('',*,*,#234,.T.);
#298=ORIENTED_EDGE('',*,*,#235,.T.);
#299=ORIENTED_EDGE('',*,*,#236,.T.);
#300=ORIENTED_EDGE('',*,*,#237,.T.);
#301=ORIENTED_EDGE('',*,*,#233,.F.);
#302=ORIENTED_EDGE('',*,*,#238,.T.);
#303=ORIENTED_EDGE('',*,*,#239,.T.);
#304=ORIENTED_EDGE('',*,*,#235,.F.);
#305=ORIENTED_EDGE('',*,*,#240,.T.);
#306=ORIENTED_EDGE('',*,*,#241,.T.);
#307=ORIENTED_EDGE('',*,*,#242,.T.);
#308=ORIENTED_EDGE('',*,*,#243,.T.);
#309=ORIENTED_EDGE('',*,*,#244,.T.);
#310=ORIENTED_EDGE('',*,*,#241,.F.);
#311=ORIENTED_EDGE('',*,*,#245,.T.);
#312=ORIENTED_EDGE('',*,*,#238,.F.);
#313=ORIENTED_EDGE('',*,*,#246,.T.);
#314=ORIENTED_EDGE('',*,*,#247,.F.);
#315=ORIENTED_EDGE('',*,*,#248,.F.);
#316=ORIENTED_EDGE('',*,*,#249,.F.);
#317=ORIENTED_EDGE('',*,*,#232,.F.);
#318=ORIENTED_EDGE('',*,*,#250,.F.);
#319=ORIENTED_EDGE('',*,*,#251,.T.);
#320=ORIENTED_EDGE('',*,*,#246,.F.);
#321=ORIENTED_EDGE('',*,*,#252,.T.);
#322=ORIENTED_EDGE('',*,*,#253,.T.);
#323=ORIENTED_EDGE('',*,*,#239,.F.);
#324=ORIENTED_EDGE('',*,*,#254,.F.);
#325=ORIENTED_EDGE('',*,*,#255,.F.);
#326=ORIENTED_EDGE('',*,*,#250,.T.);
#327=ORIENTED_EDGE('',*,*,#244,.F.);
#328=ORIENTED_EDGE('',*,*,#256,.F.);
#329=ORIENTED_EDGE('',*,*,#257,.F.);
#330=ORIENTED_EDGE('',*,*,#254,.T.);
#331=ORIENTED_EDGE('',*,*,#258,.T.);
#332=ORIENTED_EDGE('',*,*,#259,.T.);
#333=ORIENTED_EDGE('',*,*,#236,.F.);
#334=ORIENTED_EDGE('',*,*,#245,.F.);
#335=ORIENTED_EDGE('',*,*,#260,.F.);
#336=ORIENTED_EDGE('',*,*,#261,.T.);
#337=ORIENTED_EDGE('',*,*,#262,.F.);
#338=ORIENTED_EDGE('',*,*,#263,.F.);
#339=ORIENTED_EDGE('',*,*,#264,.T.);
#340=ORIENTED_EDGE('',*,*,#263,.T.);
#341=ORIENTED_EDGE('',*,*,#265,.F.);
#342=ORIENTED_EDGE('',*,*,#266,.F.);
#343=ORIENTED_EDGE('',*,*,#267,.T.);
#344=ORIENTED_EDGE('',*,*,#266,.T.);
#345=ORIENTED_EDGE('',*,*,#268,.F.);
#346=ORIENTED_EDGE('',*,*,#269,.F.);
#347=ORIENTED_EDGE('',*,*,#270,.T.);
#348=ORIENTED_EDGE('',*,*,#269,.T.);
#349=ORIENTED_EDGE('',*,*,#271,.F.);
#350=ORIENTED_EDGE('',*,*,#272,.F.);
#351=ORIENTED_EDGE('',*,*,#273,.T.);
#352=ORIENTED_EDGE('',*,*,#274,.T.);
#353=ORIENTED_EDGE('',*,*,#271,.T.);
#354=ORIENTED_EDGE('',*,*,#268,.T.);
#355=ORIENTED_EDGE('',*,*,#265,.T.);
#356=ORIENTED_EDGE('',*,*,#262,.T.);
#357=ORIENTED_EDGE('',*,*,#275,.T.);
#358=ORIENTED_EDGE('',*,*,#276,.T.);
#359=ORIENTED_EDGE('',*,*,#237,.F.);
#360=ORIENTED_EDGE('',*,*,#259,.F.);
#361=ORIENTED_EDGE('',*,*,#264,.F.);
#362=ORIENTED_EDGE('',*,*,#267,.F.);
#363=ORIENTED_EDGE('',*,*,#270,.F.);
#364=ORIENTED_EDGE('',*,*,#277,.F.);
#365=ORIENTED_EDGE('',*,*,#242,.F.);
#366=ORIENTED_EDGE('',*,*,#240,.F.);
#367=ORIENTED_EDGE('',*,*,#234,.F.);
#368=ORIENTED_EDGE('',*,*,#278,.F.);
#369=ORIENTED_EDGE('',*,*,#279,.F.);
#370=ORIENTED_EDGE('',*,*,#248,.T.);
#371=ORIENTED_EDGE('',*,*,#280,.F.);
#372=ORIENTED_EDGE('',*,*,#260,.T.);
#373=ORIENTED_EDGE('',*,*,#249,.T.);
#374=ORIENTED_EDGE('',*,*,#279,.T.);
#375=ORIENTED_EDGE('',*,*,#281,.T.);
#376=ORIENTED_EDGE('',*,*,#278,.T.);
#377=ORIENTED_EDGE('',*,*,#282,.T.);
#378=ORIENTED_EDGE('',*,*,#283,.T.);
#379=ORIENTED_EDGE('',*,*,#275,.F.);
#380=ORIENTED_EDGE('',*,*,#261,.F.);
#381=ORIENTED_EDGE('',*,*,#281,.F.);
#382=ORIENTED_EDGE('',*,*,#284,.T.);
#383=ORIENTED_EDGE('',*,*,#285,.T.);
#384=ORIENTED_EDGE('',*,*,#285,.F.);
#385=ORIENTED_EDGE('',*,*,#286,.T.);
#386=ORIENTED_EDGE('',*,*,#253,.F.);
#387=ORIENTED_EDGE('',*,*,#286,.F.);
#388=ORIENTED_EDGE('',*,*,#284,.F.);
#389=ORIENTED_EDGE('',*,*,#287,.T.);
#390=ORIENTED_EDGE('',*,*,#252,.F.);
#391=ORIENTED_EDGE('',*,*,#287,.F.);
#392=ORIENTED_EDGE('',*,*,#258,.F.);
#393=ORIENTED_EDGE('',*,*,#288,.T.);
#394=ORIENTED_EDGE('',*,*,#289,.F.);
#395=ORIENTED_EDGE('',*,*,#288,.F.);
#396=ORIENTED_EDGE('',*,*,#290,.F.);
#397=ORIENTED_EDGE('',*,*,#256,.T.);
#398=ORIENTED_EDGE('',*,*,#243,.F.);
#399=ORIENTED_EDGE('',*,*,#277,.T.);
#400=ORIENTED_EDGE('',*,*,#272,.T.);
#401=ORIENTED_EDGE('',*,*,#274,.F.);
#402=ORIENTED_EDGE('',*,*,#291,.F.);
#403=ORIENTED_EDGE('',*,*,#292,.F.);
#404=ORIENTED_EDGE('',*,*,#291,.T.);
#405=ORIENTED_EDGE('',*,*,#273,.F.);
#406=ORIENTED_EDGE('',*,*,#293,.F.);
#407=ORIENTED_EDGE('',*,*,#289,.T.);
#408=ORIENTED_EDGE('',*,*,#294,.T.);
#409=ORIENTED_EDGE('',*,*,#293,.T.);
#410=ORIENTED_EDGE('',*,*,#276,.F.);
#411=ORIENTED_EDGE('',*,*,#283,.F.);
#412=ORIENTED_EDGE('',*,*,#247,.T.);
#413=ORIENTED_EDGE('',*,*,#251,.F.);
#414=ORIENTED_EDGE('',*,*,#255,.T.);
#415=ORIENTED_EDGE('',*,*,#257,.T.);
#416=ORIENTED_EDGE('',*,*,#290,.T.);
#417=ORIENTED_EDGE('',*,*,#292,.T.);
#418=ORIENTED_EDGE('',*,*,#294,.F.);
#419=ORIENTED_EDGE('',*,*,#282,.F.);
#420=ORIENTED_EDGE('',*,*,#280,.T.);
#421=CYLINDRICAL_SURFACE('',#469,2.);
#422=CYLINDRICAL_SURFACE('',#477,2.);
#423=CYLINDRICAL_SURFACE('',#479,2.5);
#424=CYLINDRICAL_SURFACE('',#485,31.);
#425=CYLINDRICAL_SURFACE('',#491,36.);
#426=CYLINDRICAL_SURFACE('',#498,25.5);
#427=CYLINDRICAL_SURFACE('',#505,2.5);
#428=CYLINDRICAL_SURFACE('',#506,2.5);
#429=CYLINDRICAL_SURFACE('',#507,2.5);
#430=CYLINDRICAL_SURFACE('',#511,26.);
#431=ADVANCED_FACE('',(#35),#421,.F.);
#432=ADVANCED_FACE('',(#36),#33,.F.);
#433=ADVANCED_FACE('',(#37),#34,.F.);
#434=ADVANCED_FACE('',(#38),#422,.F.);
#435=ADVANCED_FACE('',(#39),#423,.T.);
#436=ADVANCED_FACE('',(#40,#15,#16),#21,.T.);
#437=ADVANCED_FACE('',(#41),#424,.T.);
#438=ADVANCED_FACE('',(#42,#17),#22,.T.);
#439=ADVANCED_FACE('',(#43),#23,.T.);
#440=ADVANCED_FACE('',(#44),#24,.T.);
#441=ADVANCED_FACE('',(#45),#425,.T.);
#442=ADVANCED_FACE('',(#46),#25,.T.);
#443=ADVANCED_FACE('',(#47),#26,.T.);
#444=ADVANCED_FACE('',(#48),#27,.F.);
#445=ADVANCED_FACE('',(#49),#426,.F.);
#446=ADVANCED_FACE('',(#50),#28,.F.);
#447=ADVANCED_FACE('',(#51,#18,#19),#29,.T.);
#448=ADVANCED_FACE('',(#52),#427,.F.);
#449=ADVANCED_FACE('',(#53),#428,.F.);
#450=ADVANCED_FACE('',(#54),#429,.F.);
#451=ADVANCED_FACE('',(#55),#30,.T.);
#452=ADVANCED_FACE('',(#56,#20),#31,.T.);
#453=ADVANCED_FACE('',(#57),#430,.F.);
#454=ADVANCED_FACE('',(#58),#32,.T.);
#455=CLOSED_SHELL('',(#431,#432,#433,#434,#435,#436,#437,#438,#439,#440,
#441,#442,#443,#444,#445,#446,#447,#448,#449,#450,#451,#452,#453,#454));
#456=DERIVED_UNIT_ELEMENT(#458,1.);
#457=DERIVED_UNIT_ELEMENT(#816,-3.);
#458=(
MASS_UNIT()
NAMED_UNIT(*)
SI_UNIT(.KILO.,.GRAM.)
);
#459=DERIVED_UNIT((#456,#457));
#460=MEASURE_REPRESENTATION_ITEM('density measure',
POSITIVE_RATIO_MEASURE(7850.),#459);
#461=PROPERTY_DEFINITION_REPRESENTATION(#466,#463);
#462=PROPERTY_DEFINITION_REPRESENTATION(#467,#464);
#463=REPRESENTATION('material name',(#465),#813);
#464=REPRESENTATION('density',(#460),#813);
#465=DESCRIPTIVE_REPRESENTATION_ITEM('Stal','Stal');
#466=PROPERTY_DEFINITION('material property','material name',#823);
#467=PROPERTY_DEFINITION('material property','density of part',#823);
#468=AXIS2_PLACEMENT_3D('',#645,#514,#515);
#469=AXIS2_PLACEMENT_3D('',#646,#516,#517);
#470=AXIS2_PLACEMENT_3D('',#651,#519,#520);
#471=AXIS2_PLACEMENT_3D('',#668,#522,#523);
#472=AXIS2_PLACEMENT_3D('',#681,#524,#525);
#473=AXIS2_PLACEMENT_3D('',#682,#526,#527);
#474=AXIS2_PLACEMENT_3D('',#683,#528,#529);
#475=AXIS2_PLACEMENT_3D('',#685,#530,#531);
#476=AXIS2_PLACEMENT_3D('',#687,#532,#533);
#477=AXIS2_PLACEMENT_3D('',#704,#534,#535);
#478=AXIS2_PLACEMENT_3D('',#708,#537,#538);
#479=AXIS2_PLACEMENT_3D('',#710,#540,#541);
#480=AXIS2_PLACEMENT_3D('',#716,#544,#545);
#481=AXIS2_PLACEMENT_3D('',#719,#547,#548);
#482=AXIS2_PLACEMENT_3D('',#720,#549,#550);
#483=AXIS2_PLACEMENT_3D('',#725,#553,#554);
#484=AXIS2_PLACEMENT_3D('',#727,#555,#556);
#485=AXIS2_PLACEMENT_3D('',#728,#557,#558);
#486=AXIS2_PLACEMENT_3D('',#731,#560,#561);
#487=AXIS2_PLACEMENT_3D('',#732,#562,#563);
#488=AXIS2_PLACEMENT_3D('',#737,#566,#567);
#489=AXIS2_PLACEMENT_3D('',#738,#568,#569);
#490=AXIS2_PLACEMENT_3D('',#748,#575,#576);
#491=AXIS2_PLACEMENT_3D('',#754,#580,#581);
#492=AXIS2_PLACEMENT_3D('',#756,#582,#583);
#493=AXIS2_PLACEMENT_3D('',#758,#584,#585);
#494=AXIS2_PLACEMENT_3D('',#760,#587,#588);
#495=AXIS2_PLACEMENT_3D('',#766,#592,#593);
#496=AXIS2_PLACEMENT_3D('',#773,#597,#598);
#497=AXIS2_PLACEMENT_3D('',#774,#599,#600);
#498=AXIS2_PLACEMENT_3D('',#776,#602,#603);
#499=AXIS2_PLACEMENT_3D('',#780,#605,#606);
#500=AXIS2_PLACEMENT_3D('',#781,#607,#608);
#501=AXIS2_PLACEMENT_3D('',#782,#609,#610);
#502=AXIS2_PLACEMENT_3D('',#784,#612,#613);
#503=AXIS2_PLACEMENT_3D('',#789,#616,#617);
#504=AXIS2_PLACEMENT_3D('',#791,#618,#619);
#505=AXIS2_PLACEMENT_3D('',#792,#620,#621);
#506=AXIS2_PLACEMENT_3D('',#794,#623,#624);
#507=AXIS2_PLACEMENT_3D('',#796,#626,#627);
#508=AXIS2_PLACEMENT_3D('',#799,#629,#630);
#509=AXIS2_PLACEMENT_3D('',#800,#631,#632);
#510=AXIS2_PLACEMENT_3D('',#804,#635,#636);
#511=AXIS2_PLACEMENT_3D('',#808,#639,#640);
#512=AXIS2_PLACEMENT_3D('',#809,#641,#642);
#513=AXIS2_PLACEMENT_3D('',#810,#643,#644);
#514=DIRECTION('axis',(0.,0.,1.));
#515=DIRECTION('refdir',(1.,0.,0.));
#516=DIRECTION('center_axis',(1.22471827056874E-16,0.,1.));
#517=DIRECTION('ref_axis',(0.707106781186547,0.707106781186548,0.));
#518=DIRECTION('',(1.22471827056874E-16,0.,1.));
#519=DIRECTION('center_axis',(2.22044604925031E-15,0.,1.));
#520=DIRECTION('ref_axis',(1.,0.,-2.22044604925031E-15));
#521=DIRECTION('',(-1.22471827056874E-16,0.,-1.));
#522=DIRECTION('center_axis',(0.,1.,0.));
#523=DIRECTION('ref_axis',(0.,0.,1.));
#524=DIRECTION('center_axis',(0.,-1.,0.));
#525=DIRECTION('ref_axis',(-0.992380539255934,0.,0.123210654190705));
#526=DIRECTION('center_axis',(0.,1.,0.));
#527=DIRECTION('ref_axis',(-0.992380539255934,0.,0.123210654190705));
#528=DIRECTION('center_axis',(0.,1.,0.));
#529=DIRECTION('ref_axis',(-0.0110580310130468,0.,-0.999938858105892));
#530=DIRECTION('center_axis',(0.,1.,0.));
#531=DIRECTION('ref_axis',(-0.011058031013047,0.,-0.999938858105892));
#532=DIRECTION('center_axis',(0.,-1.,0.));
#533=DIRECTION('ref_axis',(-0.011058031013047,0.,-0.999938858105892));
#534=DIRECTION('center_axis',(0.,0.,-1.));
#535=DIRECTION('ref_axis',(-0.707106781186548,0.707106781186548,0.));
#536=DIRECTION('',(0.,0.,1.));
#537=DIRECTION('center_axis',(0.,0.,1.));
#538=DIRECTION('ref_axis',(-0.707106781186548,0.707106781186548,0.));
#539=DIRECTION('',(0.,0.,-1.));
#540=DIRECTION('center_axis',(0.,1.,0.));
#541=DIRECTION('ref_axis',(-0.807332468246951,0.,0.590096844352083));
#542=DIRECTION('',(0.,-1.,0.));
#543=DIRECTION('',(0.,-1.,0.));
#544=DIRECTION('center_axis',(0.,-1.,0.));
#545=DIRECTION('ref_axis',(-0.807332468246951,0.,0.590096844352083));
#546=DIRECTION('',(0.,-1.,0.));
#547=DIRECTION('center_axis',(0.,1.,0.));
#548=DIRECTION('ref_axis',(-0.807332468246951,0.,0.590096844352083));
#549=DIRECTION('center_axis',(-1.,0.,1.22471827056874E-16));
#550=DIRECTION('ref_axis',(1.22471827056874E-16,0.,1.));
#551=DIRECTION('',(0.,1.,0.));
#552=DIRECTION('',(1.22471827056874E-16,0.,1.));
#553=DIRECTION('center_axis',(1.,0.,-1.22471827056874E-16));
#554=DIRECTION('ref_axis',(5.55111512312578E-16,0.,-1.));
#555=DIRECTION('center_axis',(1.,0.,-1.22471827056874E-16));
#556=DIRECTION('ref_axis',(0.,0.,-1.));
#557=DIRECTION('center_axis',(0.,1.,0.));
#558=DIRECTION('ref_axis',(-0.0110580310130471,0.,-0.999938858105892));
#559=DIRECTION('',(0.,1.,0.));
#560=DIRECTION('center_axis',(0.,-1.,0.));
#561=DIRECTION('ref_axis',(-0.270449156266822,0.,0.962734259219315));
#562=DIRECTION('center_axis',(1.,0.,0.));
#563=DIRECTION('ref_axis',(0.,0.,-1.));
#564=DIRECTION('',(0.,1.,0.));
#565=DIRECTION('',(0.,0.,1.));
#566=DIRECTION('center_axis',(-1.,0.,0.));
#567=DIRECTION('ref_axis',(5.55111512312578E-16,0.,-1.));
#568=DIRECTION('center_axis',(-6.67626785739831E-15,0.,1.));
#569=DIRECTION('ref_axis',(1.,0.,6.67626785739831E-15));
#570=DIRECTION('',(1.,0.,6.67626785739831E-15));
#571=DIRECTION('',(-1.,0.,-6.67626785739831E-15));
#572=DIRECTION('',(0.,1.,0.));
#573=DIRECTION('',(1.,0.,6.67626785739831E-15));
#574=DIRECTION('',(0.,1.,0.));
#575=DIRECTION('center_axis',(-1.,0.,-8.77866874265158E-17));
#576=DIRECTION('ref_axis',(-8.77866874265158E-17,0.,1.));
#577=DIRECTION('',(-8.77866874265158E-17,0.,1.));
#578=DIRECTION('',(-8.77866874265158E-17,0.,1.));
#579=DIRECTION('',(0.,1.,0.));
#580=DIRECTION('center_axis',(0.,1.,0.));
#581=DIRECTION('ref_axis',(-0.048817432436236,0.,-0.998807718377433));
#582=DIRECTION('center_axis',(0.,1.,0.));
#583=DIRECTION('ref_axis',(0.460532261740001,0.,0.887642966454779));
#584=DIRECTION('center_axis',(0.,1.,0.));
#585=DIRECTION('ref_axis',(0.460532261740001,0.,0.887642966454779));
#586=DIRECTION('',(0.,1.,0.));
#587=DIRECTION('center_axis',(1.,0.,4.64707293799681E-16));
#588=DIRECTION('ref_axis',(4.64707293799681E-16,0.,-1.));
#589=DIRECTION('',(4.64707293799681E-16,0.,-1.));
#590=DIRECTION('',(4.64707293799681E-16,0.,-1.));
#591=DIRECTION('',(0.,1.,0.));
#592=DIRECTION('center_axis',(0.,1.,0.));
#593=DIRECTION('ref_axis',(-1.,0.,0.));
#594=DIRECTION('',(0.,0.,1.));
#595=DIRECTION('',(1.,0.,0.));
#596=DIRECTION('',(2.87628835609875E-17,0.,-1.));
#597=DIRECTION('center_axis',(0.,-1.,0.));
#598=DIRECTION('ref_axis',(0.155456989335972,0.,0.987842661797209));
#599=DIRECTION('center_axis',(0.,1.,0.));
#600=DIRECTION('ref_axis',(-1.,0.,0.));
#601=DIRECTION('',(1.,0.,0.));
#602=DIRECTION('center_axis',(0.,1.,0.));
#603=DIRECTION('ref_axis',(0.235294117647059,0.,-0.971924214226959));
#604=DIRECTION('',(0.,-1.,0.));
#605=DIRECTION('center_axis',(0.,-1.,0.));
#606=DIRECTION('ref_axis',(0.235294117647059,0.,-0.971924214226959));
#607=DIRECTION('center_axis',(0.,1.,0.));
#608=DIRECTION('ref_axis',(0.235294117647059,0.,-0.971924214226959));
#609=DIRECTION('center_axis',(0.,-1.,0.));
#610=DIRECTION('ref_axis',(-1.,0.,0.));
#611=DIRECTION('',(0.,0.,-1.));
#612=DIRECTION('center_axis',(1.,0.,0.));
#613=DIRECTION('ref_axis',(0.,0.,-1.));
#614=DIRECTION('',(0.,0.,-1.));
#615=DIRECTION('',(0.,1.,0.));
#616=DIRECTION('center_axis',(-1.,0.,0.));
#617=DIRECTION('ref_axis',(5.55111512312578E-16,0.,-1.));
#618=DIRECTION('center_axis',(-1.,0.,0.));
#619=DIRECTION('ref_axis',(0.,0.,-1.));
#620=DIRECTION('center_axis',(-1.,0.,0.));
#621=DIRECTION('ref_axis',(0.,0.,-1.));
#622=DIRECTION('',(-1.,0.,0.));
#623=DIRECTION('center_axis',(-1.,0.,-5.55111512312578E-16));
#624=DIRECTION('ref_axis',(5.55111512312578E-16,0.,-1.));
#625=DIRECTION('',(-1.,0.,-5.55111512312578E-16));
#626=DIRECTION('center_axis',(-1.,0.,-5.55111512312578E-16));
#627=DIRECTION('ref_axis',(5.55111512312578E-16,0.,-1.));
#628=DIRECTION('',(-1.,0.,-5.55111512312578E-16));
#629=DIRECTION('center_axis',(1.,0.,0.));
#630=DIRECTION('ref_axis',(5.55111512312578E-16,0.,-1.));
#631=DIRECTION('center_axis',(0.,0.,1.));
#632=DIRECTION('ref_axis',(1.,0.,0.));
#633=DIRECTION('',(-1.,0.,0.));
#634=DIRECTION('',(0.,1.,0.));
#635=DIRECTION('center_axis',(-1.,0.,0.));
#636=DIRECTION('ref_axis',(0.,0.,1.));
#637=DIRECTION('',(0.,0.,-1.));
#638=DIRECTION('',(0.,1.,0.));
#639=DIRECTION('center_axis',(0.,1.,0.));
#640=DIRECTION('ref_axis',(-0.0127840817778735,0.,-0.999918280287493));
#641=DIRECTION('center_axis',(0.,-1.,0.));
#642=DIRECTION('ref_axis',(-0.130150917087364,0.,0.991494195031579));
#643=DIRECTION('center_axis',(0.,-1.,0.));
#644=DIRECTION('ref_axis',(-1.,0.,0.));
#645=CARTESIAN_POINT('',(0.,0.,0.));
#646=CARTESIAN_POINT('Origin',(3.99999999999999,-30.5,-97.3777733934671));
#647=CARTESIAN_POINT('',(5.99999999999999,-30.5,-99.1996825571336));
#648=CARTESIAN_POINT('',(6.,-30.5,-26.6786431439082));
#649=CARTESIAN_POINT('',(5.99999999999999,-30.5,-97.3777733934671));
#650=CARTESIAN_POINT('',(4.,-28.5,-26.6786431439082));
#651=CARTESIAN_POINT('Origin',(4.,-30.5,-26.6786431439082));
#652=CARTESIAN_POINT('',(3.99999999999999,-28.5,-97.7207454883188));
#653=CARTESIAN_POINT('',(3.99999999999999,-28.5,-97.3777733934671));
#654=CARTESIAN_POINT('Ctrl Pts',(3.99999999999999,-28.5,-97.7207454883188));
#655=CARTESIAN_POINT('Ctrl Pts',(4.00210664350943,-28.5,-97.7222665095073));
#656=CARTESIAN_POINT('Ctrl Pts',(4.00421323490311,-28.5000033284601,-97.7237876038541));
#657=CARTESIAN_POINT('Ctrl Pts',(4.20038733119144,-28.5006232187783,-97.8654482271398));
#658=CARTESIAN_POINT('Ctrl Pts',(4.39431708876193,-28.5294826877461,-98.0064492380436));
#659=CARTESIAN_POINT('Ctrl Pts',(4.7650135488163,-28.6422052151126,-98.2777599248193));
#660=CARTESIAN_POINT('Ctrl Pts',(4.9427707701316,-28.7249888483932,-98.4087529055923));
#661=CARTESIAN_POINT('Ctrl Pts',(5.30721399004722,-28.9675649669971,-98.6788754996101));
#662=CARTESIAN_POINT('Ctrl Pts',(5.48870299194227,-29.1398811794608,-98.8145056087477));
#663=CARTESIAN_POINT('Ctrl Pts',(5.75766177745922,-29.5227525628561,-99.0164648081873));
#664=CARTESIAN_POINT('Ctrl Pts',(5.85469523307167,-29.7187957340399,-99.0897359580928));
#665=CARTESIAN_POINT('Ctrl Pts',(5.97191261720863,-30.1157715751798,-99.1783780958004));
#666=CARTESIAN_POINT('Ctrl Pts',(6.,-30.3064027425883,-99.1996825571336));
#667=CARTESIAN_POINT('Ctrl Pts',(6.,-30.5,-99.1996825571336));
#668=CARTESIAN_POINT('Origin',(8.5,-30.5,-26.6786431439082));
#669=CARTESIAN_POINT('',(6.07590432653051,-30.5,-26.067283866669));
#670=CARTESIAN_POINT('',(4.04172232424521,-28.5,-26.067283866669));
#671=CARTESIAN_POINT('Ctrl Pts',(6.07590432653051,-30.5,-26.067283866669));
#672=CARTESIAN_POINT('Ctrl Pts',(6.07590432653051,-30.2549463875936,-26.067283866669));
#673=CARTESIAN_POINT('Ctrl Pts',(6.01707614397019,-29.9668264854876,-26.067283866669));
#674=CARTESIAN_POINT('Ctrl Pts',(5.82527345855905,-29.5118322192419,-26.067283866669));
#675=CARTESIAN_POINT('Ctrl Pts',(5.65721968867935,-29.2651835814162,-26.067283866669));
#676=CARTESIAN_POINT('Ctrl Pts',(5.30170402761995,-28.9144102564646,-26.067283866669));
#677=CARTESIAN_POINT('Ctrl Pts',(5.05062977106179,-28.7486424478276,-26.067283866669));
#678=CARTESIAN_POINT('Ctrl Pts',(4.5869941311222,-28.5583505034496,-26.067283866669));
#679=CARTESIAN_POINT('Ctrl Pts',(4.29217261980649,-28.5,-26.067283866669));
#680=CARTESIAN_POINT('Ctrl Pts',(4.04172232424521,-28.5,-26.067283866669));
#681=CARTESIAN_POINT('Origin',(8.5,-28.5,-26.6786431439082));
#682=CARTESIAN_POINT('Origin',(8.5,-30.5,-26.6786431439082));
#683=CARTESIAN_POINT('Origin',(14.3839238442715,-30.5,-129.044444592932));
#684=CARTESIAN_POINT('',(23.4258055670068,-30.5,-99.3923894379846));
#685=CARTESIAN_POINT('Origin',(14.3839238442715,-30.5,-129.044444592932));
#686=CARTESIAN_POINT('',(25.4258055670067,-28.5,-97.946585373669));
#687=CARTESIAN_POINT('Origin',(14.3839238442715,-28.5,-129.044444592932));
#688=CARTESIAN_POINT('Ctrl Pts',(25.4258055670067,-28.5,-97.946585373669));
#689=CARTESIAN_POINT('Ctrl Pts',(25.4236987756471,-28.5,-97.9480729736203));
#690=CARTESIAN_POINT('Ctrl Pts',(25.4215920341557,-28.5000033289274,-97.9495606451015));
#691=CARTESIAN_POINT('Ctrl Pts',(25.2411338841853,-28.5005735990709,-98.0769999693331));
#692=CARTESIAN_POINT('Ctrl Pts',(25.0629387924781,-28.5249937302718,-98.2036204261044));
#693=CARTESIAN_POINT('Ctrl Pts',(24.7198425312891,-28.6204486211425,-98.448883513486));
#694=CARTESIAN_POINT('Ctrl Pts',(24.5542628699308,-28.6907258639986,-98.5679832087003));
#695=CARTESIAN_POINT('Ctrl Pts',(24.1888382103716,-28.909558613332,-98.8322477851925));
#696=CARTESIAN_POINT('Ctrl Pts',(23.9963230171613,-29.0769527943481,-98.9726481813488));
#697=CARTESIAN_POINT('Ctrl Pts',(23.7071419805877,-29.4549655292248,-99.184626827918));
#698=CARTESIAN_POINT('Ctrl Pts',(23.6008719175653,-29.6505397847361,-99.2629827044554));
#699=CARTESIAN_POINT('Ctrl Pts',(23.4633517148219,-30.0625409160973,-99.3645593166843));
#700=CARTESIAN_POINT('Ctrl Pts',(23.4278387958875,-30.2698019294346,-99.3908837822184));
#701=CARTESIAN_POINT('Ctrl Pts',(23.4258337490707,-30.4877367856984,-99.3923685684115));
#702=CARTESIAN_POINT('Ctrl Pts',(23.4258055670067,-30.4938700576636,-99.3923894379846));
#703=CARTESIAN_POINT('Ctrl Pts',(23.4258055670067,-30.5000000000006,-99.3923894379846));
#704=CARTESIAN_POINT('Origin',(25.4258055670067,-30.5,-91.5444204851513));
#705=CARTESIAN_POINT('',(25.4258055670067,-28.5,-87.532976740502));
#706=CARTESIAN_POINT('',(25.4258055670067,-28.5,-91.5444204851513));
#707=CARTESIAN_POINT('',(23.4258055670067,-30.5,-87.532976740502));
#708=CARTESIAN_POINT('Origin',(25.4258055670067,-30.5,-87.532976740502));
#709=CARTESIAN_POINT('',(23.4258055670067,-30.5,-91.5444204851513));
#710=CARTESIAN_POINT('Origin',(8.5,-43.5,-26.6786431439082));
#711=CARTESIAN_POINT('',(6.07590432653051,-28.5,-26.067283866669));
#712=CARTESIAN_POINT('',(6.07590432653051,-43.5,-26.067283866669));
#713=CARTESIAN_POINT('',(6.,-43.5,-26.6786431439082));
#714=CARTESIAN_POINT('',(6.,-43.5,-26.6786431439082));
#715=CARTESIAN_POINT('',(7.74107142857143,-43.5,-24.2966214346307));
#716=CARTESIAN_POINT('Origin',(8.5,-43.5,-26.6786431439082));
#717=CARTESIAN_POINT('',(7.74107142857143,-28.5,-24.2966214346307));
#718=CARTESIAN_POINT('',(7.74107142857143,-43.5,-24.2966214346307));
#719=CARTESIAN_POINT('Origin',(8.5,-28.5,-26.6786431439082));
#720=CARTESIAN_POINT('Origin',(5.99999999999999,-43.5,-99.1996825571336));
#721=CARTESIAN_POINT('',(5.99999999999999,-43.5,-99.1996825571336));
#722=CARTESIAN_POINT('',(5.99999999999999,-43.5,-99.1996825571336));
#723=CARTESIAN_POINT('',(5.99999999999999,-43.5,-99.1996825571336));
#724=CARTESIAN_POINT('',(5.99999999999999,-36.,-90.9626830892433));
#725=CARTESIAN_POINT('Origin',(5.99999999999999,-36.,-93.4626830892433));
#726=CARTESIAN_POINT('',(5.99999999999999,-36.,-28.6622329829854));
#727=CARTESIAN_POINT('Origin',(5.99999999999999,-36.,-31.1622329829854));
#728=CARTESIAN_POINT('Origin',(14.3839238442715,-43.5,-129.044444592932));
#729=CARTESIAN_POINT('',(23.4258055670068,-43.5,-99.3923894379846));
#730=CARTESIAN_POINT('',(23.4258055670068,-43.5,-99.3923894379846));
#731=CARTESIAN_POINT('Origin',(14.3839238442715,-43.5,-129.044444592932));
#732=CARTESIAN_POINT('Origin',(23.4258055670067,-43.5,-87.532976740502));
#733=CARTESIAN_POINT('',(23.4258055670067,-43.5,-87.532976740502));
#734=CARTESIAN_POINT('',(23.4258055670067,-43.5,-87.532976740502));
#735=CARTESIAN_POINT('',(23.4258055670067,-43.5,-99.3923894379846));
#736=CARTESIAN_POINT('',(23.4258055670068,-36.,-90.9626830892433));
#737=CARTESIAN_POINT('Origin',(23.4258055670067,-36.,-93.4626830892433));
#738=CARTESIAN_POINT('Origin',(0.999999999999998,-28.5,-26.067283866669));
#739=CARTESIAN_POINT('',(0.999999999999998,-28.5,-26.067283866669));
#740=CARTESIAN_POINT('',(0.999999999999998,-28.5,-26.067283866669));
#741=CARTESIAN_POINT('',(11.,-28.5,-26.067283866669));
#742=CARTESIAN_POINT('',(7.69196192213551,-28.5,-26.0672838666689));
#743=CARTESIAN_POINT('',(11.,-23.5,-26.067283866669));
#744=CARTESIAN_POINT('',(11.,-28.5,-26.067283866669));
#745=CARTESIAN_POINT('',(0.999999999999999,-23.5,-26.067283866669));
#746=CARTESIAN_POINT('',(0.999999999999998,-23.5,-26.067283866669));
#747=CARTESIAN_POINT('',(0.999999999999998,-28.5,-26.067283866669));
#748=CARTESIAN_POINT('Origin',(1.,-28.5,-95.6248308529332));
#749=CARTESIAN_POINT('',(1.,-28.5,-95.6248308529332));
#750=CARTESIAN_POINT('',(1.,-28.5,-95.6248308529332));
#751=CARTESIAN_POINT('',(1.,-23.5,-95.6248308529332));
#752=CARTESIAN_POINT('',(1.,-23.5,-95.6248308529332));
#753=CARTESIAN_POINT('',(1.,-28.5,-95.6248308529332));
#754=CARTESIAN_POINT('Origin',(14.3839238442715,-28.5,-129.044444592932));
#755=CARTESIAN_POINT('',(30.9630852669115,-28.5,-97.0892978005603));
#756=CARTESIAN_POINT('Origin',(14.3839238442715,-28.5,-129.044444592932));
#757=CARTESIAN_POINT('',(30.9630852669115,-23.5,-97.0892978005603));
#758=CARTESIAN_POINT('Origin',(14.3839238442715,-23.5,-129.044444592932));
#759=CARTESIAN_POINT('',(30.9630852669115,-28.5,-97.0892978005603));
#760=CARTESIAN_POINT('Origin',(30.9630852669115,-28.5,-87.532976740502));
#761=CARTESIAN_POINT('',(30.9630852669115,-28.5,-87.532976740502));
#762=CARTESIAN_POINT('',(30.9630852669115,-28.5,-87.532976740502));
#763=CARTESIAN_POINT('',(30.9630852669115,-23.5,-87.532976740502));
#764=CARTESIAN_POINT('',(30.9630852669115,-23.5,-87.532976740502));
#765=CARTESIAN_POINT('',(30.9630852669115,-28.5,-87.532976740502));
#766=CARTESIAN_POINT('Origin',(14.3839238442715,-23.5,-95.5558642298007));
#767=CARTESIAN_POINT('',(18.4258055670067,-23.5,-103.360535386205));
#768=CARTESIAN_POINT('',(18.4258055670067,-23.5,-87.532976740502));
#769=CARTESIAN_POINT('',(18.4258055670067,-23.5,-103.360535386205));
#770=CARTESIAN_POINT('',(18.4258055670067,-23.5,-87.532976740502));
#771=CARTESIAN_POINT('',(11.,-23.5,-103.265595522111));
#772=CARTESIAN_POINT('',(11.,-23.5,-26.067283866669));
#773=CARTESIAN_POINT('Origin',(14.3839238442715,-23.5,-129.044444592932));
#774=CARTESIAN_POINT('Origin',(14.3839238442715,-28.5,-95.5558642298007));
#775=CARTESIAN_POINT('',(18.4258055670067,-28.5,-87.532976740502));
#776=CARTESIAN_POINT('Origin',(0.,-43.5,0.));
#777=CARTESIAN_POINT('',(11.,-28.5,-23.0054341406547));
#778=CARTESIAN_POINT('',(11.,-43.5,-23.0054341406547));
#779=CARTESIAN_POINT('',(11.,-43.5,-23.0054341406547));
#780=CARTESIAN_POINT('Origin',(0.,-28.5,0.));
#781=CARTESIAN_POINT('Origin',(0.,-43.5,0.));
#782=CARTESIAN_POINT('Origin',(14.3839238442715,-28.5,-93.3615438684203));
#783=CARTESIAN_POINT('',(11.,-28.5,-26.6786431439082));
#784=CARTESIAN_POINT('Origin',(11.,-43.5,-26.6786431439082));
#785=CARTESIAN_POINT('',(11.,-43.5,-103.265595522111));
#786=CARTESIAN_POINT('',(11.,-43.5,-26.6786431439082));
#787=CARTESIAN_POINT('',(11.,-43.5,-103.265595522111));
#788=CARTESIAN_POINT('',(11.,-36.,-90.9626830892433));
#789=CARTESIAN_POINT('Origin',(11.,-36.,-93.4626830892433));
#790=CARTESIAN_POINT('',(11.,-36.,-28.6622329829854));
#791=CARTESIAN_POINT('Origin',(11.,-36.,-31.1622329829854));
#792=CARTESIAN_POINT('Origin',(11.,-36.,-31.1622329829854));
#793=CARTESIAN_POINT('',(11.,-36.,-28.6622329829854));
#794=CARTESIAN_POINT('Origin',(23.4258055670068,-36.,-93.4626830892433));
#795=CARTESIAN_POINT('',(23.4258055670068,-36.,-90.9626830892433));
#796=CARTESIAN_POINT('Origin',(23.4258055670068,-36.,-93.4626830892433));
#797=CARTESIAN_POINT('',(18.4258055670067,-36.,-90.9626830892433));
#798=CARTESIAN_POINT('',(23.4258055670068,-36.,-90.9626830892433));
#799=CARTESIAN_POINT('Origin',(18.4258055670067,-36.,-93.4626830892433));
#800=CARTESIAN_POINT('Origin',(18.4258055670067,-43.5,-87.532976740502));
#801=CARTESIAN_POINT('',(18.4258055670067,-43.5,-87.532976740502));
#802=CARTESIAN_POINT('',(23.4258055670067,-43.5,-87.532976740502));
#803=CARTESIAN_POINT('',(18.4258055670067,-43.5,-87.532976740502));
#804=CARTESIAN_POINT('Origin',(18.4258055670067,-43.5,-103.360535386205));
#805=CARTESIAN_POINT('',(18.4258055670067,-43.5,-103.360535386205));
#806=CARTESIAN_POINT('',(18.4258055670067,-43.5,-87.532976740502));
#807=CARTESIAN_POINT('',(18.4258055670067,-43.5,-103.360535386205));
#808=CARTESIAN_POINT('Origin',(14.3839238442715,-43.5,-129.044444592932));
#809=CARTESIAN_POINT('Origin',(14.3839238442715,-43.5,-129.044444592932));
#810=CARTESIAN_POINT('Origin',(14.3839238442715,-43.5,-93.3615438684203));
#811=UNCERTAINTY_MEASURE_WITH_UNIT(LENGTH_MEASURE(0.01),#815,
'DISTANCE_ACCURACY_VALUE',
'Maximum model space distance between geometric entities at asserted c
onnectivities');
#812=UNCERTAINTY_MEASURE_WITH_UNIT(LENGTH_MEASURE(0.01),#815,
'DISTANCE_ACCURACY_VALUE',
'Maximum model space distance between geometric entities at asserted c
onnectivities');
#813=(
GEOMETRIC_REPRESENTATION_CONTEXT(3)
GLOBAL_UNCERTAINTY_ASSIGNED_CONTEXT((#811))
GLOBAL_UNIT_ASSIGNED_CONTEXT((#815,#817,#818))
REPRESENTATION_CONTEXT('','3D')
);
#814=(
GEOMETRIC_REPRESENTATION_CONTEXT(3)
GLOBAL_UNCERTAINTY_ASSIGNED_CONTEXT((#812))
GLOBAL_UNIT_ASSIGNED_CONTEXT((#815,#817,#818))
REPRESENTATION_CONTEXT('','3D')
);
#815=(
LENGTH_UNIT()
NAMED_UNIT(*)
SI_UNIT(.MILLI.,.METRE.)
);
#816=(
LENGTH_UNIT()
NAMED_UNIT(*)
SI_UNIT($,.METRE.)
);
#817=(
NAMED_UNIT(*)
PLANE_ANGLE_UNIT()
SI_UNIT($,.RADIAN.)
);
#818=(
NAMED_UNIT(*)
SI_UNIT($,.STERADIAN.)
SOLID_ANGLE_UNIT()
);
#819=SHAPE_DEFINITION_REPRESENTATION(#820,#821);
#820=PRODUCT_DEFINITION_SHAPE('',$,#823);
#821=SHAPE_REPRESENTATION('',(#468),#813);
#822=PRODUCT_DEFINITION_CONTEXT('part definition',#827,'design');
#823=PRODUCT_DEFINITION('obudowa_anteny','obudowa_anteny v12',#824,#822);
#824=PRODUCT_DEFINITION_FORMATION('',$,#829);
#825=PRODUCT_RELATED_PRODUCT_CATEGORY('obudowa_anteny v12',
'obudowa_anteny v12',(#829));
#826=APPLICATION_PROTOCOL_DEFINITION('international standard',
'automotive_design',2009,#827);
#827=APPLICATION_CONTEXT(
'Core Data for Automotive Mechanical Design Process');
#828=PRODUCT_CONTEXT('part definition',#827,'mechanical');
#829=PRODUCT('obudowa_anteny','obudowa_anteny v12',$,(#828));
#830=PRESENTATION_STYLE_ASSIGNMENT((#832));
#831=PRESENTATION_STYLE_ASSIGNMENT((#833));
#832=SURFACE_STYLE_USAGE(.BOTH.,#834);
#833=SURFACE_STYLE_USAGE(.BOTH.,#835);
#834=SURFACE_SIDE_STYLE('',(#836));
#835=SURFACE_SIDE_STYLE('',(#837));
#836=SURFACE_STYLE_FILL_AREA(#838);
#837=SURFACE_STYLE_FILL_AREA(#839);
#838=FILL_AREA_STYLE('Stal \X2\2014\X0\ satynowa',(#840));
#839=FILL_AREA_STYLE('FR4',(#841));
#840=FILL_AREA_STYLE_COLOUR('Stal \X2\2014\X0\ satynowa',#842);
#841=FILL_AREA_STYLE_COLOUR('FR4',#843);
#842=COLOUR_RGB('Stal \X2\2014\X0\ satynowa',0.627450980392157,0.627450980392157,
0.627450980392157);
#843=COLOUR_RGB('FR4',0.266666666666667,0.466666666666667,0.4);
ENDSEC;
END-ISO-10303-21;
